<svg width="135" height="38" viewBox="0 0 135 38" fill="none" xmlns="http://www.w3.org/2000/svg">
<path d="M134.992 14.9351C134.992 12.3395 133.428 10.6709 130.97 10.6709C128.632 10.6709 126.948 12.3315 126.948 14.6207C126.948 17.0711 128.8 18.4254 131.074 18.4254C132.654 18.4254 134.385 17.6596 134.84 16.0071H132.231C131.944 16.4504 131.608 16.6197 131.058 16.6197C130.196 16.6197 129.677 16.0877 129.629 15.1527H134.992L134.992 14.9351ZM129.645 13.7422C129.789 12.8958 130.236 12.4847 130.986 12.4847C131.808 12.4847 132.199 12.9845 132.271 13.7422H129.645Z" fill="#707070"/>
<path d="M123.142 10.6631C122.152 10.6631 121.434 11.0177 120.828 11.7754V10.8565H118.146V18.2159H120.939V14.1694C120.939 13.4681 121.227 12.9281 122.017 12.9281C122.663 12.9281 122.958 13.2989 122.958 14.0968V18.2158H125.767V13.5648C125.767 11.9689 125.105 10.6631 123.142 10.6631Z" fill="#707070"/>
<path d="M118.785 27.2358H118.051V31.4274H120.892V30.7907H118.785V27.2358Z" fill="#707070"/>
<path d="M116.543 10.8564H113.742V18.2158H116.543V10.8564Z" fill="#707070"/>
<path d="M116.543 8.06763H113.742V10.0345H116.543V8.06763Z" fill="#707070"/>
<path d="M114.133 27.2358L112.529 31.4274H113.279L113.686 30.3151H115.33L115.721 31.4274H116.503L114.907 27.2358H114.133ZM113.87 29.7589L114.516 28.0016L115.139 29.7589H113.87Z" fill="#707070"/>
<path d="M108.539 27.8727H109.856V31.4274H110.582V27.8727H111.906V27.2358H108.539V27.8727Z" fill="#707070"/>
<path d="M112.633 16.0636H110.063C109.68 16.0636 109.441 16.0798 108.834 16.1362C109.568 15.5317 109.879 15.2817 110.263 14.9191L112.321 13.0006V10.8564H105.69V12.9845H108.028C108.339 12.9845 108.515 12.9684 108.938 12.9443C108.26 13.4682 108.116 13.5972 107.398 14.234L105.379 16.0477V18.2161H112.632V16.0636H112.633Z" fill="#707070"/>
<path d="M106.889 27.2358H106.154V31.4274H106.889V27.2358Z" fill="#707070"/>
<path d="M104.406 13.3554C104.406 12.6137 104.366 12.3397 104.206 12.0173C103.656 10.8323 101.892 10.647 100.767 10.647C98.365 10.647 97.192 11.4451 97.1283 13.1136H99.7375C99.8333 12.5412 100.089 12.3719 100.767 12.3719C101.389 12.3719 101.685 12.5734 101.685 13.0088C101.685 13.7262 100.663 13.6778 100.176 13.7503C98.6764 13.968 96.7852 14.1533 96.7852 16.1443C96.7852 17.6034 97.7746 18.4577 99.4264 18.4577C100.4 18.4577 101.094 18.1998 101.756 17.5308C101.764 17.8047 101.78 17.8854 101.868 18.2158H104.693C104.382 17.5871 104.382 16.8294 104.382 16.1201C104.382 14.9756 104.406 14.2824 104.406 13.3554ZM101.701 15.3061C101.701 15.7896 101.653 16.0235 101.525 16.2331C101.318 16.5877 100.911 16.8054 100.424 16.8054C99.937 16.8054 99.6339 16.5152 99.6339 16.0639C99.6339 15.6609 99.8733 15.4029 100.4 15.29C100.847 15.1933 101.318 15.1208 101.701 14.8629L101.701 15.3061Z" fill="#707070"/>
<path d="M102.427 29.7508H103.544C103.544 30.3796 103.177 30.9357 102.419 30.9357C101.597 30.9357 101.11 30.3393 101.11 29.3478C101.11 28.3724 101.597 27.7679 102.395 27.7679C102.962 27.7679 103.36 28.0742 103.448 28.5739H104.15C104.055 27.6631 103.257 27.1553 102.403 27.1553C101.118 27.1553 100.376 28.1468 100.376 29.3639C100.376 30.6537 101.174 31.5242 102.339 31.5242C102.89 31.5242 103.288 31.3389 103.624 30.9278L103.735 31.4275H104.206V29.1867H102.427V29.7508H102.427Z" fill="#707070"/>
<path d="M98.525 27.2358H97.79V31.4274H98.525V27.2358Z" fill="#707070"/>
<path d="M93.9929 27.2358H92.4209V31.4274H94.0328C94.6871 31.4274 95.0382 31.3064 95.3813 30.9599C95.8281 30.5085 95.9637 29.8878 95.9637 29.259C95.9637 28.59 95.7483 28.0257 95.3493 27.6711C94.9583 27.3084 94.5035 27.2358 93.9929 27.2358ZM93.9929 30.8067H93.1391V27.8646H93.945C94.8547 27.8646 95.2377 28.4369 95.2377 29.2994C95.2377 30.1538 94.9663 30.8067 93.9929 30.8067Z" fill="#707070"/>
<path d="M95.7558 17.1762V10.8566H93.0667V11.7433C92.572 10.9856 92.0054 10.647 91.0319 10.647C89.1406 10.647 87.9277 12.0253 87.9277 14.1937C87.9277 16.3783 89.0848 17.684 91 17.684C91.8778 17.684 92.5241 17.418 93.0667 16.7651V17.6034C93.0667 18.345 92.9471 18.9253 91.9735 18.9253C91.3591 18.9253 91.0878 18.7561 90.9441 18.2724H88.1671C88.4224 20.2715 90.1142 20.6987 91.8937 20.6987C94.3195 20.6987 95.7558 19.8362 95.7558 17.1762ZM91.8777 15.7172C91.0877 15.7172 90.6329 15.1772 90.6329 14.2259C90.6329 13.2829 91.0717 12.7427 91.8618 12.7427C92.6677 12.7427 93.1226 13.2828 93.1226 14.2259C93.1226 15.1772 92.6836 15.7172 91.8777 15.7172Z" fill="#707070"/>
<path d="M85.8299 27.1394C84.5611 27.1394 83.835 28.1067 83.835 29.3319C83.835 30.6377 84.6329 31.5244 85.8219 31.5244C87.0029 31.5244 87.8089 30.6377 87.8089 29.3319C87.809 28.0342 87.0029 27.1394 85.8299 27.1394ZM85.8299 30.9118C85.0559 30.9118 84.5611 30.2992 84.5611 29.3238C84.5611 28.3727 85.0559 27.7601 85.8219 27.7601C86.588 27.7601 87.0827 28.3646 87.0827 29.3238C87.0828 30.2831 86.588 30.9118 85.8299 30.9118Z" fill="#707070"/>
<path d="M84.3614 18.216H87.1782C86.8669 17.5872 86.8669 16.8295 86.8669 16.1202C86.8669 14.9755 86.8988 14.2824 86.8988 13.3554C86.8988 12.6137 86.8589 12.3397 86.6993 12.0173C86.1487 10.8323 84.3851 10.647 83.2601 10.647C80.8582 10.647 79.6853 11.4451 79.6134 13.1136H82.2307C82.3266 12.5412 82.5818 12.3719 83.2601 12.3719C83.8746 12.3719 84.1778 12.5734 84.1778 13.0088C84.1778 13.7262 83.1564 13.6778 82.6617 13.7503C81.1694 13.968 79.2783 14.1533 79.2783 16.1443C79.2783 17.6034 80.2677 18.4577 81.9196 18.4577C82.8931 18.4577 83.5793 18.1998 84.2417 17.5308C84.2577 17.8049 84.2737 17.8855 84.3614 18.216ZM84.1859 15.3061C84.1859 15.7896 84.146 16.0235 84.0184 16.2331C83.8109 16.5877 83.396 16.8054 82.9173 16.8054C82.4226 16.8054 82.1273 16.5152 82.1273 16.0639C82.1273 15.6609 82.3667 15.4029 82.8934 15.29C83.3402 15.1933 83.8111 15.1208 84.186 14.8629L84.1859 15.3061Z" fill="#707070"/>
<path d="M77.1468 29.5654H79.2455V28.9689H77.1468V27.8565H79.4131V27.2358H76.4287V31.4274H79.445V30.7986H77.1468V29.5654Z" fill="#707070"/>
<path d="M72.83 30.9034C71.9443 30.9034 71.6091 30.1055 71.6091 29.3316C71.6091 28.5659 71.9602 27.7679 72.838 27.7679C73.3725 27.7679 73.7556 28.0661 73.8594 28.5739H74.5776C74.442 27.6067 73.6759 27.1472 72.846 27.1472C71.5852 27.1472 70.875 28.1467 70.875 29.3316C70.875 30.6536 71.6411 31.5241 72.8141 31.5241C73.8435 31.5241 74.5377 30.847 74.6174 29.8314H73.8913C73.8114 30.4521 73.5003 30.9034 72.83 30.9034Z" fill="#707070"/>
<path d="M78.1926 18.2158V13.3794C78.1926 11.7108 77.1631 10.6467 75.5274 10.6467C74.522 10.6467 73.724 11.0418 73.1813 11.8155C72.7744 10.9611 72.0802 10.6467 71.1225 10.6467C70.1251 10.6467 69.359 11.0337 68.8403 11.7995V10.8563H66.1592V18.2157H68.9521V14.1209C68.9521 13.5002 69.1516 12.8392 69.8936 12.8392C70.6038 12.8392 70.7714 13.3712 70.7714 13.9677V18.2157H73.5484V14.1209C73.5484 13.484 73.7319 12.8795 74.482 12.8795C75.2321 12.8795 75.3677 13.4679 75.3677 14.0644V18.2157L78.1926 18.2158Z" fill="#707070"/>
<path d="M68.4421 29.1706C68.7852 29.0336 69.0325 28.695 69.0325 28.292C69.0325 27.6713 68.5857 27.2361 67.692 27.2361H65.8008V31.4276H67.9075C68.6815 31.4276 69.2161 30.936 69.2161 30.1943C69.2161 29.6542 68.9129 29.2915 68.4421 29.1706ZM66.5111 27.8324H67.5165C67.9315 27.8324 68.3144 27.8888 68.3144 28.4128C68.3144 28.832 68.0351 28.9852 67.5005 28.9852H66.5111V27.8324ZM67.5963 30.823H66.511V29.5172H67.5803C68.0591 29.5172 68.4899 29.5978 68.4899 30.1701C68.4899 30.7101 68.083 30.823 67.5963 30.823Z" fill="#707070"/>
<path d="M0.0078125 37.6584H59.1291V0.659668H0.0078125V37.6584ZM46.5771 21.8432C46.0345 21.3918 43.7443 20.8276 42.8346 20.5051C40.9354 19.8522 39.555 19.0945 39.555 16.8052C39.555 14.2822 41.7176 12.6056 44.9173 12.6056C48.3007 12.6056 50.2557 14.1854 50.2956 16.9503H46.4813C46.4654 16.1442 45.827 15.6767 44.7896 15.6767C43.9278 15.6767 43.4491 15.9749 43.4491 16.4989C43.4491 17.3292 45.7153 17.6515 46.2738 17.7967C48.4921 18.3851 50.8382 19.2477 50.8382 22.0285C50.8382 24.8094 48.5799 26.5828 45.0449 26.5828C41.3424 26.5828 39.0682 24.7531 39.0363 21.7625H43.1138C43.1856 23.0603 43.9837 23.4956 45.1805 23.4956C46.202 23.4956 46.8323 23.0603 46.8323 22.3913C46.8324 22.1657 46.7447 21.9963 46.5771 21.8432ZM22.3588 12.8878H28.184L29.0378 16.37C29.4527 18.0627 29.8038 19.7393 30.0672 21.4483C30.3624 19.6991 30.7694 18.0063 31.1843 16.2733L31.9983 12.8878H37.7117V26.2767H33.8974V24.2695C33.8974 21.7303 33.9532 19.1912 34.049 16.6522L31.5513 26.2767H28.5189L26.0054 16.6522C26.133 19.8281 26.133 20.6422 26.157 23.7053L26.1729 26.2767H22.3586V12.8878H22.3588ZM14.5787 12.5492C17.8185 12.5492 20.4039 14.8304 20.5873 17.8371H16.6454C16.4219 16.6361 15.6559 15.959 14.4989 15.959C12.5838 15.959 11.9533 17.8936 11.9533 19.546C11.9533 21.7628 12.9189 23.1411 14.4989 23.1411C15.6958 23.1411 16.4379 22.3915 16.6454 20.997H20.6432C20.4039 24.6969 17.7227 26.5992 14.4989 26.5992C10.4452 26.5992 7.85978 23.512 7.85978 19.5462C7.85978 15.6204 10.5569 12.5492 14.5787 12.5492Z" fill="#707070"/>
</svg>
