<svg width="184" height="40" viewBox="0 0 184 40" fill="none" xmlns="http://www.w3.org/2000/svg">
<path fill-rule="evenodd" clip-rule="evenodd" d="M48.0385 25.9085C49.068 24.7255 50.3726 22.0042 50.7978 13.4558L50.8478 8.84922H65.7407V25.9168H69.1128V33.2112H65.0363V30.0218H49.4598V33.2112H45.375V25.9085H48.0426H48.0385ZM52.8319 25.9085H61.4141V12.603L55.1035 12.6741L54.9368 16.5658C54.47 22.5016 53.728 24.8927 52.8277 25.9085H52.8319ZM79.5541 13.7191C84.7518 13.7191 88.0988 17.2597 88.0988 22.0042C88.0988 26.7362 84.7518 30.2893 79.5541 30.2893C74.3563 30.2893 71.0093 26.7487 71.0093 22.0042C71.0093 17.2597 74.3563 13.7191 79.5541 13.7191ZM79.5541 26.5271C82.0258 26.5271 83.8473 24.7339 83.8473 22.0042C83.8473 19.3331 81.9966 17.5147 79.5541 17.5147C77.1782 17.5147 75.3025 19.262 75.3025 22.0042C75.3025 24.6377 77.1115 26.5271 79.5541 26.5271Z" fill="#F6F6F6"/>
<path d="M94.68 13.7194H90.9453V30.2896H95.0718V20.1611L99.9819 25.4281H100.09L104.867 20.1611V30.2896H108.989V13.7194H105.363L100.161 19.7263L94.68 13.7194ZM167.852 13.7194H172.008V20.1987L178.135 13.7194H183.379L176.105 21.5949L184 30.2896H178.577L172.012 23.6097V30.2854H167.857V13.7194H167.852ZM115.988 13.7194H111.836V30.2896H115.988V23.6097L122.553 30.2896H127.975L120.085 21.5907L127.363 13.7152H122.119L115.992 20.1945V13.7152L115.988 13.7194ZM136.591 17.9121L136.533 19.6845C136.324 29.023 133.482 30.6742 128.926 30.2185V26.1638C131.372 26.331 132.364 25.1605 132.477 18.8568L132.56 13.7194H145.065V30.1182H140.851V17.9121H136.591ZM152.134 13.7194H147.916V30.2896H152.134L159.841 19.7932V30.2854H164.055V13.7236H159.841L152.13 24.22V13.7278L152.134 13.7194Z" fill="#F6F6F6"/>
<path d="M3.73052 39.9959H22.3623V32.1455H7.82784V16.0728L18.6401 8.59862L29.4482 16.0686V23.1749H37.276V14.2C37.276 12.7077 36.6383 11.2823 35.4128 10.463L20.8784 0.739903C19.3862 -0.254977 17.894 -0.238256 16.4018 0.739903C12.4253 3.36505 4.02229 9.07934 2.23831 10.2749C0.445995 11.4746 0 12.8833 0 14.2042V36.2588C0 38.0563 1.86318 39.9959 3.72635 39.9959H3.73052Z" fill="#F6F6F6"/>
<path d="M22.3665 40.0002V27.2632C22.3665 25.0059 24.1463 23.175 26.3471 23.175H37.2844L22.3623 40.0002H22.3665Z" fill="#F6F6F6"/>
</svg>
