<svg width="15" height="15" viewBox="0 0 15 15" fill="none" xmlns="http://www.w3.org/2000/svg">
<path fill-rule="evenodd" clip-rule="evenodd" d="M5.58152 0.009768C4.52485 0.0308856 3.78467 0.085686 3.16515 0.18866C2.31712 0.329615 1.70383 0.568038 1.24883 0.933649C1.04966 1.09368 0.89003 1.27973 0.740955 1.52557C0.345578 2.17754 0.132432 3.10551 0.0498358 4.53443C0.0172954 5.09732 0.00881609 5.4601 0.0041957 6.48766L7.32224e-06 7.41943L0.0723447 7.41942C0.229065 7.41942 1.23562 7.38231 1.6714 7.36049C3.28019 7.2799 4.15224 7.13749 4.87492 6.83733C5.61185 6.53125 6.19296 6.02975 6.60157 5.34723C6.6687 5.2351 6.8078 4.95121 6.85809 4.82366C7.14896 4.08607 7.28535 3.20628 7.36437 1.5579C7.38368 1.155 7.41943 0.187144 7.41943 0.0671385V0.00190381L6.63777 0.00309003C6.20786 0.00374171 5.73255 0.00674387 5.58152 0.009768ZM7.58053 0.0723447C7.58054 0.302969 7.63027 1.5548 7.65772 2.01555C7.74494 3.47955 7.90576 4.32875 8.22695 5.02138C8.47707 5.56072 8.84653 6.02091 9.31226 6.37318C9.49856 6.5141 9.67366 6.62087 9.90536 6.73484C10.7308 7.14082 11.7282 7.30119 13.9583 7.38648C14.4433 7.40504 14.8665 7.41929 14.934 7.41937L14.9981 7.41943L14.998 6.72564C14.9978 5.69008 14.9823 5.03852 14.9428 4.41727C14.8415 2.82404 14.5659 1.85221 14.032 1.20643C13.7593 0.876528 13.3066 0.594501 12.7505 0.408154C12.1205 0.197044 11.3067 0.0797403 10.136 0.0313176C9.67551 0.0122649 9.42181 0.0079667 8.5306 0.00411515L7.58052 0L7.58053 0.0723447ZM0.0041957 8.5111C0.00882342 9.54079 0.0175077 9.91206 0.0499091 10.4655C0.147999 12.1412 0.422565 13.1364 0.968145 13.7935C1.08877 13.9388 1.26082 14.0886 1.44807 14.2113C2.03825 14.5982 2.82877 14.8143 4.02919 14.9171C4.70074 14.9747 5.46776 14.9978 6.70733 14.998L7.41943 14.9981L7.41942 14.9303C7.41941 14.7588 7.38038 13.7112 7.35689 13.2517C7.28059 11.759 7.13859 10.877 6.86395 10.1899C6.51475 9.3163 5.91322 8.66319 5.08727 8.26091C4.34652 7.90013 3.45871 7.73552 1.77391 7.6466C1.35924 7.62471 0.61031 7.59485 0.18218 7.58314L0 7.57816L0.0041957 8.5111ZM14.6026 7.58875C13.4018 7.63049 12.8725 7.65761 12.3291 7.70522C10.7684 7.84196 9.89962 8.12869 9.15465 8.75283C8.87138 8.99015 8.61556 9.29246 8.4117 9.63078C8.32849 9.76885 8.1944 10.0418 8.13471 10.1946C7.86122 10.8946 7.72578 11.7349 7.64669 13.2224C7.62577 13.6158 7.59563 14.3745 7.58315 14.8215L7.57817 15L8.52942 14.9958C9.42361 14.9918 9.66696 14.9877 10.1324 14.9687C11.4325 14.9158 12.3041 14.7753 12.9748 14.5106C13.0847 14.4672 13.3202 14.3534 13.414 14.2984C13.7896 14.0779 14.0427 13.8311 14.259 13.4744C14.6544 12.8224 14.8676 11.893 14.9501 10.4619C14.9825 9.8997 14.9911 9.53253 14.9958 8.51229L15 7.58052L14.8874 7.58164C14.8254 7.58227 14.6973 7.58546 14.6026 7.58875Z" fill="white"/>
</svg>
