<svg width="158" height="40" viewBox="0 0 158 40" fill="none" xmlns="http://www.w3.org/2000/svg">
<path d="M106.683 12.8656C106.607 13.2422 106.476 13.575 106.292 13.8639C106.114 14.1464 105.895 14.3849 105.635 14.5795C105.375 14.7742 105.08 14.9218 104.75 15.0222C104.419 15.1163 104.067 15.1635 103.692 15.1635C103.197 15.1635 102.756 15.0755 102.368 14.8998C101.981 14.724 101.651 14.4791 101.378 14.1652C101.111 13.8512 100.908 13.4777 100.768 13.0445C100.629 12.6113 100.559 12.1341 100.559 11.613C100.559 11.0856 100.635 10.6053 100.787 10.1722C100.94 9.73889 101.156 9.36848 101.435 9.06082C101.714 8.75317 102.051 8.51458 102.444 8.3451C102.839 8.17558 103.279 8.09082 103.768 8.09082C104.124 8.09082 104.46 8.14418 104.778 8.25092C105.096 8.35137 105.378 8.49893 105.625 8.69352C105.879 8.88819 106.092 9.12989 106.263 9.4187C106.442 9.70121 106.569 10.0246 106.645 10.3887H105.701C105.651 10.1753 105.569 9.97748 105.454 9.79543C105.346 9.61338 105.21 9.45639 105.045 9.32456C104.879 9.19265 104.686 9.08909 104.464 9.01371C104.241 8.93842 103.993 8.90073 103.721 8.90073C103.416 8.90073 103.13 8.96038 102.864 9.07967C102.603 9.19265 102.375 9.36537 102.178 9.59764C101.981 9.8237 101.826 10.1062 101.711 10.4452C101.603 10.7843 101.549 11.1735 101.549 11.613C101.549 12.0462 101.603 12.4323 101.711 12.7714C101.819 13.1104 101.971 13.3992 102.169 13.6378C102.365 13.8701 102.597 14.049 102.864 14.1746C103.13 14.2939 103.426 14.3536 103.75 14.3536C104.301 14.3536 104.743 14.2154 105.073 13.9391C105.41 13.663 105.632 13.3051 105.74 12.8656H106.683Z" fill="#F6F6F6"/>
<path d="M108.393 14.212H112.041V15.0407H107.422V8.21289H108.393V14.212Z" fill="#F6F6F6"/>
<path d="M113.349 8.21289V12.3661C113.349 13.0379 113.482 13.5339 113.748 13.8541C114.022 14.1743 114.482 14.3344 115.13 14.3344C115.79 14.3344 116.257 14.1585 116.53 13.807C116.802 13.4491 116.939 12.9343 116.939 12.2625V8.21289H117.911V12.1872C117.911 12.6894 117.86 13.1258 117.758 13.4962C117.657 13.8666 117.494 14.1774 117.273 14.4285C117.05 14.6734 116.762 14.8586 116.406 14.9842C116.056 15.1035 115.632 15.1631 115.13 15.1631C114.654 15.1631 114.241 15.1129 113.891 15.0124C113.543 14.9057 113.257 14.7393 113.034 14.5133C112.812 14.281 112.647 13.9828 112.539 13.6186C112.431 13.2482 112.377 12.7962 112.377 12.2625V8.21289H113.349Z" fill="#F6F6F6"/>
<path d="M119.066 8.21289H121.552C121.876 8.21289 122.184 8.238 122.476 8.28823C122.768 8.33218 123.025 8.42008 123.247 8.55191C123.47 8.67751 123.648 8.85014 123.781 9.06989C123.914 9.28332 123.981 9.55959 123.981 9.89863C123.981 10.2251 123.914 10.5234 123.781 10.7933C123.648 11.0633 123.461 11.2673 123.219 11.4054C123.549 11.5436 123.807 11.7445 123.99 12.0082C124.175 12.2656 124.267 12.6046 124.267 13.0253C124.267 13.3894 124.203 13.7002 124.076 13.9576C123.949 14.2088 123.771 14.416 123.543 14.5792C123.32 14.7362 123.057 14.8523 122.752 14.9276C122.454 15.003 122.133 15.0407 121.791 15.0407H119.066V8.21289ZM120.038 14.2308H121.8C122.295 14.2308 122.664 14.1303 122.905 13.9294C123.146 13.7222 123.267 13.424 123.267 13.0347C123.267 12.6329 123.142 12.3441 122.895 12.1683C122.648 11.9862 122.263 11.8952 121.742 11.8952H120.038V14.2308ZM120.038 11.1324H121.704C122.104 11.1324 122.419 11.0508 122.648 10.8875C122.883 10.718 122.999 10.4323 122.999 10.0305C122.999 9.67889 122.879 9.42465 122.638 9.26767C122.403 9.10446 122.092 9.02277 121.704 9.02277H120.038V11.1324Z" fill="#F6F6F6"/>
<path fill-rule="evenodd" clip-rule="evenodd" d="M121.831 6.77987H103.347C100.693 6.77987 98.5414 8.91082 98.5414 11.5395C98.5414 14.1681 100.693 16.2991 103.347 16.2991H121.831C124.485 16.2991 126.637 14.1681 126.637 11.5395C126.637 8.91082 124.485 6.77987 121.831 6.77987ZM103.347 6.25684C100.401 6.25684 98.0127 8.62192 98.0127 11.5395C98.0127 14.457 100.401 16.8221 103.347 16.8221H121.831C124.777 16.8221 127.165 14.457 127.165 11.5395C127.165 8.62192 124.777 6.25684 121.831 6.25684H103.347Z" fill="#F6F6F6"/>
<path d="M7.25728 16.6163L2.76739 2.38601V16.6163H0.477539V0.291992H4.3164L8.46955 13.8918L12.6227 0.291992H16.4616V16.6163H14.1717V2.38601L9.68179 16.6163H7.25728Z" fill="#F6F6F6"/>
<path d="M23.5292 0.291992H26.1782L32.3069 16.6163H29.8374L28.5578 13.0813H21.0822L19.825 16.6163H17.4902L23.5292 0.291992ZM21.7781 11.1223H27.8394L24.7864 2.61117L21.7781 11.1223Z" fill="#F6F6F6"/>
<path d="M39.7409 9.72632C39.5313 9.74129 39.3218 9.74878 39.1123 9.74878C38.9177 9.74878 38.7157 9.74878 38.5061 9.74878H35.6326V16.6163H33.3428V0.291992H38.5061C39.4939 0.291992 40.3994 0.352036 41.2226 0.472123C42.0606 0.592209 42.779 0.824876 43.3777 1.17012C43.9763 1.51538 44.4403 1.99572 44.7695 2.61117C45.1138 3.22661 45.2858 4.02218 45.2858 4.99788C45.2858 6.28882 44.994 7.27203 44.4103 7.94752C43.8416 8.62298 43.0559 9.09586 42.0532 9.366L45.8247 16.6163H43.2654L39.7409 9.72632ZM35.6326 2.22838V7.81242H38.6857C39.2844 7.81242 39.8382 7.7899 40.347 7.74487C40.8708 7.68483 41.3198 7.56473 41.6939 7.38461C42.0831 7.18947 42.3824 6.91177 42.5919 6.55151C42.8164 6.17624 42.9287 5.67337 42.9287 5.04292C42.9287 4.41246 42.8164 3.9096 42.5919 3.53434C42.3824 3.15906 42.0831 2.88136 41.6939 2.70123C41.3198 2.50609 40.8708 2.37849 40.347 2.31845C39.8382 2.25841 39.2844 2.22838 38.6857 2.22838H35.6326Z" fill="#F6F6F6"/>
<path d="M61.1118 11.4157C60.9322 12.3164 60.6254 13.1119 60.1914 13.8024C59.7723 14.4779 59.2559 15.0484 58.6423 15.5137C58.0287 15.979 57.3328 16.3317 56.5545 16.5719C55.7763 16.7971 54.9457 16.9097 54.0626 16.9097C52.8952 16.9097 51.8552 16.6996 50.9422 16.2793C50.0292 15.859 49.251 15.2735 48.6074 14.523C47.9788 13.7724 47.4999 12.8793 47.1707 11.8435C46.8414 10.8078 46.6768 9.66697 46.6768 8.42103C46.6768 7.16017 46.8564 6.01184 47.2156 4.97609C47.5748 3.94034 48.0836 3.0547 48.7421 2.31917C49.4006 1.58364 50.1939 1.01323 51.1218 0.607939C52.0497 0.202646 53.0898 0 54.2422 0C55.0804 0 55.8736 0.127593 56.6219 0.382777C57.3702 0.622949 58.0362 0.975707 58.6199 1.44104C59.2185 1.90637 59.7199 2.48429 60.124 3.17479C60.543 3.85027 60.8424 4.62333 61.022 5.49396H58.7995C58.6798 4.98359 58.4852 4.51075 58.2158 4.07544C57.9614 3.64013 57.6396 3.26485 57.2505 2.94963C56.8613 2.6344 56.4049 2.38673 55.881 2.20659C55.3572 2.02646 54.7735 1.9364 54.13 1.9364C53.4116 1.9364 52.7381 2.079 52.1096 2.3642C51.4959 2.6344 50.9571 3.0472 50.4932 3.6026C50.0292 4.14299 49.6626 4.81848 49.3932 5.62906C49.1387 6.43965 49.0115 7.37032 49.0115 8.42103C49.0115 9.45682 49.1387 10.38 49.3932 11.1906C49.6476 12.0012 50.0068 12.6916 50.4708 13.2621C50.9347 13.8175 51.481 14.2453 52.1096 14.5455C52.7381 14.8307 53.4341 14.9733 54.1973 14.9733C55.4994 14.9733 56.5396 14.6431 57.3178 13.9826C58.111 13.3221 58.6349 12.4665 58.8893 11.4157H61.1118Z" fill="#F6F6F6"/>
<path d="M64.4021 8.44358C64.4021 9.49434 64.5369 10.425 64.8062 11.2356C65.0906 12.0462 65.4648 12.7292 65.9287 13.2846C66.4076 13.84 66.9689 14.2603 67.6124 14.5455C68.256 14.8307 68.9519 14.9733 69.7002 14.9733C70.4336 14.9733 71.122 14.8307 71.7656 14.5455C72.4241 14.2603 72.9853 13.84 73.4493 13.2846C73.9282 12.7292 74.3024 12.0462 74.5718 11.2356C74.8561 10.425 74.9983 9.49434 74.9983 8.44358C74.9983 7.39283 74.8561 6.46216 74.5718 5.65158C74.3024 4.84099 73.9282 4.16551 73.4493 3.62511C72.9853 3.06972 72.4241 2.64941 71.7656 2.3642C71.122 2.079 70.4336 1.9364 69.7002 1.9364C68.9519 1.9364 68.256 2.079 67.6124 2.3642C66.9689 2.64941 66.4076 3.06972 65.9287 3.62511C65.4648 4.16551 65.0906 4.84099 64.8062 5.65158C64.5369 6.46216 64.4021 7.39283 64.4021 8.44358ZM77.333 8.44358C77.333 9.67446 77.1534 10.8078 76.7942 11.8435C76.4501 12.8793 75.9412 13.7724 75.2677 14.523C74.6092 15.2735 73.8085 15.859 72.8656 16.2793C71.9228 16.6996 70.8676 16.9097 69.7002 16.9097C68.5329 16.9097 67.4778 16.6996 66.5349 16.2793C65.592 15.859 64.7838 15.2735 64.1103 14.523C63.4518 13.7724 62.9429 12.8793 62.5837 11.8435C62.2395 10.8078 62.0674 9.67446 62.0674 8.44358C62.0674 7.21271 62.2395 6.07939 62.5837 5.04364C62.9429 4.0079 63.4518 3.12226 64.1103 2.38673C64.7838 1.63618 65.592 1.05076 66.5349 0.630454C67.4778 0.210152 68.5329 0 69.7002 0C70.8676 0 71.9228 0.210152 72.8656 0.630454C73.8085 1.05076 74.6092 1.63618 75.2677 2.38673C75.9412 3.12226 76.4501 4.0079 76.7942 5.04364C77.1534 6.07939 77.333 7.21271 77.333 8.44358Z" fill="#F6F6F6"/>
<path d="M86.2958 16.6163L81.8054 2.38601V16.6163H79.5156V0.291992H83.3545L87.5072 13.8918L91.6611 0.291992H95.4995V16.6163H93.2102V2.38601L88.7196 16.6163H86.2958Z" fill="#F6F6F6"/>
<path d="M14.5243 34.5192H12.2881C11.7685 36.6081 10.1648 38.0682 7.5671 38.0682C4.51767 38.0682 2.34919 35.6423 2.34919 31.5317C2.34919 27.3088 4.60802 25.0626 7.49933 25.0626C10.1196 25.0626 11.7008 26.59 12.1977 28.6116H14.434C13.7337 25.13 11.0005 23.1309 7.61227 23.1309C2.98166 23.1309 0 26.4777 0 31.5317C0 36.4958 2.73319 39.9999 7.43157 39.9999C10.9779 39.9999 13.8015 38.1131 14.5243 34.5192Z" fill="#F6F6F6"/>
<path d="M17.1807 23.4229V39.7079H28.2941V37.7312H19.4847V32.3179H27.7746V30.3412H19.4847V25.3995H28.2941V23.4229H17.1807Z" fill="#F6F6F6"/>
<path d="M40.8365 39.7079H44.2022V23.4229H41.8982V37.282L34.4215 23.4229H31.0332V39.7079H33.3372V25.8038L40.8365 39.7079Z" fill="#F6F6F6"/>
<path d="M51.4734 25.3995V39.7079H53.7774V25.3995H59.1083V23.4229H46.1426V25.3995H51.4734Z" fill="#F6F6F6"/>
<path d="M67.4933 32.8345L71.0397 39.7079H73.6148L69.8199 32.4751C71.8303 31.936 73.0727 30.7006 73.0727 28.1174C73.0727 24.209 70.2491 23.4229 66.251 23.4229H61.0557V39.7079H63.3597V32.857H66.251C66.6802 32.857 67.0868 32.857 67.4933 32.8345ZM63.3597 25.3546H66.4317C68.8261 25.3546 70.7009 25.6466 70.7009 28.1624C70.7009 30.6781 68.8261 30.9252 66.4317 30.9252H63.3597V25.3546Z" fill="#F6F6F6"/>
<path d="M80.7413 23.4229L74.665 39.7079H77.0142L78.2792 36.1813H85.8007L87.0883 39.7079H89.573L83.4067 23.4229H80.7413ZM78.9794 34.2271L82.0062 25.7365L85.0782 34.2271H78.9794Z" fill="#F6F6F6"/>
<path d="M93.8232 37.7312V23.4229H91.5195V39.7079H102.474V37.7312H93.8232Z" fill="#F6F6F6"/>
<path d="M113.917 23.4229L107.841 39.7079H110.19L111.455 36.1813H118.977L120.264 39.7079H122.749L116.583 23.4229H113.917ZM112.155 34.2271L115.182 25.7365L118.254 34.2271H112.155Z" fill="#F6F6F6"/>
<path d="M129.605 23.1309C126.963 23.1309 123.687 24.4786 123.687 27.5784C123.687 30.2963 125.946 31.5317 128.182 32.0259L130.215 32.4526C132.27 32.9019 133.739 33.6207 133.739 35.3278C133.739 36.9226 132.338 38.0682 129.921 38.0682C127.414 38.0682 125.833 36.9002 125.403 34.6539H123.145C123.574 37.911 126.013 39.9999 129.876 39.9999C133.129 39.9999 136.11 38.3153 136.11 35.1256C136.11 31.8462 133.106 30.9028 130.599 30.3637L128.702 29.9369C127.188 29.6 126.036 28.8812 126.036 27.4436C126.036 25.6242 128.25 25.0626 129.515 25.0626C131.164 25.0626 133.016 25.6915 133.581 27.5784H135.817C135.185 24.4337 132.542 23.1309 129.605 23.1309Z" fill="#F6F6F6"/>
<path d="M141.14 39.7079V23.4229H138.836V39.7079H141.14Z" fill="#F6F6F6"/>
<path d="M149.168 23.4229L143.092 39.7079H145.44L146.706 36.1813H154.228L155.515 39.7079H158L151.834 23.4229H149.168ZM147.406 34.2271L150.433 25.7365L153.504 34.2271H147.406Z" fill="#F6F6F6"/>
</svg>
