<svg width="120" height="50" viewBox="0 0 120 50" fill="none" xmlns="http://www.w3.org/2000/svg">
<path fill-rule="evenodd" clip-rule="evenodd" d="M104.238 16.7494L109.087 30.5515H99.4595L104.238 16.7494ZM112.938 40.8314H119.999L104.238 0L88.5481 40.8314H95.6794L97.3196 36.2308H111.226L112.938 40.8314ZM69.3636 34.3615V7.61988C69.3636 7.61988 85.6953 5.10392 85.6953 20.9907C85.6953 36.6621 69.3636 34.3615 69.3636 34.3615ZM62.7314 1.1507V40.8314H69.364C79.1345 40.8314 92.3279 37.9561 92.3279 20.9907C92.3282 3.37787 78.9201 1.1507 69.3636 1.1507H62.7314ZM40.6233 7.76353H45.9007C45.9007 7.76353 52.4619 7.76353 52.4619 12.7238C52.4619 16.6058 48.4682 17.4684 46.7565 17.6841L40.6233 7.76353ZM61.0912 40.8314L50.3934 23.5786C54.1731 22.5022 59.0227 19.7687 59.0227 12.7238C59.0227 1.14996 45.9003 1.14996 45.9003 1.14996H32.7784V7.76353L38.9831 17.6837H32.7784V40.8314H39.3395V24.2977H43.1193L53.3888 40.8314H61.0912ZM15.7337 16.7494L20.5118 30.5515H10.9553L15.7337 16.7494ZM24.363 40.8314H31.4928L15.7337 0L0.0439453 40.8314H7.10447L8.81574 36.2308H22.651L24.363 40.8314Z" fill="#F6F6F6"/>
<path d="M2.35903 48.0724H0.951199L0.656596 48.9262H0L1.37285 45.2625H1.93959L3.31539 48.9258H2.65621L2.35903 48.0724ZM1.12833 47.5594H2.1819L1.6553 46.0394L1.12833 47.5594ZM5.23804 48.4874C5.37589 48.4924 5.51053 48.4448 5.61513 48.3542C5.66299 48.3134 5.70191 48.263 5.72942 48.2063C5.75694 48.1495 5.77244 48.0876 5.77495 48.0245H6.34648C6.33968 48.1945 6.28515 48.359 6.18924 48.4989C6.08835 48.6478 5.95079 48.7677 5.79005 48.8467C5.62131 48.9325 5.43474 48.9765 5.24577 48.9752C5.07822 48.983 4.91099 48.9538 4.75578 48.8897C4.60058 48.8256 4.46115 48.7281 4.34723 48.604C4.11253 48.318 3.9941 47.953 4.0158 47.5824V47.5216C3.99788 47.1599 4.11553 46.8047 4.34539 46.5264C4.45864 46.4013 4.5979 46.3029 4.75322 46.2383C4.90854 46.1737 5.0761 46.1444 5.24393 46.1526C5.53221 46.1406 5.81381 46.2421 6.02905 46.4358C6.12976 46.5309 6.20999 46.6459 6.26472 46.7737C6.31946 46.9014 6.34754 47.0391 6.34722 47.1782H5.77495C5.77328 47.0341 5.71656 46.8963 5.6166 46.7933C5.56722 46.7433 5.50816 46.7041 5.44309 46.6781C5.37803 46.6521 5.30835 46.6399 5.2384 46.6422C5.15095 46.6378 5.06377 46.6551 4.98452 46.6927C4.90528 46.7302 4.83641 46.7868 4.78398 46.8575C4.66336 47.0526 4.60656 47.281 4.62158 47.5104V47.6084C4.60501 47.8398 4.66036 48.0706 4.77993 48.2688C4.83229 48.3408 4.90163 48.3985 4.98167 48.4368C5.06172 48.475 5.14995 48.4925 5.2384 48.4878L5.23804 48.4874ZM8.37445 48.4874C8.5123 48.4924 8.64695 48.4448 8.75154 48.3542C8.7994 48.3134 8.83832 48.263 8.86584 48.2063C8.89335 48.1495 8.90886 48.0876 8.91137 48.0245H9.48289C9.47609 48.1945 9.42156 48.359 9.32565 48.4989C9.22467 48.6478 9.08697 48.7677 8.9261 48.8467C8.75736 48.9325 8.57079 48.9765 8.38182 48.9752C8.21426 48.983 8.04704 48.9538 7.89183 48.8897C7.73663 48.8256 7.59719 48.7281 7.48328 48.604C7.24858 48.318 7.13014 47.953 7.15185 47.5824V47.5216C7.13393 47.1599 7.25158 46.8047 7.48144 46.5264C7.59469 46.4013 7.73394 46.3029 7.88926 46.2383C8.04459 46.1737 8.21214 46.1444 8.37998 46.1526C8.66788 46.1401 8.9493 46.241 9.16472 46.434C9.26544 46.5291 9.34566 46.6441 9.4004 46.7718C9.45514 46.8995 9.48322 47.0372 9.48289 47.1764H8.91137C8.9097 47.0323 8.85298 46.8944 8.75302 46.7914C8.70363 46.7414 8.64457 46.7022 8.57951 46.6762C8.51444 46.6502 8.44477 46.638 8.37482 46.6404C8.28737 46.6359 8.20018 46.6533 8.12094 46.6908C8.04169 46.7283 7.97282 46.785 7.9204 46.8556C7.7994 47.0513 7.74258 47.2804 7.758 47.5104V47.6084C7.74142 47.8398 7.79677 48.0706 7.91634 48.2688C7.96867 48.3407 8.03795 48.3984 8.11792 48.4367C8.1979 48.4749 8.28606 48.4921 8.37445 48.4874ZM10.2875 47.5386C10.2837 47.2893 10.3375 47.0425 10.4448 46.8178C10.5411 46.6133 10.6947 46.4418 10.8867 46.3245C11.0848 46.2074 11.3111 46.1477 11.5407 46.1522C11.705 46.1457 11.8688 46.1739 12.0217 46.235C12.1745 46.2961 12.313 46.3888 12.4282 46.5071C12.6634 46.7633 12.7948 47.099 12.7964 47.4481L12.799 47.5914C12.8033 47.84 12.7508 48.0862 12.6455 48.3111C12.5502 48.5148 12.3973 48.6857 12.2061 48.8022C12.0062 48.9205 11.7776 48.9806 11.5459 48.9759C11.3748 48.9832 11.2042 48.9526 11.0461 48.8863C10.8879 48.82 10.7462 48.7196 10.6307 48.5921C10.3917 48.3074 10.269 47.9416 10.2875 47.5691V47.5386ZM10.894 47.5914C10.8808 47.8236 10.9412 48.0541 11.0664 48.2495C11.1202 48.3262 11.1922 48.3881 11.2758 48.4296C11.3594 48.4712 11.452 48.491 11.5451 48.4874C11.6387 48.4913 11.7317 48.4712 11.8155 48.429C11.8992 48.3867 11.9709 48.3237 12.0238 48.2458C12.151 48.0338 12.2106 47.7877 12.1947 47.5405C12.2071 47.309 12.1454 47.0796 12.0187 46.8861C11.9651 46.8088 11.8933 46.7463 11.8097 46.7041C11.7261 46.6619 11.6334 46.6414 11.54 46.6444C11.4479 46.6417 11.3567 46.662 11.2744 46.7035C11.192 46.745 11.1212 46.8065 11.0682 46.8824C10.9376 47.0946 10.8766 47.3429 10.894 47.5921V47.5914ZM13.7955 46.2023H14.402V48.4384H15.4556V46.2038H16.0621V48.4384H16.4304L16.3788 49.7335H15.8264V48.9258H13.7959L13.7955 46.2023ZM19.0011 46.2023H19.6054V48.9258H19.0015V47.1088L17.9431 48.9258H17.3388V46.2031H17.9431V48.0197L19.0011 46.2023ZM22.325 48.9258C22.29 48.8448 22.2664 48.7592 22.255 48.6715C22.1647 48.7696 22.0549 48.8475 21.9328 48.8999C21.8106 48.9524 21.6789 48.9783 21.5461 48.9759C21.3037 48.9858 21.0666 48.9022 20.8833 48.7421C20.8009 48.6705 20.7351 48.5816 20.6906 48.4816C20.646 48.3816 20.6238 48.273 20.6255 48.1634C20.619 48.0339 20.6448 47.9049 20.7006 47.7881C20.7565 47.6714 20.8406 47.5706 20.9452 47.4952C21.2195 47.3235 21.5401 47.2421 21.8625 47.2625H22.234V47.0836C22.2401 46.9596 22.1979 46.8382 22.1166 46.745C22.0692 46.6998 22.013 46.6652 21.9515 46.6433C21.8901 46.6214 21.8247 46.6129 21.7597 46.6181C21.6381 46.6128 21.5183 46.6496 21.4202 46.7224C21.3787 46.7528 21.3451 46.7927 21.3221 46.8389C21.2991 46.8851 21.2874 46.9361 21.288 46.9878H20.6826C20.6836 46.8354 20.7355 46.6878 20.8299 46.5687C20.9348 46.4334 21.0729 46.328 21.2305 46.2628C21.4093 46.1868 21.6018 46.1489 21.7958 46.1515C22.0684 46.1371 22.337 46.2224 22.5522 46.3917C22.6472 46.4755 22.7225 46.5797 22.7725 46.6965C22.8226 46.8134 22.8462 46.94 22.8417 47.0672V48.2951C22.8331 48.4965 22.868 48.6974 22.944 48.8839V48.9265L22.325 48.9258ZM21.6585 48.4856C21.7769 48.486 21.8934 48.4557 21.9969 48.3976C22.0975 48.3439 22.1803 48.2617 22.2351 48.1611V47.6474H21.9081C21.7313 47.6354 21.5549 47.6766 21.4014 47.7658C21.3471 47.8021 21.3029 47.8519 21.2732 47.9105C21.2434 47.969 21.2291 48.0342 21.2317 48.0999C21.2293 48.1524 21.2385 48.2047 21.2586 48.2532C21.2786 48.3018 21.309 48.3452 21.3477 48.3805C21.4345 48.4536 21.5455 48.4909 21.6585 48.4852V48.4856ZM23.9611 46.2031H24.5677V48.4384H25.622V46.2038H26.2285V48.4384H26.5967L26.5467 49.7343H25.9943V48.9258H23.9611V46.2031ZM29.1668 46.2031H29.7711V48.9258H29.1668V47.1088L28.1084 48.9258H27.5041V46.2031H28.1084V48.0197L29.1668 46.2031ZM33.0393 46.2031V48.9258H32.4347V47.9265H31.8687L31.2931 48.9258H30.663L31.2997 47.8259C31.1454 47.7653 31.0121 47.6604 30.9163 47.5242C30.8268 47.3916 30.7801 47.2343 30.7827 47.0739C30.7801 46.9545 30.805 46.8361 30.8555 46.728C30.906 46.6199 30.9806 46.5251 31.0736 46.451C31.2986 46.2787 31.5763 46.191 31.8587 46.2031H33.0393ZM31.3896 47.0888C31.388 47.1417 31.3986 47.1943 31.4205 47.2425C31.4423 47.2907 31.4748 47.3332 31.5155 47.3668C31.607 47.4405 31.7218 47.4783 31.8388 47.4733H32.4347V46.6886H31.8764C31.7485 46.6819 31.6225 46.7221 31.5218 46.8018C31.4795 46.8363 31.4456 46.8801 31.4227 46.9299C31.3998 46.9796 31.3885 47.0339 31.3896 47.0888ZM38.3293 47.5643V48.9258H37.6977V45.2621H39.0883C39.439 45.2432 39.7841 45.3572 40.0557 45.5817C40.1738 45.6871 40.2672 45.8177 40.3291 45.9639C40.3911 46.1101 40.4201 46.2684 40.414 46.4273C40.4223 46.5846 40.3951 46.7417 40.3344 46.8869C40.2737 47.032 40.181 47.1613 40.0634 47.2651C39.782 47.4803 39.4334 47.5865 39.0809 47.5646L38.3293 47.5643ZM38.3293 47.0535H39.0883C39.2738 47.0668 39.4577 47.0099 39.6038 46.8939C39.6649 46.8346 39.7124 46.7625 39.743 46.6827C39.7736 46.603 39.7866 46.5174 39.7809 46.4321C39.7851 46.3448 39.7712 46.2576 39.7403 46.176C39.7094 46.0943 39.662 46.02 39.6012 45.9577C39.4667 45.8338 39.2891 45.7683 39.107 45.7755H38.3308L38.3293 47.0535ZM41.2532 47.539C41.2494 47.2897 41.3032 47.0429 41.4105 46.8182C41.5068 46.6137 41.6604 46.4422 41.8524 46.3248C42.0504 46.2077 42.2768 46.1481 42.5064 46.1526C42.6707 46.1461 42.8345 46.1743 42.9874 46.2354C43.1402 46.2965 43.2787 46.3892 43.3939 46.5075C43.629 46.7637 43.7604 47.0994 43.7621 47.4484L43.7647 47.5917C43.769 47.8403 43.7165 48.0866 43.6112 48.3115C43.5158 48.5151 43.363 48.6858 43.1718 48.8022C42.9719 48.9205 42.7433 48.9806 42.5115 48.9759C42.3405 48.9832 42.17 48.9526 42.0119 48.8863C41.8539 48.8199 41.7122 48.7195 41.5968 48.5921C41.3577 48.3074 41.235 47.9416 41.2536 47.5691L41.2532 47.539ZM41.8597 47.5917C41.8465 47.824 41.9069 48.0544 42.0321 48.2499C42.0859 48.3265 42.1579 48.3884 42.2415 48.43C42.3251 48.4715 42.4177 48.4914 42.5108 48.4878C42.6044 48.4917 42.6974 48.4716 42.7812 48.4293C42.8649 48.3871 42.9366 48.324 42.9895 48.2461C43.1167 48.0342 43.1763 47.788 43.1604 47.5409C43.1728 47.3094 43.111 47.08 42.9844 46.8865C42.9308 46.8092 42.859 46.7467 42.7754 46.7045C42.6918 46.6623 42.5991 46.6418 42.5057 46.6448C42.4136 46.6421 42.3224 46.6624 42.2401 46.7039C42.1577 46.7454 42.0869 46.8069 42.0339 46.8827C41.9035 47.0949 41.8427 47.3431 41.8601 47.5921L41.8597 47.5917ZM45.8472 48.4874C45.985 48.4924 46.1197 48.4448 46.2243 48.3542C46.2721 48.3134 46.3111 48.263 46.3386 48.2063C46.3661 48.1495 46.3816 48.0876 46.3841 48.0245H46.9556C46.9488 48.1945 46.8943 48.359 46.7984 48.4989C46.6975 48.6481 46.5598 48.7682 46.3988 48.8475C46.2301 48.9332 46.0435 48.9773 45.8545 48.9759C45.687 48.9837 45.5198 48.9546 45.3646 48.8905C45.2094 48.8263 45.0699 48.7288 44.956 48.6047C44.7213 48.3187 44.6029 47.9537 44.6246 47.5832V47.5216C44.6067 47.1599 44.7243 46.8047 44.9542 46.5264C45.0674 46.4013 45.2067 46.3029 45.362 46.2383C45.5173 46.1737 45.6849 46.1444 45.8527 46.1526C46.141 46.1406 46.4226 46.2421 46.6378 46.4358C46.7385 46.5309 46.8188 46.6459 46.8735 46.7737C46.9282 46.9014 46.9563 47.0391 46.956 47.1782H46.3845C46.3828 47.0341 46.3261 46.8963 46.2261 46.7933C46.1767 46.7433 46.1177 46.7041 46.0526 46.6781C45.9875 46.6521 45.9179 46.6399 45.8479 46.6422C45.7605 46.6378 45.6733 46.6551 45.594 46.6927C45.5148 46.7302 45.4459 46.7868 45.3935 46.8575C45.2729 47.0526 45.2161 47.281 45.2311 47.5104V47.6084C45.2145 47.8398 45.2699 48.0706 45.3894 48.2688C45.4418 48.3407 45.511 48.3984 45.591 48.4367C45.671 48.4749 45.7592 48.4925 45.8476 48.4878L45.8472 48.4874ZM48.9836 48.4874C49.1215 48.4924 49.2561 48.4448 49.3607 48.3542C49.4085 48.3134 49.4475 48.263 49.475 48.2063C49.5025 48.1495 49.518 48.0876 49.5205 48.0245H50.092C50.0852 48.1945 50.0307 48.359 49.9348 48.4989C49.8339 48.6481 49.6962 48.7682 49.5352 48.8475C49.3665 48.9332 49.1799 48.9773 48.991 48.9759C48.8234 48.9837 48.6562 48.9546 48.501 48.8905C48.3458 48.8263 48.2063 48.7288 48.0924 48.6047C47.8577 48.3187 47.7393 47.9537 47.761 47.5832V47.5216C47.7431 47.1599 47.8607 46.8047 48.0906 46.5264C48.2038 46.4013 48.3431 46.3029 48.4984 46.2383C48.6537 46.1737 48.8213 46.1444 48.9891 46.1526C49.2774 46.1406 49.559 46.2421 49.7742 46.4358C49.875 46.5309 49.9552 46.6459 50.0099 46.7737C50.0647 46.9014 50.0927 47.0391 50.0924 47.1782H49.5216C49.52 47.0341 49.4632 46.8963 49.3633 46.7933C49.3139 46.7433 49.2548 46.7041 49.1898 46.6781C49.1247 46.6521 49.055 46.6399 48.9851 46.6422C48.8976 46.6378 48.8104 46.6551 48.7312 46.6927C48.6519 46.7302 48.5831 46.7868 48.5306 46.8575C48.41 47.0526 48.3532 47.281 48.3682 47.5104V47.6084C48.3517 47.8398 48.407 48.0706 48.5266 48.2688C48.5788 48.3406 48.648 48.3983 48.7278 48.4365C48.8077 48.4747 48.8957 48.4924 48.984 48.4878L48.9836 48.4874ZM52.6967 46.2027H53.301V48.9258H52.6967V47.1088L51.6383 48.9258H51.034V46.2031H51.6383V48.0197L52.6967 46.2027ZM56.0927 46.2027H56.697V48.9258H56.0927V47.1088L55.0344 48.9258H54.4301V46.2031H55.0344V48.0197L56.0927 46.2027ZM56.3774 45.1585C56.3806 45.2553 56.3624 45.3515 56.3242 45.4403C56.286 45.5291 56.2287 45.6082 56.1564 45.6719C55.9922 45.8091 55.7828 45.8791 55.5698 45.8683C55.3568 45.8791 55.1475 45.8091 54.9832 45.6719C54.9109 45.6082 54.8536 45.5291 54.8154 45.4403C54.7772 45.3515 54.759 45.2553 54.7622 45.1585H55.2167C55.2138 45.2057 55.2206 45.253 55.2367 45.2974C55.2528 45.3418 55.2778 45.3823 55.3102 45.4165C55.345 45.4482 55.3857 45.4727 55.43 45.4884C55.4742 45.5041 55.5211 45.5109 55.568 45.5082C55.6148 45.5111 55.6618 45.5045 55.7061 45.4888C55.7504 45.473 55.7911 45.4484 55.8257 45.4165C55.8578 45.3821 55.8825 45.3415 55.8984 45.2972C55.9143 45.2528 55.921 45.2056 55.9182 45.1585H56.3774ZM58.9121 48.4878C59.0499 48.4928 59.1846 48.4452 59.2892 48.3545C59.337 48.3138 59.376 48.2634 59.4035 48.2067C59.431 48.1499 59.4465 48.088 59.449 48.0249H60.0205C60.0137 48.1949 59.9592 48.3594 59.8633 48.4993C59.7624 48.648 59.625 48.7677 59.4645 48.8467C59.2957 48.9325 59.1091 48.9765 58.9202 48.9752C58.7526 48.983 58.5854 48.9538 58.4302 48.8897C58.275 48.8256 58.1356 48.7281 58.0216 48.604C57.7869 48.318 57.6685 47.953 57.6902 47.5824V47.5216C57.6723 47.1599 57.7899 46.8047 58.0198 46.5264C58.1331 46.4013 58.2723 46.3029 58.4276 46.2383C58.583 46.1737 58.7505 46.1444 58.9183 46.1526C59.2066 46.1406 59.4882 46.2421 59.7035 46.4358C59.8042 46.5309 59.8844 46.6459 59.9391 46.7737C59.9939 46.9014 60.022 47.0391 60.0216 47.1782H59.4501C59.4484 47.0341 59.3917 46.8963 59.2917 46.7933C59.2424 46.7433 59.1833 46.7041 59.1182 46.6781C59.0532 46.6521 58.9835 46.6399 58.9136 46.6422C58.8261 46.6378 58.7389 46.6551 58.6597 46.6927C58.5804 46.7302 58.5116 46.7868 58.4591 46.8575C58.3385 47.0526 58.2817 47.281 58.2967 47.5104V47.6084C58.2802 47.8398 58.3355 48.0706 58.4551 48.2688C58.5073 48.3406 58.5764 48.3982 58.6562 48.4364C58.7359 48.4746 58.8239 48.4923 58.9121 48.4878ZM61.8986 47.8486H61.5915V48.9251H60.985V46.2031H61.5915V47.2903H61.8585L62.6049 46.2031H63.354L62.3777 47.5067L63.4361 48.9258H62.6473L61.8986 47.8486ZM65.9163 46.2031H66.5206V48.9258H65.9163V47.1088L64.8575 48.9258H64.2518V46.2031H64.8561V48.0197L65.9163 46.2031ZM68.5971 47.0988L69.1127 46.2031H69.7866L68.9602 47.5442L69.8124 48.9258H69.1422L68.6027 47.993L68.0661 48.9258H67.3922L68.2458 47.5442L67.4221 46.2031H68.0912L68.5971 47.0988ZM74.1821 48.9258V45.2621H75.2555C75.5546 45.2564 75.8497 45.3311 76.1106 45.4785C76.3586 45.6219 76.5594 45.8353 76.6884 46.0925C76.8289 46.3749 76.8992 46.6875 76.8932 47.0034V47.1871C76.9 47.5049 76.8293 47.8195 76.6873 48.1032C76.5561 48.3604 76.3518 48.5725 76.1007 48.7124C75.8331 48.8584 75.5325 48.932 75.2283 48.9262L74.1821 48.9258ZM74.8136 45.7755V48.4176H75.2257C75.368 48.4265 75.5105 48.403 75.6425 48.3488C75.7746 48.2945 75.8928 48.211 75.9884 48.1043C76.1815 47.8464 76.2776 47.5276 76.2594 47.2049V47.0012C76.2811 46.6765 76.1899 46.3545 76.0016 46.0902C75.9096 45.9835 75.7944 45.8995 75.6649 45.845C75.5354 45.7905 75.3952 45.7668 75.2552 45.7758L74.8136 45.7755ZM78.5698 48.9258H77.9633V46.2031H78.5698V48.9258ZM77.9257 45.496C77.9244 45.453 77.9316 45.4102 77.9468 45.3701C77.9621 45.3299 77.9851 45.2932 78.0145 45.2621C78.048 45.2297 78.0878 45.2047 78.1314 45.1887C78.1751 45.1726 78.2215 45.1659 78.2678 45.1689C78.3143 45.166 78.3609 45.1728 78.4047 45.1888C78.4485 45.2048 78.4885 45.2298 78.5223 45.2621C78.552 45.2931 78.5753 45.3297 78.5907 45.3699C78.6062 45.41 78.6135 45.4529 78.6122 45.496C78.6134 45.5384 78.6061 45.5808 78.5906 45.6203C78.5752 45.6599 78.5519 45.6959 78.5223 45.7261C78.4883 45.758 78.4482 45.7826 78.4045 45.7984C78.3607 45.8141 78.3142 45.8207 78.2678 45.8178C78.2216 45.8209 78.1753 45.8143 78.1317 45.7985C78.0881 45.7827 78.0482 45.7581 78.0145 45.7261C77.985 45.6957 77.9619 45.6597 77.9466 45.6202C77.9312 45.5806 77.9239 45.5384 77.925 45.496H77.9257ZM79.5829 47.5442C79.564 47.1826 79.6679 46.8253 79.8775 46.5312C79.9689 46.4096 80.0879 46.3117 80.2245 46.2459C80.361 46.18 80.5113 46.148 80.6626 46.1526C80.8004 46.1462 80.9377 46.1722 81.0638 46.2285C81.1899 46.2848 81.3013 46.3699 81.3892 46.477L81.4168 46.2027H81.9647V48.8426C81.9727 48.9993 81.9472 49.1558 81.89 49.3017C81.8328 49.4475 81.7453 49.5793 81.6333 49.6882C81.3868 49.9041 81.0668 50.0151 80.7407 49.9978C80.5407 49.9973 80.3431 49.9549 80.1603 49.8731C79.9907 49.8048 79.8421 49.6923 79.7298 49.5472L80.0171 49.1797C80.0989 49.2848 80.2036 49.3695 80.323 49.4274C80.4425 49.4853 80.5735 49.5149 80.7061 49.5138C80.8802 49.5235 81.0513 49.4644 81.1829 49.349C81.244 49.2854 81.2912 49.2096 81.3213 49.1264C81.3515 49.0433 81.3639 48.9547 81.3579 48.8664V48.6815C81.2698 48.7794 81.1615 48.8564 81.0406 48.9073C80.9196 48.9582 80.7891 48.9816 80.6582 48.9759C80.5087 48.9786 80.3606 48.9455 80.2262 48.8795C80.0918 48.8134 79.9748 48.7162 79.8848 48.5958C79.6682 48.2902 79.5619 47.9191 79.5836 47.5442H79.5829ZM80.1872 47.5969C80.1747 47.8243 80.2327 48.0499 80.3533 48.2424C80.404 48.3177 80.4729 48.3788 80.5535 48.42C80.6341 48.4611 80.7237 48.481 80.8139 48.4778C80.9252 48.4828 81.0356 48.4556 81.132 48.3994C81.2285 48.3433 81.307 48.2604 81.3582 48.1608V46.9629C81.3071 46.8648 81.2291 46.7835 81.1336 46.7286C81.0381 46.6738 80.9289 46.6476 80.8191 46.6533C80.7277 46.6498 80.637 46.67 80.5555 46.7118C80.474 46.7537 80.4045 46.8158 80.3536 46.8924C80.2292 47.1051 80.171 47.3506 80.1872 47.5969ZM83.693 48.9254H83.0864V46.2031H83.693V48.9254ZM83.0489 45.4956C83.0476 45.4526 83.0547 45.4098 83.07 45.3697C83.0852 45.3295 83.1082 45.2928 83.1376 45.2617C83.1711 45.2293 83.211 45.2043 83.2546 45.1883C83.2982 45.1723 83.3447 45.1655 83.391 45.1686C83.4375 45.1656 83.4841 45.1724 83.5278 45.1884C83.5716 45.2045 83.6117 45.2294 83.6455 45.2617C83.6752 45.2927 83.6984 45.3293 83.7139 45.3695C83.7293 45.4097 83.7366 45.4525 83.7353 45.4956C83.7365 45.5381 83.7292 45.5804 83.7137 45.6199C83.6983 45.6595 83.6751 45.6955 83.6455 45.7257C83.6115 45.7576 83.5714 45.7822 83.5276 45.798C83.4838 45.8138 83.4374 45.8204 83.391 45.8174C83.3448 45.8205 83.2984 45.8139 83.2548 45.7981C83.2113 45.7824 83.1714 45.7577 83.1376 45.7257C83.1084 45.6953 83.0856 45.6593 83.0704 45.6199C83.0552 45.5804 83.048 45.5383 83.0493 45.496L83.0489 45.4956ZM85.5736 45.5409V46.2027H86.0524V46.6567H85.5736V48.1767C85.5664 48.2568 85.5882 48.3368 85.6348 48.402C85.6644 48.4282 85.6991 48.4479 85.7367 48.4598C85.7743 48.4716 85.814 48.4755 85.8531 48.4711C85.9246 48.4709 85.9957 48.4624 86.0652 48.4458V48.918C85.9353 48.9554 85.8009 48.9749 85.6657 48.9759C85.1992 48.9759 84.966 48.7167 84.966 48.1983V46.6567H84.5215V46.2038H84.966V45.5412L85.5736 45.5409ZM88.5874 48.9254C88.5524 48.8444 88.5288 48.7588 88.5174 48.6712C88.4272 48.7693 88.3174 48.8471 88.1952 48.8996C88.0731 48.952 87.9413 48.9779 87.8086 48.9755C87.5661 48.9855 87.3291 48.9018 87.1457 48.7417C87.0633 48.6701 86.9976 48.5812 86.953 48.4812C86.9085 48.3812 86.8862 48.2726 86.8879 48.163C86.8815 48.0334 86.9075 47.9043 86.9636 47.7876C87.0196 47.6708 87.1039 47.5702 87.2087 47.4948C87.483 47.3231 87.8037 47.2418 88.126 47.2621H88.4979V47.0836C88.504 46.9596 88.4618 46.8382 88.3805 46.745C88.3331 46.6998 88.2769 46.6652 88.2154 46.6433C88.154 46.6214 88.0886 46.6129 88.0236 46.6181C87.902 46.6128 87.7822 46.6496 87.6841 46.7224C87.6426 46.7528 87.609 46.7927 87.586 46.8389C87.563 46.8851 87.5513 46.9361 87.5519 46.9878H86.9454C86.9464 46.8354 86.9983 46.6878 87.0927 46.5687C87.1976 46.4334 87.3357 46.328 87.4933 46.2628C87.6721 46.1868 87.8646 46.1489 88.0586 46.1515C88.3312 46.1371 88.5998 46.2224 88.815 46.3917C88.91 46.4755 88.9852 46.5797 89.0353 46.6965C89.0854 46.8134 89.109 46.94 89.1044 47.0672V48.2951C89.0962 48.4958 89.1311 48.6959 89.2068 48.8816V48.9243L88.5874 48.9254ZM87.9209 48.4852C88.0393 48.4856 88.1559 48.4553 88.2593 48.3972C88.3599 48.3435 88.4427 48.2613 88.4976 48.1608V47.6474H88.1706C87.9937 47.6354 87.8174 47.6766 87.6638 47.7658C87.6095 47.8021 87.5653 47.8519 87.5356 47.9105C87.5058 47.969 87.4916 48.0342 87.4941 48.0999C87.4918 48.1524 87.501 48.2047 87.521 48.2532C87.5411 48.3018 87.5715 48.3452 87.6101 48.3805C87.697 48.4537 87.8081 48.491 87.9212 48.4852H87.9209ZM90.8448 48.9254H90.2383V45.0605H90.8448V48.9254ZM97.5249 48.0717H96.1171L95.8225 48.9254H95.1666L96.5395 45.2617H97.1062L98.4817 48.9254H97.8225L97.5249 48.0717ZM96.2942 47.5583H97.3478L96.8212 46.0383L96.2942 47.5583ZM101.093 46.6953H99.9197V48.9258H99.3154V46.2031H101.093V46.6953ZM103.087 48.9759C102.914 48.983 102.742 48.9541 102.581 48.8912C102.42 48.8282 102.274 48.7324 102.152 48.6099C102.03 48.48 101.935 48.3267 101.874 48.1592C101.812 47.9916 101.785 47.8133 101.793 47.6348V47.5605C101.789 47.3088 101.842 47.0594 101.949 46.8319C102.046 46.6269 102.198 46.4536 102.388 46.3323C102.576 46.2131 102.794 46.1511 103.017 46.1537C103.176 46.1443 103.336 46.1714 103.483 46.2328C103.631 46.2943 103.763 46.3885 103.869 46.5086C104.086 46.7952 104.193 47.1509 104.17 47.5104V47.7569H102.405C102.413 47.9563 102.492 48.146 102.629 48.2903C102.694 48.3551 102.771 48.4059 102.855 48.4397C102.94 48.4734 103.031 48.4894 103.122 48.4867C103.254 48.4895 103.385 48.4602 103.503 48.4013C103.622 48.3424 103.724 48.2555 103.802 48.1481L104.129 48.4625C104.021 48.6254 103.871 48.7561 103.696 48.8412C103.506 48.9332 103.297 48.9794 103.087 48.9759ZM103.013 46.6433C102.937 46.6406 102.861 46.655 102.792 46.6855C102.722 46.716 102.66 46.7618 102.61 46.8196C102.498 46.9601 102.43 47.1309 102.414 47.3104H103.57V47.2651C103.57 47.0962 103.512 46.9324 103.407 46.8007C103.357 46.7475 103.296 46.7059 103.228 46.6788C103.16 46.6516 103.087 46.6395 103.014 46.6433H103.013ZM107.389 48.9258H106.782V47.8259H105.731V48.9258H105.125V46.2031H105.731V47.3378H106.782V46.2031H107.389V48.9258ZM110.62 46.6886H109.744V48.9258H109.137V46.6886H108.271V46.2031H110.62L110.62 46.6886ZM112.593 48.4878C112.731 48.4928 112.866 48.4452 112.97 48.3545C113.018 48.3138 113.057 48.2634 113.085 48.2067C113.112 48.1499 113.128 48.088 113.13 48.0249H113.702C113.695 48.1949 113.64 48.3594 113.544 48.4993C113.443 48.6481 113.306 48.7678 113.145 48.8467C112.976 48.9325 112.789 48.9765 112.6 48.9752C112.433 48.983 112.266 48.9538 112.111 48.8897C111.955 48.8256 111.816 48.7281 111.702 48.604C111.467 48.318 111.349 47.9529 111.371 47.5824V47.5216C111.353 47.1599 111.47 46.8047 111.7 46.5264C111.813 46.4013 111.953 46.3029 112.108 46.2383C112.263 46.1737 112.431 46.1444 112.599 46.1526C112.887 46.1406 113.169 46.2421 113.384 46.4358C113.484 46.5309 113.565 46.6459 113.619 46.7737C113.674 46.9014 113.702 47.0391 113.702 47.1782H113.13C113.129 47.0341 113.072 46.8963 112.972 46.7933C112.923 46.7433 112.864 46.7041 112.799 46.6781C112.733 46.6521 112.664 46.6399 112.594 46.6422C112.506 46.6378 112.419 46.6551 112.34 46.6927C112.261 46.7302 112.192 46.7868 112.139 46.8575C112.019 47.0527 111.962 47.2811 111.977 47.5104V47.6084C111.961 47.8398 112.016 48.0706 112.136 48.2688C112.188 48.3406 112.257 48.3983 112.337 48.4365C112.417 48.4747 112.505 48.4924 112.593 48.4878ZM116.746 46.6886H115.869V48.9258H115.262V46.6886H114.396V46.2031H116.745L116.746 46.6886ZM117.655 48.9258V46.2031H118.751C119.045 46.1843 119.338 46.252 119.595 46.398C119.687 46.4576 119.763 46.5406 119.814 46.6389C119.864 46.7371 119.889 46.847 119.884 46.9577C119.885 47.0806 119.844 47.2002 119.768 47.2963C119.678 47.4047 119.559 47.4846 119.425 47.5264C119.585 47.554 119.732 47.632 119.844 47.7491C119.945 47.8562 120.001 47.9989 119.999 48.1467C120.005 48.259 119.983 48.371 119.934 48.4722C119.885 48.5734 119.812 48.6605 119.721 48.7254C119.48 48.8727 119.201 48.9421 118.92 48.9243L117.655 48.9258ZM118.262 47.7658V48.4429H118.925C119.236 48.4429 119.391 48.3305 119.391 48.1058C119.391 47.8811 119.233 47.7679 118.917 47.7662L118.262 47.7658ZM118.262 47.3278H118.761C119.105 47.3278 119.277 47.2255 119.277 47.0208C119.277 46.806 119.113 46.6953 118.787 46.6886H118.261L118.262 47.3278Z" fill="#F6F6F6"/>
</svg>
