<svg width="112" height="60" viewBox="0 0 112 60" fill="none" xmlns="http://www.w3.org/2000/svg">
<path d="M0 59.8086V51.9163H2.61765L5.50206 56.2925L8.33645 51.9163H10.9374V59.8086H8.33645V55.2722L6.21899 58.4595H4.76012L2.65099 55.2722V59.8086H0Z" fill="#F6F6F6"/>
<path d="M12.3125 59.8084L16.364 51.916H19.2234L23.2749 59.8084H20.5072L19.5569 58.0208H16.0139L15.0802 59.8084H12.3125ZM16.3807 56.5621H19.1734L17.7645 53.8132L16.3807 56.5621Z" fill="#F6F6F6"/>
<path d="M24.626 59.8084V51.916H27.277V54.9768L30.9283 51.916H33.9628L30.1781 55.1371L34.1796 59.8084H31.3618L28.5274 56.4356L27.277 57.4474V59.8421L24.626 59.8084Z" fill="#F6F6F6"/>
<path d="M35.5381 59.8084V51.916H43.3493V53.4338H38.1807V55.1202H42.7408V56.6632H38.1891V58.3497H43.3493V59.8674L35.5381 59.8084Z" fill="#F6F6F6"/>
<path d="M66.1416 59.9264C64.8948 60.0139 63.6583 59.6459 62.657 58.8892C62.2542 58.5249 61.9378 58.0734 61.7314 57.5683C61.525 57.0631 61.4339 56.5174 61.4649 55.9718C61.4344 55.4001 61.5275 54.8286 61.7377 54.2971C61.9479 53.7655 62.2702 53.2867 62.682 52.8941C63.7057 52.0943 64.9848 51.704 66.275 51.7979C66.7626 51.7934 67.25 51.8215 67.7339 51.8822C68.1531 51.938 68.5681 52.0226 68.976 52.1352V53.8216C68.5781 53.6881 68.1673 53.5977 67.7506 53.5518C67.3161 53.5006 66.8791 53.4752 66.4418 53.4759C65.6993 53.4105 64.9594 53.6269 64.366 54.083C64.1328 54.3324 63.9543 54.6288 63.8422 54.9529C63.7302 55.2769 63.6871 55.6213 63.7157 55.9633C63.6932 56.2727 63.7367 56.5834 63.8431 56.8743C63.9495 57.1652 64.1165 57.4297 64.3326 57.6497C64.8493 58.0566 65.497 58.2549 66.15 58.2062C66.651 58.209 67.15 58.1438 67.6339 58.0123V56.562H65.7248V55.3225H69.4846V59.2265C69.0778 59.4482 68.6431 59.6127 68.1924 59.7156C67.5198 59.8699 66.8312 59.9407 66.1416 59.9264Z" fill="#F6F6F6"/>
<path d="M70.6094 59.8084V51.916H72.8102V58.2906H76.9784V59.8084H70.6094Z" fill="#F6F6F6"/>
<path d="M81.8225 59.9262C80.6499 60.0073 79.4874 59.6602 78.5463 58.9481C78.1478 58.5547 77.8403 58.077 77.6457 57.5493C77.4512 57.0216 77.3744 56.4569 77.4209 55.8957C77.3664 55.3198 77.4391 54.739 77.6337 54.195C77.8284 53.6511 78.1401 53.1577 78.5463 52.7505C79.5282 52.128 80.6637 51.7979 81.8225 51.7979C82.9814 51.7979 84.1168 52.128 85.0988 52.7505C85.504 53.1581 85.8145 53.6518 86.0077 54.1958C86.2009 54.7398 86.272 55.3204 86.2158 55.8957C86.264 56.4563 86.1888 57.0208 85.9956 57.5486C85.8025 58.0763 85.4962 58.5543 85.0988 58.9481C84.1576 59.6602 82.9951 60.0073 81.8225 59.9262ZM81.8225 58.2398C82.1175 58.2663 82.4147 58.2297 82.6948 58.1324C82.9749 58.0351 83.2316 57.8792 83.4481 57.6748C83.8293 57.1626 84.0104 56.5261 83.9567 55.8872C84.0221 55.2237 83.8408 54.5594 83.4481 54.0238C82.976 53.6679 82.403 53.4757 81.8142 53.4757C81.2254 53.4757 80.6524 53.6679 80.1802 54.0238C79.7876 54.5594 79.6063 55.2237 79.6717 55.8872C79.618 56.5261 79.7991 57.1626 80.1802 57.6748C80.3986 57.882 80.6578 58.0402 80.9408 58.139C81.2238 58.2378 81.5243 58.275 81.8225 58.2482V58.2398Z" fill="#F6F6F6"/>
<path d="M87.3408 59.8083V51.9159H92.0009C92.7149 51.8654 93.4242 52.0649 94.01 52.4808C94.2371 52.6757 94.4169 52.9208 94.5354 53.1971C94.6539 53.4734 94.708 53.7736 94.6936 54.0745C94.7052 54.4416 94.6127 54.8045 94.4268 55.1201C94.248 55.3952 94.0046 55.6212 93.7182 55.7778C94.0776 55.8794 94.4031 56.0775 94.6602 56.3511C94.9136 56.6726 95.0359 57.0798 95.002 57.4895C95.0171 57.8088 94.9587 58.1273 94.8314 58.42C94.7041 58.7126 94.5114 58.9714 94.2684 59.1759C93.6461 59.6106 92.8975 59.8215 92.1426 59.7745L87.3408 59.8083ZM89.55 55.1285H91.3423C91.6392 55.1535 91.9351 55.0697 92.176 54.8924C92.2625 54.8092 92.3303 54.7082 92.3749 54.5962C92.4195 54.4842 92.4398 54.3638 92.4344 54.2431C92.4435 54.1183 92.425 53.9931 92.3803 53.8764C92.3356 53.7597 92.2658 53.6546 92.176 53.5686C91.8934 53.387 91.5587 53.3068 91.2256 53.3409H89.5583L89.55 55.1285ZM89.55 58.4001H91.5674C91.8813 58.4241 92.1944 58.3442 92.4594 58.1725C92.5679 58.0775 92.652 57.9573 92.7043 57.8221C92.7566 57.687 92.7755 57.5409 92.7595 57.3967C92.7658 57.2679 92.7427 57.1393 92.6921 57.0209C92.6416 56.9025 92.5648 56.7974 92.4677 56.7137C92.171 56.5369 91.8273 56.4573 91.484 56.4861H89.55V58.4001Z" fill="#F6F6F6"/>
<path d="M95.377 59.8084L98.7115 51.916H101.096L104.43 59.8084H102.205L101.371 58.0208H98.4281L97.6445 59.8084H95.377ZM98.7616 56.5621H101.104L99.9287 53.8132L98.7616 56.5621Z" fill="#F6F6F6"/>
<path d="M105.631 59.8084V51.916H107.832V58.2906H112V59.8084H105.631Z" fill="#F6F6F6"/>
<path d="M49.2936 59.8678V55.7108H48.3516L48.535 54.3195H51.386V59.8678H49.2936ZM49.1185 53.4342V52.0176L51.4194 52.2284V53.4426L49.1185 53.4342Z" fill="#F6F6F6"/>
<path d="M55.3117 59.9944C54.7095 60.0372 54.1136 59.8473 53.6444 59.4631C53.4599 59.2724 53.3165 59.045 53.2233 58.7954C53.13 58.5458 53.0889 58.2793 53.1026 58.0128V55.7446H51.1602L51.4019 54.3196H53.0692V52.279L55.1783 51.9502V54.3449H56.6872L56.5955 55.7699H55.1783V57.9032C55.1665 58.0076 55.1809 58.1134 55.2202 58.2107C55.2596 58.308 55.3226 58.3937 55.4034 58.4597C55.6038 58.582 55.837 58.638 56.0703 58.6199C56.3333 58.6221 56.5949 58.5822 56.8456 58.5019V59.7836C56.3502 59.9429 55.8312 60.0142 55.3117 59.9944Z" fill="#F6F6F6"/>
<path d="M51.7194 24.7902C58.4875 24.7902 63.974 19.2407 63.974 12.3951C63.974 5.54947 58.4875 0 51.7194 0C44.9514 0 39.4648 5.54947 39.4648 12.3951C39.4648 19.2407 44.9514 24.7902 51.7194 24.7902Z" fill="#F6F6F6"/>
<path d="M80.2049 6.42446L77.9957 6.74488C76.7794 6.92317 75.669 7.54384 74.8726 8.49065C74.0762 9.43746 73.6483 10.6455 73.6691 11.8884C73.7304 14.9933 73.163 18.078 72.0018 20.9529C70.7812 24.0321 68.8764 26.786 66.4347 29.0012C63.9931 31.2164 61.0802 32.8335 57.9216 33.7274C54.6452 34.6904 51.1925 34.8701 47.8357 34.2523C44.479 33.6344 41.3101 32.2359 38.5793 30.1671C35.8484 28.0984 33.6303 25.416 32.0999 22.3316C30.5696 19.2472 29.7689 15.8453 29.761 12.3943C29.761 12.2594 29.761 12.133 29.761 12.0065C29.7918 10.6891 29.3736 9.4011 28.5767 8.35862C27.7798 7.31614 26.6526 6.58261 25.3844 6.28112L23.4837 5.82579C23.2204 5.76314 22.9472 5.7556 22.681 5.80363C22.4147 5.85166 22.161 5.95423 21.9354 6.10506C21.7097 6.25589 21.517 6.45179 21.3689 6.68072C21.2209 6.90965 21.1207 7.16678 21.0744 7.43631C20.813 9.07573 20.682 10.7337 20.6826 12.3943C20.6905 17.2051 21.7894 21.9498 23.8946 26.2636C25.9999 30.5774 29.0555 34.3452 32.8262 37.2772C36.597 40.2092 40.9825 42.2272 45.6453 43.1759C50.3081 44.1246 55.1239 43.9788 59.7222 42.7497C65.0078 41.3917 69.8356 38.6226 73.7013 34.732C77.5669 30.8413 80.3284 25.9718 81.6971 20.6324C82.7561 16.5516 83.0138 12.3004 82.4557 8.1193C82.4201 7.85758 82.3333 7.60565 82.2004 7.37822C82.0674 7.15079 81.8911 6.95241 81.6816 6.79465C81.472 6.63689 81.2336 6.5229 80.98 6.45934C80.7265 6.39579 80.463 6.38393 80.2049 6.42446Z" fill="#F6F6F6"/>
</svg>
