<svg width="86" height="40" viewBox="0 0 86 40" fill="none" xmlns="http://www.w3.org/2000/svg">
<g clip-path="url(#clip0_229_1250)">
<path d="M7.69994 22.4422L17.1688 11.0891H25.7792L15.1398 23.2343L26.2995 39.3928H17.559L9.57292 27.8812L7.59589 30.0461V39.3928H0V1.2937H7.59589V22.4422H7.69994Z" fill="#707070"/>
<path d="M25.4184 39.3928V11.0891H33.0142V39.3928H25.4184ZM32.1037 6.81188C31.3234 7.58636 30.3609 7.9736 29.2163 7.9736C28.0717 7.9736 27.1092 7.58636 26.3287 6.81188C25.5484 6.0374 25.1582 5.09571 25.1582 3.9868C25.1582 2.86029 25.5484 1.91859 26.3287 1.16171C27.1092 0.387239 28.0717 0 29.2163 0C30.3609 0 31.3234 0.387239 32.1037 1.16171C32.8841 1.91859 33.2744 2.86029 33.2744 3.9868C33.2744 5.09571 32.8841 6.0374 32.1037 6.81188Z" fill="#707070"/>
<path d="M36.9192 4.56738H44.515V11.0889H49.6658V16.8974H44.515V30.442C44.515 32.5718 45.6077 33.6367 47.7928 33.6367C48.5038 33.6367 49.1194 33.5927 49.6397 33.5047V39.1812C48.7553 39.3925 47.55 39.4981 46.0238 39.4981C42.7462 39.4981 40.405 38.8996 39.0003 37.7027C37.6128 36.5058 36.9192 34.5256 36.9192 31.7621V16.8974H32.9912V11.0889H36.9192V4.56738Z" fill="#707070"/>
<path d="M62.7271 16.1844C61.0796 16.1844 59.7009 16.7565 58.5911 17.9006C57.4984 19.0447 56.8828 20.5057 56.744 22.2834H68.5801C68.4934 20.4705 67.9124 19.0007 66.8372 17.8742C65.7794 16.7477 64.4093 16.1844 62.7271 16.1844ZM68.6842 30.7323H75.6558C75.2395 33.5134 73.8695 35.7576 71.5457 37.465C69.2391 39.1547 66.369 39.9996 62.9353 39.9996C58.6517 39.9996 55.2874 38.6971 52.842 36.0921C50.4142 33.487 49.2002 29.9138 49.2002 25.3726C49.2002 20.8489 50.4142 17.2406 52.842 14.5474C55.27 11.8368 58.539 10.4814 62.6491 10.4814C66.6898 10.4814 69.9068 11.7664 72.3001 14.3362C74.6933 16.9061 75.8899 20.3473 75.8899 24.6597V27.0095H56.666V27.4847C56.666 29.509 57.247 31.1547 58.4089 32.4221C59.5882 33.6718 61.1403 34.2967 63.0653 34.2967C64.4526 34.2967 65.6493 33.9798 66.6551 33.3461C67.661 32.6949 68.3373 31.8236 68.6842 30.7323Z" fill="#707070"/>
<path d="M81.63 39.8146C84.0436 39.8146 86.0002 37.8287 86.0002 35.379C86.0002 32.9293 84.0436 30.9434 81.63 30.9434C79.2164 30.9434 77.2598 32.9293 77.2598 35.379C77.2598 37.8287 79.2164 39.8146 81.63 39.8146Z" fill="#707070"/>
</g>
<defs>
<clipPath id="clip0_229_1250">
<rect width="86" height="40" fill="white"/>
</clipPath>
</defs>
</svg>
