<svg width="72" height="30" viewBox="0 0 72 30" fill="none" xmlns="http://www.w3.org/2000/svg">
<path d="M6.78614 12.6802C7.84705 12.6802 8.32015 13.7294 8.32015 16.0823C8.32015 18.5954 7.84705 19.7163 6.78614 19.7163C5.72533 19.7163 5.25212 18.5954 5.25212 16.0823C5.25212 13.7294 5.72533 12.6802 6.78614 12.6802ZM15.1969 10.7476L11.2902 13.2032C10.2072 12.4771 8.66459 12.0959 6.78614 12.0959C4.64283 12.0959 2.93655 12.592 1.84983 13.5323C1.68747 13.6843 1.53402 13.828 1.45743 13.9168C0.881262 14.5479 0.57671 15.3767 0.57671 16.3132C0.57671 17.4558 1.06621 18.3845 1.96305 19.0594L0.792438 19.7943L0.787398 19.8207C0.499671 21.2967 0.704867 22.522 1.39695 23.4623C2.19713 24.5493 3.68039 25.2473 5.57351 25.4276C8.13497 25.6716 10.2551 26.0003 10.2551 27.5597C10.2551 28.7908 9.34059 29.415 7.53666 29.415C5.56541 29.415 4.3408 28.2881 4.3408 26.4746V25.7205L0 25.7566L0.00620936 25.823C0.255955 28.4776 2.86834 30 7.17359 30C11.746 30 14.4758 28.3885 14.4758 25.6891C14.4758 22.4121 9.99772 21.9051 6.62946 21.8092C4.92354 21.7605 2.68114 21.4507 2.49124 19.4005C3.53918 19.9826 4.9842 20.3005 6.76374 20.3005L6.78614 20.2996L6.80856 20.3005C10.7404 20.3005 12.9956 18.8471 12.9956 16.3132C12.9956 15.3769 12.6913 14.5485 12.1154 13.9175C12.0769 13.8729 12.0199 13.8152 11.9525 13.75H15.1969V10.7476Z" fill="#707070"/>
<path d="M40.2871 20.0079C40.2871 22.2495 39.5245 23.6416 38.2967 23.6416C36.3677 23.6416 36.0796 20.3523 36.0796 18.3916C36.0796 15.0109 36.9129 13.0721 38.3659 13.0721C39.551 13.0721 40.2871 14.376 40.2871 16.4748V20.0079ZM46.5892 23.6416H44.7345V6.06519L44.6535 6.09484C42.7452 6.7926 40.0224 7.22958 37.516 7.24427V7.83001H40.2871V13.4578H40.2169C39.5182 12.6043 38.2758 12.0955 36.8856 12.0955C33.7095 12.0955 31.4043 14.7432 31.4043 18.3916C31.4043 21.9811 33.7309 24.6879 36.8164 24.6879C38.3738 24.6879 39.7036 23.998 40.382 22.8406H40.5136V24.7241L40.5858 24.7096C42.229 24.3767 44.0318 24.2316 46.5892 24.2265V23.6416Z" fill="#707070"/>
<path d="M54.6593 17.407H51.3525C51.4737 14.4456 52.207 12.68 53.3181 12.68C54.3842 12.68 55.0742 14.3673 55.0787 16.9811L54.6593 17.407ZM53.5914 12.0957C51.4697 12.0957 49.708 12.6791 48.497 13.7826C47.2903 14.8822 46.6523 16.4763 46.6523 18.392C46.6523 22.276 49.3113 24.6887 53.5914 24.6887C56.743 24.6887 58.6951 23.4134 59.5596 20.7985H58.8778C58.1346 22.6075 56.7904 23.6423 55.1616 23.6423C52.8684 23.6423 51.3277 21.5603 51.3277 18.4616V17.9912H59.0357L59.7559 17.2631V17.2376C59.7559 14.018 57.4514 12.0957 53.5914 12.0957Z" fill="#707070"/>
<path d="M60.3221 13.1418H61.8883V23.2164L61.4673 23.642H60.2617V24.2265H70.2425V23.642H66.7567L66.3355 23.2164V17.0065C66.3355 16.4662 66.6537 16.1437 67.1865 16.1437H70.39L71.9995 12.0911L69.6881 12.2114C67.9737 12.3271 66.7931 13.6968 66.3686 15.7909H66.109V12.0732L66.0304 12.0989C64.5117 12.5919 62.6154 12.5763 60.9428 12.562C60.7316 12.5603 60.5266 12.5593 60.3221 12.5585V13.1418Z" fill="#707070"/>
<path d="M23.4616 13.1415H24.8122V23.2161L24.391 23.6418H23.1855V24.2262H30.886V23.6418H29.6805L29.2593 23.2161V12.0732L29.1807 12.0986C27.6395 12.5933 25.638 12.5761 24.0286 12.5617C23.8332 12.56 23.6452 12.5586 23.4616 12.5578V13.1415Z" fill="#707070"/>
<path d="M14.7568 24.2267H22.4573V23.6422H21.2519L20.8306 23.2166V7.20923L16.412 9.9843L16.3834 10.0023V23.2166L15.9622 23.6422H14.7568V24.2267Z" fill="#707070"/>
<path d="M25.0361 9.99658L28.7341 10.0013L32.3335 0L25.0361 9.99658Z" fill="#707070"/>
<path d="M24.1637 9.27645L32.3341 0L23.4561 5.57592L24.1637 9.27645Z" fill="#707070"/>
</svg>
