<svg width="160" height="50" viewBox="0 0 160 50" fill="none" xmlns="http://www.w3.org/2000/svg">
<mask id="mask0_229_596" style="mask-type:luminance" maskUnits="userSpaceOnUse" x="0" y="0" width="50" height="50">
<path d="M37.4026 0H12.4675C5.5819 0 0 5.59644 0 12.5V37.5C0 44.4036 5.5819 50 12.4675 50H37.4026C44.2882 50 49.8701 44.4036 49.8701 37.5V12.5C49.8701 5.59644 44.2882 0 37.4026 0Z" fill="white"/>
</mask>
<g mask="url(#mask0_229_596)">
<path d="M37.4026 0H12.4675C5.5819 0 0 5.59644 0 12.5V37.5C0 44.4036 5.5819 50 12.4675 50H37.4026C44.2882 50 49.8701 44.4036 49.8701 37.5V12.5C49.8701 5.59644 44.2882 0 37.4026 0Z" fill="#F6F6F6"/>
<mask id="mask1_229_596" style="mask-type:luminance" maskUnits="userSpaceOnUse" x="0" y="0" width="50" height="50">
<path d="M39.9351 0H9.93507C4.44808 0 0 4.45966 0 9.96094V40.0391C0 45.5403 4.44808 50 9.93507 50H39.9351C45.4221 50 49.8701 45.5403 49.8701 40.0391V9.96094C49.8701 4.45966 45.4221 0 39.9351 0Z" fill="white"/>
</mask>
<g mask="url(#mask1_229_596)">
<path d="M39.9351 -0.000488281H9.93507C4.44808 -0.000488281 0 4.45918 0 9.96045V40.0386C0 45.5398 4.44808 49.9995 9.93507 49.9995H39.9351C45.4221 49.9995 49.8701 45.5398 49.8701 40.0386V9.96045C49.8701 4.45918 45.4221 -0.000488281 39.9351 -0.000488281Z" fill="#F6F6F6"/>
<g filter="url(#filter0_f_229_596)">
<path d="M31.9916 28.9697C43.3361 42.5247 63.4925 44.2928 77.0123 32.9188C90.5321 21.5448 92.2956 1.33582 80.9511 -12.2192C69.6067 -25.7742 49.4502 -27.5422 35.9304 -16.1682C22.4106 -4.79425 20.6471 15.4147 31.9916 28.9697Z" fill="#F6F6F6"/>
</g>
<g filter="url(#filter1_f_229_596)">
<path d="M42.5433 53.8178C49.2817 43.8017 44.2491 28.5845 31.3026 19.8292C18.3561 11.074 2.39838 12.0961 -4.34003 22.1122C-11.0785 32.1284 -6.04583 47.3456 6.90063 56.1008C19.8471 64.8561 35.8049 63.8339 42.5433 53.8178Z" fill="#F6F6F6"/>
</g>
<g filter="url(#filter2_f_229_596)">
<path d="M39.7093 38.8003C43.9578 32.4854 40.7848 22.8913 32.6224 17.3713C24.4599 11.8513 14.3989 12.4958 10.1505 18.8107C5.90204 25.1257 9.07499 34.7198 17.2374 40.2398C25.3999 45.7598 35.4609 45.1153 39.7093 38.8003Z" fill="#F6F6F6"/>
</g>
<mask id="mask2_229_596" style="mask-type:luminance" maskUnits="userSpaceOnUse" x="9" y="9" width="32" height="32">
<path d="M35.875 9.76514H13.995C11.6452 9.76514 9.74023 11.675 9.74023 14.031V35.968C9.74023 38.324 11.6452 40.2339 13.995 40.2339H35.875C38.2249 40.2339 40.1298 38.324 40.1298 35.968V14.031C40.1298 11.675 38.2249 9.76514 35.875 9.76514Z" fill="white"/>
</mask>
<g mask="url(#mask2_229_596)">
<path d="M33.8247 30.567C33.8247 35.0645 30.1839 38.7104 25.6928 38.7104V19.432C25.6928 14.9345 29.3336 11.2886 33.8247 11.2886V30.567ZM19.1247 38.7107C21.3702 38.7107 23.1906 36.897 23.1906 34.6597C23.1906 32.4224 21.3702 30.6088 19.1247 30.6088C16.8791 30.6088 15.0586 32.4224 15.0586 34.6597C15.0586 36.897 16.8791 38.7107 19.1247 38.7107Z" fill="#303030"/>
</g>
</g>
</g>
<path d="M68.5713 37.823C68.5713 38.8877 69.2116 39.5833 70.2505 39.5833C71.275 39.5833 71.9154 38.8877 71.9154 37.823V35.3528H85.9747V37.823C85.9747 38.8877 86.6151 39.5833 87.6397 39.5833C88.6785 39.5833 89.3046 38.8877 89.3046 37.823V34.0893C89.3046 32.9678 88.65 32.2579 87.6254 32.2579H86.7431V16.7696C86.7431 15.5771 86.0601 14.8673 84.9075 14.8673H75.2453C73.7226 14.8673 72.8119 15.6906 72.7123 17.1529L72.1146 26.9201C71.9439 29.8446 71.4885 31.4772 70.1224 32.2437H69.9517C69.0409 32.3716 68.5713 32.9961 68.5713 34.1745V37.823ZM74.121 32.2579V32.1444C74.9891 31.1222 75.359 29.7026 75.5156 27.1472L76.099 17.9479H83.086V32.2579H74.121ZM104.388 35.5942C105.485 35.5942 106.182 34.8701 106.182 33.7059V26.0115H106.281L114.151 34.7992C114.62 35.3385 115.075 35.5942 115.73 35.5942C116.726 35.5942 117.48 34.8417 117.48 33.8764C117.48 33.4362 117.381 32.9961 117.011 32.5703L109.696 24.6202L116.513 17.2806C116.811 16.9542 116.926 16.5993 116.926 16.2159C116.926 15.3074 116.199 14.6259 115.26 14.6259C114.733 14.6259 114.35 14.7962 113.951 15.2648L106.295 23.8252H106.182V16.5141C106.182 15.3499 105.485 14.6259 104.388 14.6259C103.293 14.6259 102.595 15.3499 102.595 16.5141V23.8252H102.482L94.897 15.2648C94.527 14.8105 94.1144 14.6259 93.5878 14.6259C92.606 14.6259 91.8803 15.3074 91.8803 16.2018C91.8803 16.585 91.994 16.9683 92.2929 17.2949L99.0665 24.6628L91.8091 32.6128C91.4391 33.0529 91.3395 33.493 91.3395 33.919C91.3395 34.8843 92.0652 35.5942 93.0471 35.5942C93.7017 35.5942 94.1571 35.3385 94.6267 34.7992L102.496 26.0115H102.595V33.7059C102.595 34.8701 103.293 35.5942 104.388 35.5942ZM123.514 35.509C126.474 35.509 128.21 33.8905 130.145 29.5322L135.681 17.0535C135.794 16.7696 135.851 16.443 135.851 16.1592C135.851 15.2222 135.182 14.5833 134.115 14.5833C133.219 14.5833 132.763 14.9524 132.394 15.8752L127.911 26.9343H127.726L123.059 15.8894C122.66 14.9382 122.19 14.5833 121.337 14.5833C120.298 14.5833 119.544 15.2648 119.544 16.2018C119.544 16.4856 119.601 16.8122 119.729 17.0819L125.862 30.6538C125.179 31.7469 124.353 32.3716 122.816 32.3716H122.759C121.65 32.3716 121.052 32.9109 121.052 33.7485C121.052 34.8701 121.962 35.509 123.514 35.509ZM140.462 35.5942C141.501 35.5942 142.127 34.9553 142.127 33.8764V20.8156H142.226L147.677 34.0042C148.019 34.8417 148.573 35.225 149.413 35.225C150.267 35.225 150.793 34.8417 151.149 33.9899L156.599 20.8156H156.698V33.8764C156.698 34.9553 157.31 35.5942 158.349 35.5942C159.388 35.5942 160 34.9553 160 33.8764V16.9542C160 15.4919 159.132 14.6259 157.666 14.6259C156.385 14.6259 155.646 15.1796 155.104 16.5282L149.47 30.3272H149.356L143.707 16.5282C143.166 15.1654 142.44 14.6259 141.174 14.6259C139.708 14.6259 138.811 15.5061 138.811 16.9542V33.8764C138.811 34.9553 139.423 35.5942 140.462 35.5942Z" fill="#F6F6F6"/>
<defs>
<filter id="filter0_f_229_596" x="-6.60615" y="-54.7856" width="126.155" height="126.322" filterUnits="userSpaceOnUse" color-interpolation-filters="sRGB">
<feFlood flood-opacity="0" result="BackgroundImageFix"/>
<feBlend mode="normal" in="SourceGraphic" in2="BackgroundImageFix" result="shape"/>
<feGaussianBlur stdDeviation="15.5604" result="effect1_foregroundBlur_229_596"/>
</filter>
<filter id="filter1_f_229_596" x="-27.9556" y="-6.74803" width="94.1143" height="89.4261" filterUnits="userSpaceOnUse" color-interpolation-filters="sRGB">
<feFlood flood-opacity="0" result="BackgroundImageFix"/>
<feBlend mode="normal" in="SourceGraphic" in2="BackgroundImageFix" result="shape"/>
<feGaussianBlur stdDeviation="10.3125" result="effect1_foregroundBlur_229_596"/>
</filter>
<filter id="filter2_f_229_596" x="-5.79736" y="-0.44396" width="61.4546" height="58.499" filterUnits="userSpaceOnUse" color-interpolation-filters="sRGB">
<feFlood flood-opacity="0" result="BackgroundImageFix"/>
<feBlend mode="normal" in="SourceGraphic" in2="BackgroundImageFix" result="shape"/>
<feGaussianBlur stdDeviation="7.03125" result="effect1_foregroundBlur_229_596"/>
</filter>
</defs>
</svg>
