<svg width="52" height="20" viewBox="0 0 52 20" fill="none" xmlns="http://www.w3.org/2000/svg">
<g clip-path="url(#clip0_229_535)">
<path d="M3.56962 0.308145L0 14.9936L4.86076 19.9744L6.20253 14.6342L7.26582 13.6329L7.77215 15.0193L12.6329 19.923L9.51899 11.5533L16.2532 5.31456L11.3671 0.282471L7.26582 4.08221L3.56962 0.308145Z" fill="#707070"/>
<path d="M21.1144 0.000244141L12.4814 15.0195L17.3422 20.0002L20.1017 15.1992H22.5574L27.2663 19.9489L26.0004 4.95531L21.1144 0.000244141Z" fill="#707070"/>
<path d="M45.8478 0.000244141L37.2148 15.0195L42.0756 20.0002L44.8351 15.1992H47.2908L51.9997 19.9489L50.7338 4.95531L45.8478 0.000244141Z" fill="#707070"/>
<path d="M30.7592 4.57002L28.2022 14.9936L33.0883 19.9487L36.6832 5.23754H41.7971L37.0123 0.282471H26.5566L30.7592 4.57002Z" fill="#707070"/>
</g>
<defs>
<clipPath id="clip0_229_535">
<rect width="52" height="20" fill="white"/>
</clipPath>
</defs>
</svg>
