<svg width="42" height="20" viewBox="0 0 42 20" fill="none" xmlns="http://www.w3.org/2000/svg">
<path d="M3.76043 11.2211L8.38474 5.54447H12.5898L7.39384 11.6171L12.8439 19.6964H8.5753L4.67514 13.9406L3.70962 15.0231V19.6964H0V0.646729H3.70962V11.2211H3.76043Z" fill="#707070"/>
<path d="M12.4132 19.6965V5.54461H16.1228V19.6965H12.4132ZM15.6781 3.40597C15.297 3.79321 14.827 3.98683 14.268 3.98683C13.709 3.98683 13.2389 3.79321 12.8578 3.40597C12.4767 3.01872 12.2861 2.54788 12.2861 1.99342C12.2861 1.43015 12.4767 0.959303 12.8578 0.580861C13.2389 0.193621 13.709 0 14.268 0C14.827 0 15.297 0.193621 15.6781 0.580861C16.0592 0.959303 16.2498 1.43015 16.2498 1.99342C16.2498 2.54788 16.0592 3.01872 15.6781 3.40597Z" fill="#707070"/>
<path d="M18.0306 2.28369H21.7402V5.54445H24.2557V8.44874H21.7402V15.2211C21.7402 16.286 22.2738 16.8185 23.341 16.8185C23.6882 16.8185 23.9889 16.7965 24.243 16.7525V19.5907C23.811 19.6964 23.2224 19.7492 22.4771 19.7492C20.8764 19.7492 19.733 19.45 19.047 18.8515C18.3694 18.253 18.0306 17.2629 18.0306 15.8811V8.44874H16.1123V5.54445H18.0306V2.28369Z" fill="#707070"/>
<path d="M30.6345 8.09222C29.8299 8.09222 29.1566 8.37827 28.6145 8.95032C28.0809 9.52241 27.7803 10.2529 27.7125 11.1418H33.4929C33.4506 10.2353 33.1668 9.50041 32.6418 8.93714C32.1251 8.37388 31.456 8.09222 30.6345 8.09222ZM33.5437 15.3662H36.9485C36.7452 16.7568 36.0761 17.8789 34.9412 18.7326C33.8148 19.5775 32.4131 19.9999 30.7361 19.9999C28.6442 19.9999 27.0011 19.3487 25.8069 18.0461C24.6212 16.7436 24.0283 14.957 24.0283 12.6863C24.0283 10.4245 24.6212 8.62031 25.8069 7.27374C26.9926 5.91842 28.5891 5.24072 30.5964 5.24072C32.5698 5.24072 34.1409 5.88321 35.3096 7.16813C36.4784 8.45309 37.0628 10.1737 37.0628 12.3299V13.5048H27.6744V13.7424C27.6744 14.7546 27.9581 15.5775 28.5256 16.2111C29.1015 16.836 29.8596 17.1484 30.7996 17.1484C31.4772 17.1484 32.0616 16.99 32.5528 16.6732C33.044 16.3475 33.3744 15.9119 33.5437 15.3662Z" fill="#707070"/>
<path d="M39.8657 19.9074C41.0445 19.9074 42 18.9144 42 17.6895C42 16.4646 41.0445 15.4717 39.8657 15.4717C38.687 15.4717 37.7314 16.4646 37.7314 17.6895C37.7314 18.9144 38.687 19.9074 39.8657 19.9074Z" fill="#707070"/>
</svg>
