<svg width="86" height="40" viewBox="0 0 86 40" fill="none" xmlns="http://www.w3.org/2000/svg">
<g clip-path="url(#clip0_229_1263)">
<path d="M7.69994 22.4425L17.1688 11.0893H25.7792L15.1398 23.2346L26.2995 39.393H17.559L9.57292 27.8814L7.59589 30.0464V39.393H0V1.29395H7.59589V22.4425H7.69994Z" fill="#F6F6F6"/>
<path d="M25.4184 39.3928V11.0891H33.0142V39.3928H25.4184ZM32.1037 6.81188C31.3234 7.58636 30.3609 7.9736 29.2163 7.9736C28.0717 7.9736 27.1092 7.58636 26.3287 6.81188C25.5484 6.0374 25.1582 5.09571 25.1582 3.9868C25.1582 2.86029 25.5484 1.91859 26.3287 1.16171C27.1092 0.387239 28.0717 0 29.2163 0C30.3609 0 31.3234 0.387239 32.1037 1.16171C32.8841 1.91859 33.2744 2.86029 33.2744 3.9868C33.2744 5.09571 32.8841 6.0374 32.1037 6.81188Z" fill="#F6F6F6"/>
<path d="M36.9192 4.56787H44.515V11.0893H49.6658V16.8979H44.515V30.4425C44.515 32.5723 45.6077 33.6372 47.7928 33.6372C48.5038 33.6372 49.1194 33.5932 49.6397 33.5052V39.1817C48.7553 39.393 47.55 39.4986 46.0238 39.4986C42.7462 39.4986 40.405 38.9001 39.0003 37.7032C37.6128 36.5063 36.9192 34.526 36.9192 31.7626V16.8979H32.9912V11.0893H36.9192V4.56787Z" fill="#F6F6F6"/>
<path d="M62.7271 16.1849C61.0796 16.1849 59.7009 16.757 58.5911 17.9011C57.4984 19.0452 56.8828 20.5062 56.744 22.2839H68.5801C68.4934 20.471 67.9124 19.0012 66.8372 17.8747C65.7794 16.7482 64.4093 16.1849 62.7271 16.1849ZM68.6842 30.7328H75.6558C75.2395 33.5138 73.8695 35.7581 71.5457 37.4655C69.2391 39.1552 66.369 40.0001 62.9353 40.0001C58.6517 40.0001 55.2874 38.6976 52.842 36.0925C50.4142 33.4875 49.2002 29.9143 49.2002 25.3731C49.2002 20.8494 50.4142 17.2411 52.842 14.5479C55.27 11.8373 58.539 10.4819 62.6491 10.4819C66.6898 10.4819 69.9068 11.7669 72.3001 14.3367C74.6933 16.9066 75.8899 20.3478 75.8899 24.6602V27.01H56.666V27.4852C56.666 29.5095 57.247 31.1552 58.4089 32.4225C59.5882 33.6723 61.1403 34.2972 63.0653 34.2972C64.4526 34.2972 65.6493 33.9803 66.6551 33.3466C67.661 32.6954 68.3373 31.8241 68.6842 30.7328Z" fill="#F6F6F6"/>
<path d="M81.63 39.8151C84.0436 39.8151 86.0002 37.8292 86.0002 35.3795C86.0002 32.9298 84.0436 30.9438 81.63 30.9438C79.2164 30.9438 77.2598 32.9298 77.2598 35.3795C77.2598 37.8292 79.2164 39.8151 81.63 39.8151Z" fill="#F6F6F6"/>
</g>
<defs>
<clipPath id="clip0_229_1263">
<rect width="86" height="40" fill="white"/>
</clipPath>
</defs>
</svg>
