<svg width="174" height="48" viewBox="0 0 174 48" fill="none" xmlns="http://www.w3.org/2000/svg">
<g clip-path="url(#clip0_229_624)">
<path fill-rule="evenodd" clip-rule="evenodd" d="M6.37999 0.900364C2.9 1.2 0 4.34909 0 7.79927V40.2007C0 43.6495 2.9 46.8 6.37999 47.0996C11.89 47.7004 17.545 48 23.2 48C28.855 48 34.51 47.7004 40.02 47.0996C43.5 46.8 46.3999 43.6495 46.3999 40.1993V7.80073C46.3999 4.35055 43.5 1.2 40.165 0.901818C34.536 0.302759 28.8794 0.00173536 23.2188 0C17.5812 0 11.9625 0.299636 6.37999 0.900364Z" fill="#F6F6F6"/>
<path fill-rule="evenodd" clip-rule="evenodd" d="M32.4551 12.112C32.19 12.0005 31.8977 11.9713 31.6159 12.0284C31.3341 12.0854 31.0759 12.226 30.8746 12.432L23.1998 20.2356L15.525 12.432C15.3237 12.226 15.0655 12.0854 14.7837 12.0284C14.5019 11.9713 14.2096 12.0005 13.9445 12.112C13.6782 12.2256 13.4513 12.4156 13.2921 12.658C13.133 12.9005 13.0487 13.1846 13.0498 13.4749V31.1665C13.0498 31.9811 13.6994 32.6415 14.4998 32.6415C15.3002 32.6415 15.9498 31.9811 15.9498 31.1665V17.0342L22.1747 23.3629C22.3083 23.4997 22.4678 23.6083 22.6438 23.6825C22.8199 23.7567 23.0089 23.7949 23.1998 23.7949C23.3907 23.7949 23.5797 23.7567 23.7558 23.6825C23.9318 23.6083 24.0913 23.4997 24.225 23.3629L30.4498 17.0342V31.1665C30.4498 31.9811 31.0994 32.6415 31.8998 32.6415C32.7002 32.6415 33.3498 31.9811 33.3498 31.1665V13.4749C33.3498 12.8785 32.996 12.3404 32.4551 12.112Z" fill="#303030"/>
<path fill-rule="evenodd" clip-rule="evenodd" d="M25.9983 25.9316L23.2056 28.8218L20.4129 25.9316C20.2827 25.7951 20.1262 25.6865 19.953 25.6123C19.7798 25.5381 19.5935 25.4998 19.4051 25.4998C19.2168 25.4998 19.0304 25.5381 18.8572 25.6123C18.684 25.6865 18.5276 25.7951 18.3974 25.9316C18.1292 26.2122 17.9795 26.5859 17.9795 26.9745C17.9795 27.3632 18.1292 27.7369 18.3974 28.0175L21.7802 31.5156V36.3113C21.7802 37.1258 22.4182 37.7862 23.2056 37.7862C23.9929 37.7862 24.6309 37.1258 24.6309 36.3113V31.5171L28.0138 28.0175C28.2819 27.7369 28.4317 27.3632 28.4317 26.9745C28.4317 26.5859 28.2819 26.2122 28.0138 25.9316C27.8836 25.7951 27.7271 25.6865 27.5539 25.6123C27.3807 25.5381 27.1944 25.4998 27.006 25.4998C26.8177 25.4998 26.6313 25.5381 26.4581 25.6123C26.2849 25.6865 26.1285 25.7951 25.9983 25.9316Z" fill="#303030"/>
</g>
<g clip-path="url(#clip1_229_624)">
<path fill-rule="evenodd" clip-rule="evenodd" d="M126.967 27.4368C124.536 27.4368 122.559 25.3917 122.559 22.8754C122.559 20.3619 124.536 18.3154 126.967 18.3154C129.399 18.3154 131.375 20.3619 131.375 22.8754C131.375 25.3917 129.399 27.4368 126.967 27.4368ZM126.967 15.2739C122.915 15.2739 119.619 18.6848 119.619 22.8754C119.619 27.0674 122.915 30.4783 126.967 30.4783C131.019 30.4783 134.316 27.0674 134.316 22.8768C134.316 18.6834 131.022 15.2739 126.967 15.2739ZM148.523 27.4368C146.093 27.4368 144.115 25.3917 144.115 22.8754C144.115 20.3619 146.093 18.3154 148.523 18.3154C150.955 18.3154 152.932 20.3619 152.932 22.8754C152.932 25.3917 150.953 27.4368 148.523 27.4368ZM148.523 15.2739C144.472 15.2739 141.174 18.6848 141.174 22.8754C141.174 27.0674 144.472 30.4783 148.523 30.4783C152.576 30.4783 155.873 27.0674 155.873 22.8768C155.873 18.6834 152.576 15.2739 148.523 15.2739ZM72.6591 15.9474C72.3905 15.8321 72.0931 15.8017 71.8068 15.8605C71.5205 15.9192 71.2588 16.0642 71.0569 16.2761L66.2168 21.2827L61.3781 16.2776C61.1762 16.0656 60.9147 15.9205 60.6284 15.8615C60.3422 15.8025 60.0448 15.8324 59.7759 15.9474C59.5044 16.0668 59.2738 16.2633 59.1124 16.5128C58.9511 16.7623 58.8662 17.0537 58.8682 17.351V28.5016C58.8682 29.3408 59.5265 30.0216 60.3385 30.0216C61.1505 30.0216 61.8088 29.3408 61.8088 28.5016V21.0223L65.1771 24.5088C65.3114 24.6495 65.4727 24.7614 65.6512 24.8379C65.8298 24.9144 66.0219 24.9538 66.2161 24.9538C66.4102 24.9538 66.6023 24.9144 66.7809 24.8379C66.9594 24.7614 67.1207 24.6495 67.255 24.5088L70.6248 21.0223V28.5016C70.6248 29.3408 71.2831 30.0216 72.0951 30.0216C72.9071 30.0216 73.5654 29.3408 73.5654 28.5016V17.351C73.5654 16.7357 73.2087 16.1816 72.6591 15.9474ZM108.596 26.9292H104.431V24.3954H108.596C109.248 24.3954 109.821 24.9874 109.821 25.6623C109.821 26.3372 109.248 26.9292 108.596 26.9292ZM104.431 18.8201H107.126C107.778 18.8201 108.351 19.4121 108.351 20.087C108.351 20.7619 107.778 21.3539 107.126 21.3539H104.431V18.8201ZM110.835 22.0361C111.125 21.4499 111.29 20.7896 111.29 20.087C111.29 17.7117 109.422 15.7801 107.126 15.7801H102.961C102.149 15.7801 101.492 16.4608 101.492 17.3001V28.4492C101.492 29.2899 102.149 29.9707 102.961 29.9707H108.596C110.891 29.9707 112.76 28.0376 112.76 25.6623C112.76 24.1394 111.992 22.8027 110.835 22.0361ZM91.1437 16.7314L86.7937 21.2303L82.4437 16.7314C82.3094 16.5907 82.1482 16.4788 81.9696 16.4023C81.7911 16.3258 81.5989 16.2864 81.4048 16.2864C81.2107 16.2864 81.0185 16.3258 80.84 16.4023C80.6614 16.4788 80.5001 16.5907 80.3659 16.7314C80.0896 17.0206 79.9353 17.4057 79.9353 17.8063C79.9353 18.2069 80.0896 18.592 80.3659 18.8812L85.3249 24.0099V28.4492C85.3249 29.2885 85.9817 29.9692 86.7937 29.9692C87.6057 29.9692 88.264 29.2885 88.264 28.4492V24.0099L93.223 18.8812C93.4993 18.592 93.6536 18.2069 93.6536 17.8063C93.6536 17.4057 93.4993 17.0206 93.223 16.7314C93.0888 16.5903 92.9275 16.478 92.7488 16.4013C92.5701 16.3245 92.3777 16.285 92.1834 16.285C91.989 16.285 91.7966 16.3245 91.6179 16.4013C91.4392 16.478 91.2779 16.5903 91.1437 16.7314ZM169.219 22.8754L173.569 18.375C173.845 18.0858 173.999 17.7007 173.999 17.3001C173.999 16.8995 173.845 16.5144 173.569 16.2252C173.435 16.0843 173.273 15.9722 173.095 15.8956C172.916 15.819 172.724 15.7796 172.53 15.7796C172.336 15.7796 172.144 15.819 171.965 15.8956C171.786 15.9722 171.625 16.0843 171.491 16.2252L166.161 21.7379V17.3016C166.161 16.4623 165.503 15.7816 164.692 15.7816C163.88 15.7816 163.222 16.4623 163.222 17.3016V28.4507C163.222 29.2914 163.88 29.9721 164.692 29.9721C165.504 29.9721 166.161 29.2914 166.161 28.4507V24.0114L171.491 29.5241C171.625 29.6644 171.787 29.776 171.965 29.8523C172.144 29.9285 172.336 29.9678 172.53 29.9678C172.724 29.9678 172.916 29.9285 173.095 29.8523C173.273 29.776 173.434 29.6644 173.569 29.5241C173.845 29.2349 173.999 28.8498 173.999 28.4492C173.999 28.0486 173.845 27.6635 173.569 27.3743L169.219 22.8754Z" fill="#F6F6F6"/>
</g>
<defs>
<clipPath id="clip0_229_624">
<rect width="46.3999" height="48" fill="white"/>
</clipPath>
<clipPath id="clip1_229_624">
<rect width="116" height="17.4545" fill="white" transform="translate(58 14.5469)"/>
</clipPath>
</defs>
</svg>
