<svg width="20" height="24" viewBox="0 0 20 24" fill="none" xmlns="http://www.w3.org/2000/svg">
<path fill-rule="evenodd" clip-rule="evenodd" d="M4 0.999023C4 0.446739 4.44771 -0.000976562 5 -0.000976562H15C15.5523 -0.000976562 16 0.446739 16 0.999023V1.99902C16 2.55131 16.4477 2.99902 17 2.99902H19C19.5523 2.99902 20 3.44674 20 3.99902V9.99902C20 10.5513 19.5523 10.999 19 10.999H17C16.4477 10.999 16 11.4467 16 11.999C16 12.5513 16.4477 12.999 17 12.999H19C19.5523 12.999 20 13.4467 20 13.999V19.999C20 20.5513 19.5523 20.999 19 20.999H17C16.4477 20.999 16 21.4467 16 21.999V22.999C16 23.5513 15.5523 23.999 15 23.999H5C4.44772 23.999 4 23.5513 4 22.999V21.999C4 21.4467 3.55228 20.999 3 20.999H1C0.447715 20.999 0 20.5513 0 19.999V13.999C0 13.4467 0.447715 12.999 1 12.999H3C3.55228 12.999 4 12.5513 4 11.999V10.999C4 10.4467 4.44771 9.99902 5 9.99902H15C15.5523 9.99902 16 9.55131 16 8.99902V4.99902C16 4.44674 15.5523 3.99902 15 3.99902H5C4.44772 3.99902 4 4.44674 4 4.99902V7.99902C4 8.55131 3.55228 8.99902 3 8.99902H1C0.447715 8.99902 0 8.55131 0 7.99902V3.99902C0 3.44674 0.447715 2.99902 1 2.99902H3C3.55228 2.99902 4 2.55131 4 1.99902V0.999023ZM15 19.999C15.5523 19.999 16 19.5513 16 18.999V14.999C16 14.4467 15.5523 13.999 15 13.999H5C4.44772 13.999 4 14.4467 4 14.999V18.999C4 19.5513 4.44771 19.999 5 19.999H15Z" fill="#707070"/>
</svg>
