<svg width="20" height="25" viewBox="0 0 20 25" fill="none" xmlns="http://www.w3.org/2000/svg">
<path fill-rule="evenodd" clip-rule="evenodd" d="M16 0.999023C16 0.446739 15.5523 -0.000976562 15 -0.000976562H5C4.44772 -0.000976562 4 0.446739 4 0.999023V1.99902C4 2.55131 3.55228 2.99902 3 2.99902H1C0.447715 2.99902 0 3.44674 0 3.99902V5.99902C0 6.55131 0.447715 6.99902 1 6.99902H3C3.55228 6.99902 4 6.55131 4 5.99902V4.99902C4 4.44674 4.44771 3.99902 5 3.99902H15C15.5523 3.99902 16 4.44674 16 4.99902V8.99902C16 9.55131 15.5523 9.99902 15 9.99902H5C4.44772 9.99902 4 10.4467 4 10.999V11.999C4 12.5513 3.55228 12.999 3 12.999H1C0.447715 12.999 0 13.4467 0 13.999V23.999C0 24.5513 0.447715 24.999 1 24.999H4H19C19.5523 24.999 20 24.5513 20 23.999V21.999C20 21.4467 19.5523 20.999 19 20.999H5C4.44772 20.999 4 20.5513 4 19.999V14.999C4 14.4467 4.44771 13.999 5 13.999H15C15.5523 13.999 16 13.5513 16 12.999V11.999C16 11.4467 16.4477 10.999 17 10.999H19C19.5523 10.999 20 10.5513 20 9.99902V3.99902C20 3.44674 19.5523 2.99902 19 2.99902H17C16.4477 2.99902 16 2.55131 16 1.99902V0.999023Z" fill="#707070"/>
</svg>
