<svg width="154" height="34" viewBox="0 0 154 34" fill="none" xmlns="http://www.w3.org/2000/svg">
<path fill-rule="evenodd" clip-rule="evenodd" d="M18.6035 0.0935527C15.1437 -0.274369 11.6559 0.448548 8.61957 2.16294C5.58323 3.87733 3.1474 6.49903 1.64687 9.66769C0.146346 12.8363 -0.345205 16.3964 0.239783 19.8585C0.824771 23.3207 2.45758 26.5149 4.91378 29.0022C7.36998 31.4895 10.529 33.1477 13.9566 33.749C17.3842 34.3503 20.9122 33.8651 24.0555 32.36C27.1989 30.855 29.8034 28.4041 31.5109 25.3441C33.2185 22.2841 33.9454 18.7654 33.5917 15.2714C33.2024 11.3877 31.4994 7.75798 28.7695 4.99348C26.0395 2.22898 22.4494 0.498545 18.6035 0.0935527ZM18.0579 25.9964C16.1971 26.2484 14.3048 25.9055 12.6471 25.0157C10.9893 24.126 9.64939 22.7342 8.81562 21.036C7.98185 19.3378 7.69615 17.4185 7.99867 15.5479C8.30119 13.6773 9.17672 11.9494 10.5022 10.6071C11.8277 9.26481 13.5365 8.37553 15.3885 8.06427C17.2405 7.75302 19.1425 8.03544 20.8273 8.87184C22.5121 9.70824 23.8949 11.0566 24.7814 12.7273C25.6679 14.3981 26.0136 16.3073 25.7697 18.1866C25.5139 20.1633 24.6197 21.9998 23.2255 23.4116C21.8314 24.8235 20.0151 25.7319 18.0579 25.9964ZM42.5984 0.766092C42.0143 0.767503 41.4379 0.900345 40.9112 1.15495C40.3844 1.40956 39.9204 1.77952 39.5531 2.23793C39.1858 2.69633 38.9243 3.23164 38.7877 3.8049C38.6511 4.37817 38.6428 4.97497 38.7634 5.55187C39.1329 7.42086 40.8622 8.69788 42.7459 8.69788H53.6778L36.6653 31.4262C36.5395 31.594 36.4625 31.7938 36.4429 32.0033C36.4232 32.2128 36.4618 32.4237 36.5543 32.6123C36.6467 32.801 36.7894 32.9599 36.9663 33.0712C37.1431 33.1826 37.3472 33.242 37.5557 33.2428H64.2414C66.1239 33.2428 67.8544 31.9661 68.2239 30.0968C68.3445 29.52 68.3363 28.9233 68.1999 28.3501C68.0634 27.7769 67.802 27.2416 67.4349 26.7832C67.0677 26.3247 66.604 25.9547 66.0774 25.6999C65.5507 25.4451 64.9745 25.3121 64.3905 25.3104H51.0709L68.0703 2.59976C68.1974 2.43034 68.2751 2.22853 68.2949 2.01698C68.3147 1.80542 68.2757 1.59248 68.1822 1.40206C68.0888 1.21164 67.9447 1.05127 67.766 0.938931C67.5873 0.826596 67.3812 0.766744 67.1707 0.766092H42.5984ZM149.233 0.857583C148.349 1.06967 147.564 1.57979 147.007 2.3036C146.449 3.02742 146.153 3.92158 146.168 4.83824V18.0444L124.971 1.01552C124.804 0.882318 124.604 0.799189 124.393 0.775702C124.182 0.752215 123.969 0.789324 123.778 0.88276C123.587 0.976195 123.426 1.12216 123.314 1.30387C123.201 1.48557 123.142 1.69564 123.143 1.90989V29.1777C123.128 30.0944 123.424 30.9886 123.981 31.7124C124.539 32.4362 125.324 32.9464 126.208 33.1584C126.781 33.2858 127.376 33.2816 127.948 33.1461C128.52 33.0105 129.054 32.7471 129.512 32.3752C129.969 32.0033 130.339 31.5325 130.592 30.9974C130.845 30.4623 130.976 29.8767 130.975 29.2837V15.9632L152.173 32.9924C152.339 33.1256 152.539 33.2086 152.75 33.2321C152.96 33.2556 153.174 33.2184 153.365 33.1251C153.555 33.0317 153.716 32.8858 153.829 32.7041C153.941 32.5225 154.001 32.3125 154 32.0984V4.73102C154.001 4.13814 153.869 3.55267 153.616 3.01779C153.363 2.48291 152.994 2.01225 152.536 1.64052C152.079 1.26879 151.544 1.00546 150.973 0.869956C150.401 0.734452 149.806 0.730223 149.233 0.857583ZM94.0418 7.93866C103.008 7.93866 109.707 12.7219 109.707 17.0004C109.707 21.279 103.008 26.0622 94.0418 26.0622C85.0761 26.0622 78.377 21.279 78.377 17.0004C78.377 12.7219 85.0761 7.93866 94.0418 7.93866ZM94.0418 0.00719808C81.0643 0.00719808 70.5443 7.61539 70.5443 17.0004C70.5443 26.3855 81.0643 33.9937 94.0418 33.9937C107.019 33.9937 117.539 26.3855 117.539 17.0004C117.539 7.61539 107.019 0.00719808 94.0418 0.00719808Z" fill="#F6F6F6"/>
</svg>
