<svg width="20" height="19" viewBox="0 0 20 19" fill="none" xmlns="http://www.w3.org/2000/svg">
<path fill-rule="evenodd" clip-rule="evenodd" d="M2.73303 1.04281C3.95003 -0.167192 5.95403 0.0478085 6.97303 1.40981L8.23503 3.09381C9.06503 4.20181 8.99103 5.74981 8.00603 6.72881L7.76803 6.96681C7.74115 7.06673 7.73841 7.17162 7.76003 7.27281C7.82303 7.68081 8.16403 8.54481 9.59203 9.96481C11.02 11.3848 11.89 11.7248 12.304 11.7888C12.4082 11.811 12.5162 11.8079 12.619 11.7798L13.027 11.3738C13.903 10.5038 15.247 10.3408 16.331 10.9298L18.241 11.9698C19.878 12.8578 20.291 15.0818 18.951 16.4148L17.53 17.8268C17.082 18.2718 16.48 18.6428 15.746 18.7118C13.936 18.8808 9.71903 18.6648 5.28603 14.2578C1.14903 10.1438 0.355027 6.55581 0.254027 4.78781C0.204027 3.89381 0.626027 3.13781 1.16403 2.60381L2.73303 1.04281ZM5.77303 2.30881C5.26603 1.63181 4.32203 1.57781 3.79003 2.10681L2.22003 3.66681C1.89003 3.99481 1.73203 4.35681 1.75203 4.70281C1.83203 6.10781 2.47203 9.34481 6.34403 13.1948C10.406 17.2328 14.157 17.3538 15.607 17.2178C15.903 17.1908 16.197 17.0368 16.472 16.7638L17.892 15.3508C18.47 14.7768 18.343 13.7308 17.525 13.2868L15.615 12.2478C15.087 11.9618 14.469 12.0558 14.085 12.4378L13.63 12.8908L13.1 12.3588C13.63 12.8908 13.629 12.8918 13.628 12.8918L13.627 12.8938L13.624 12.8968L13.617 12.9028L13.602 12.9168C13.5595 12.9556 13.514 12.9911 13.466 13.0228C13.386 13.0758 13.28 13.1348 13.147 13.1838C12.877 13.2848 12.519 13.3388 12.077 13.2708C11.21 13.1378 10.061 12.5468 8.53403 11.0288C7.00803 9.51081 6.41203 8.36881 6.27803 7.50281C6.20903 7.06081 6.26403 6.70281 6.36603 6.43281C6.42259 6.28107 6.50293 6.1393 6.60403 6.01281L6.63603 5.97781L6.65003 5.96281L6.65603 5.95681L6.65903 5.95381L6.66103 5.95181L6.94903 5.66581C7.37703 5.23881 7.43703 4.53181 7.03403 3.99281L5.77303 2.30881Z" fill="white"/>
</svg>
