<svg width="186" height="304" viewBox="0 0 186 304" fill="none" xmlns="http://www.w3.org/2000/svg">
<g clip-path="url(#clip0_4013_3788)">
<path fill-rule="evenodd" clip-rule="evenodd" d="M10.4111 4.0043L157.968 27.3437L185.818 22.98V286.905L157.968 298.188L10.4111 249.908V4.0043Z" fill="#706F6F"/>
<path fill-rule="evenodd" clip-rule="evenodd" d="M10.4111 4.0043C13.2872 4.55611 16.2106 5.00264 19.1304 5.47459C19.1304 8.24452 19.1341 11.0435 19.1341 13.788C16.2106 13.3342 13.2908 12.8514 10.4148 12.3686C10.4148 9.58048 10.4111 6.82144 10.4111 4.0043ZM10.4184 22.2794C13.2945 22.7731 16.2179 23.2668 19.1377 23.7642C19.1523 26.5341 19.1559 29.3077 19.1559 32.0776C16.2033 31.5694 13.2981 31.0647 10.4221 30.5057C10.4221 27.8011 10.4221 25.042 10.4184 22.2794ZM10.4294 40.4165C13.3054 40.9901 16.2143 41.5056 19.1632 42.0574C19.1632 44.8273 19.1669 47.6009 19.1669 50.3454C16.2143 49.7863 13.3091 49.2563 10.433 48.7009C10.4294 45.9382 10.4294 43.1791 10.4294 40.4165ZM10.4367 58.608C13.3127 59.178 16.2216 59.7734 19.1559 60.3469C19.1559 63.1169 19.1596 65.8904 19.1596 68.635C16.2252 68.0505 13.3164 67.4442 10.4403 66.8634C10.4403 64.1297 10.4367 61.3707 10.4367 58.608ZM10.4439 76.7742C13.3054 77.3659 16.2434 77.9867 19.1632 78.6111C19.1632 81.3811 19.1669 84.1546 19.1669 86.9246C16.2471 86.2892 13.3091 85.6576 10.4476 85.0295C10.4476 82.2668 10.4476 79.5078 10.4439 76.7742ZM10.4549 94.9113C13.3309 95.5829 16.2398 96.2254 19.1888 96.9007C19.1888 99.6706 19.1924 102.444 19.1924 105.189C16.2434 104.532 13.3346 103.845 10.4585 103.192C10.4549 100.429 10.4549 97.6703 10.4549 94.9113ZM10.4622 113.074C13.3382 113.767 16.2434 114.464 19.1815 115.161C19.1815 117.931 19.1851 120.705 19.1851 123.475C16.2507 122.763 13.3419 122.059 10.4658 121.326C10.4658 118.596 10.4658 115.836 10.4622 113.074ZM10.4695 131.211C13.3455 131.955 16.2507 132.678 19.1888 133.425C19.1888 136.17 19.1924 138.969 19.1924 141.739C16.258 140.976 13.3528 140.247 10.4731 139.492C10.4731 136.733 10.4731 133.945 10.4695 131.211ZM10.4804 149.377C13.3564 150.172 16.2617 150.942 19.1997 151.719C19.1997 154.489 19.2179 157.262 19.2179 160.007C16.269 159.219 13.3637 158.438 10.4877 157.632C10.484 154.87 10.4804 152.136 10.4804 149.377ZM10.4877 167.54C13.3492 168.331 16.269 169.151 19.2033 169.979C19.2033 172.749 19.207 175.523 19.207 178.293C16.2726 177.458 13.3528 176.623 10.4913 175.795C10.4913 173.061 10.4913 170.302 10.4877 167.54ZM10.4986 185.677C13.3601 186.544 16.2799 187.394 19.2143 188.269C19.2143 191.039 19.2179 193.812 19.2179 196.553C16.2835 195.693 13.3637 194.807 10.5023 193.957C10.4986 191.198 10.4986 188.436 10.4986 185.677ZM10.5059 203.843C13.3674 204.736 16.2872 205.633 19.2216 206.533C19.2216 209.303 19.2252 212.076 19.2252 214.821C16.2762 213.91 13.371 213.002 10.5096 212.098C10.5096 209.361 10.5059 206.602 10.5059 203.843ZM10.5132 222.005C13.3747 222.92 16.2945 223.842 19.2288 224.793C19.2288 227.563 19.2325 230.308 19.2325 233.081C16.2981 232.119 13.3929 231.186 10.5168 230.206C10.5168 227.527 10.5168 224.764 10.5132 222.005ZM10.4148 13.1963C10.4148 15.9553 10.4184 18.689 10.4184 21.4516C16.2179 22.4391 22.0903 23.4302 28.0356 24.4539C28.0356 21.6731 28.032 18.8886 28.032 16.0788C22.0867 15.1312 16.2143 14.162 10.4148 13.1963ZM10.4221 31.3624C10.4221 34.1215 10.4257 36.8842 10.4257 39.6178C16.2106 40.7069 22.0976 41.7742 28.0429 42.8488C28.0429 40.068 28.0393 37.2581 28.0393 34.4736C22.1085 33.4208 16.207 32.3753 10.4221 31.3624ZM10.433 49.4995C10.433 52.2586 10.4367 55.0213 10.4367 57.7803C16.2216 58.9456 22.1086 60.1146 28.0539 61.2654C28.0539 58.51 28.0502 55.6747 28.0502 52.8903C22.1049 51.7612 16.2179 50.6431 10.433 49.4995ZM10.4403 67.6621C10.4403 70.4211 10.4439 73.1838 10.4439 75.9428C16.2434 77.1808 22.1158 78.4006 28.0611 79.653C28.0611 76.8722 28.0575 74.0877 28.0575 71.2488C22.1122 70.0762 16.2252 68.8818 10.4403 67.6621ZM10.4512 85.8572C10.4512 88.6163 10.4549 91.3499 10.4549 94.0836C16.2398 95.4231 22.1231 96.7446 28.0684 98.0479C28.0684 95.267 28.0502 92.4826 28.0502 89.6727C22.1341 88.3912 16.2471 87.1206 10.4512 85.8572ZM10.4585 103.991C10.4585 106.75 10.4622 109.512 10.4622 112.271C16.2434 113.633 22.1304 115.031 28.0757 116.435C28.0757 113.68 28.0721 110.87 28.0721 108.089C22.1268 106.706 16.2398 105.359 10.4585 103.991ZM10.4658 122.128C10.4658 124.887 10.4695 127.65 10.4695 130.409C16.2507 131.901 22.1377 133.371 28.0684 134.852C28.0684 132.042 28.0648 129.261 28.0794 126.452C22.1341 125.021 16.2507 123.569 10.4658 122.128ZM10.4768 140.294C10.4768 143.053 10.4804 145.841 10.4804 148.549C16.2617 150.114 22.1486 151.661 28.0903 153.218C28.0903 150.437 28.0721 147.682 28.0721 144.843C22.145 143.307 16.258 141.808 10.4768 140.294ZM10.484 158.456C10.484 161.216 10.4877 163.978 10.4877 166.712C16.269 168.349 22.1559 169.975 28.083 171.606C28.083 168.85 28.0939 166.04 28.0939 163.259C22.1523 161.651 16.2653 160.047 10.484 158.456ZM10.4913 176.623C10.4913 179.382 10.495 182.144 10.495 184.878C16.2762 186.591 22.1596 188.29 28.0903 190.026C28.0903 187.216 28.0867 184.431 28.0867 181.651C22.1596 179.963 16.2726 178.285 10.4913 176.623ZM10.5023 194.76C10.5023 197.519 10.5059 200.281 10.5059 203.015C16.2872 204.805 22.1705 206.605 28.1012 208.388C28.1158 205.636 28.1158 202.852 28.0976 200.042C22.1669 198.278 16.2835 196.524 10.5023 194.76ZM10.5096 212.922C10.5096 215.656 10.5132 218.415 10.5132 221.178C16.2945 223.04 22.1778 224.888 28.1049 226.779C28.1049 224.024 28.1012 221.214 28.1012 218.433C22.1742 216.593 16.2762 214.737 10.5096 212.922ZM10.5205 231.059C10.5205 233.818 10.5241 236.581 10.5241 239.315C16.3054 241.25 22.1887 243.203 28.1012 245.167C28.1158 242.357 28.1122 239.576 28.1122 236.795C22.1814 234.849 16.2981 232.947 10.5205 231.059ZM19.8558 5.58712C25.7574 6.53464 31.7209 7.464 37.7391 8.42241C37.7391 11.2432 37.7573 14.0676 37.7573 16.8593C31.7209 15.8791 25.761 14.9025 19.8595 13.9042C19.8558 11.156 19.8558 8.35706 19.8558 5.58712ZM19.8485 23.8803C25.7647 24.9041 31.7282 25.9351 37.761 26.9443C37.761 29.7651 37.7646 32.5604 37.7646 35.3558C31.7282 34.2957 25.7683 33.2466 19.8522 32.1974C19.8522 29.4275 19.8485 26.6539 19.8485 23.8803ZM19.8558 42.1772C25.7574 43.2517 31.7173 44.3554 37.7683 45.4699C37.7537 48.2652 37.7573 51.086 37.7573 53.9067C31.7391 52.7705 25.7756 51.616 19.8595 50.4906C19.8595 47.7243 19.8595 44.9507 19.8558 42.1772ZM19.8631 60.474C25.7793 61.6793 31.7391 62.8337 37.7756 64.0245C37.7756 66.8452 37.7792 69.6406 37.7792 72.4069C31.7464 71.1944 25.7829 70.0181 19.8813 68.8201C19.8668 66.0211 19.8668 63.2476 19.8631 60.474ZM19.8741 78.7454C25.7902 80.0269 31.7501 81.2867 37.7829 82.5536C37.7829 85.349 37.7865 88.1698 37.7719 90.9905C31.7537 89.6727 25.7792 88.3912 19.8777 87.0879C19.874 84.3144 19.8741 81.5154 19.8741 78.7454ZM19.8813 97.0386C25.7975 98.3673 31.7574 99.7033 37.7756 101.047C37.7756 103.867 37.7792 106.692 37.7792 109.487C31.761 108.122 25.8011 106.735 19.885 105.356C19.885 102.611 19.8813 99.8412 19.8813 97.0386ZM19.8886 115.31C25.8048 116.74 31.7647 118.153 37.7974 119.605C37.7974 122.4 37.8011 125.221 37.8011 128.016C31.7537 126.546 25.8084 125.083 19.8923 123.656C19.8923 120.883 19.8886 118.109 19.8886 115.31ZM19.8959 133.603C25.7975 135.084 31.7719 136.569 37.7902 138.098C37.7902 140.918 37.7938 143.743 37.7938 146.564C31.7756 144.988 25.8011 143.478 19.9032 141.92C19.8996 139.15 19.8996 136.348 19.8959 133.603ZM19.9069 151.9C25.823 153.454 31.7792 155.019 37.7974 156.623C37.7974 159.419 37.8011 162.239 37.8011 165.064C31.7683 163.437 25.823 161.822 19.9105 160.192C19.9068 157.447 19.9069 154.674 19.9069 151.9ZM19.9141 170.172C25.8303 171.831 31.7719 173.497 37.8193 175.152C37.8047 177.973 37.8047 180.794 37.8084 183.56C31.7902 181.858 25.8194 180.166 19.9178 178.489C19.9178 175.715 19.9141 172.941 19.9141 170.172ZM19.9069 188.465C25.8194 190.171 31.7938 191.917 37.812 193.674C37.812 196.495 37.8157 199.29 37.8157 202.111C31.7975 200.332 25.8266 198.535 19.9251 196.753C19.9251 194.008 19.9214 191.238 19.9069 188.465ZM19.9287 206.733C25.8412 208.544 31.7865 210.334 37.8157 212.171C37.8157 215.021 37.8339 217.841 37.8193 220.637C31.7865 218.753 25.8303 216.908 19.9324 215.05C19.9324 212.28 19.9324 209.506 19.9287 206.733ZM19.936 225.004C25.8339 226.917 31.8084 228.816 37.823 230.725C37.823 233.521 37.8266 236.312 37.8266 239.137C31.8084 237.176 25.8376 235.256 19.9397 233.321C19.9397 230.518 19.9397 227.774 19.936 225.004ZM28.7574 16.1949C28.7574 19.0048 28.761 21.7893 28.761 24.5737C34.7209 25.6047 40.7719 26.643 46.8813 27.6559C46.8813 24.8496 46.8812 22.018 46.8776 19.1827C40.7683 18.1916 34.7173 17.2042 28.7574 16.1949ZM28.7501 34.5934C28.7501 37.4033 28.7537 40.1878 28.7537 42.9976C34.7428 44.0758 40.7938 45.1903 46.8885 46.3121C46.8885 43.5059 46.9031 40.6742 46.8995 37.8389C40.7901 36.7426 34.7391 35.6789 28.7501 34.5934ZM28.7574 53.0173C28.7574 55.8018 28.761 58.6407 28.7756 61.3961C34.7355 62.6086 40.7865 63.7994 46.8922 64.9974C46.8922 62.1657 46.8885 59.3305 46.8885 56.4698C40.7974 55.2935 34.7318 54.15 28.7574 53.0173ZM28.7647 71.4122C28.7647 74.2221 28.7683 77.0355 28.7683 79.8164C34.7428 81.0761 40.8084 82.3467 46.8995 83.621C46.9141 80.8147 46.8995 77.9831 46.8958 75.1478C40.7901 73.8989 34.7391 72.6501 28.7647 71.4122ZM28.772 89.8361C28.772 92.6205 28.7756 95.4304 28.7756 98.2149C34.7501 99.5799 40.7974 100.927 46.9068 102.281C46.9068 99.4492 46.9068 96.6139 46.9031 93.7786C40.812 92.4753 34.761 91.1539 28.772 89.8361ZM28.7647 108.235C28.7792 111.044 28.7829 113.829 28.7829 116.613C34.7574 118.055 40.8047 119.478 46.8995 120.937C46.9141 118.105 46.9141 115.27 46.9104 112.438C40.8047 111.026 34.7537 109.625 28.7647 108.235ZM28.7865 126.629C28.7865 129.439 28.7902 132.224 28.7902 135.034C34.7792 136.497 40.812 138.025 46.9177 139.561C46.9177 136.729 46.9141 133.923 46.9141 131.087C40.8266 129.603 34.761 128.125 28.7865 126.629ZM28.7829 145.024C28.7829 147.863 28.7865 150.619 28.7865 153.403C34.7756 155.026 40.823 156.605 46.9286 158.221C46.9286 155.389 46.925 152.554 46.925 149.747C40.8157 148.183 34.7683 146.625 28.7829 145.024ZM28.8048 163.452C28.8048 166.236 28.8084 169.046 28.8084 171.802C34.7829 173.501 40.8302 175.181 46.9359 176.848C46.9213 174.016 46.9177 171.181 46.9177 168.349C40.823 166.705 34.7756 165.071 28.8048 163.452ZM28.812 181.847C28.7975 184.627 28.7975 187.441 28.8011 190.222C34.7902 191.968 40.8339 193.729 46.9396 195.5C46.9396 192.694 46.9396 189.862 46.9359 187.027C40.8302 185.281 34.7974 183.571 28.812 181.847ZM28.8048 200.271C28.8048 203.055 28.8084 205.836 28.8084 208.591C34.7974 210.443 40.8412 212.28 46.9323 214.157C46.9323 211.296 46.9286 208.461 46.9286 205.658C40.8375 203.832 34.7902 202.042 28.8048 200.271ZM28.8266 218.636C28.8266 221.446 28.8157 224.231 28.8157 227.041C34.7865 228.943 40.8485 230.856 46.9542 232.755C46.9542 229.978 46.9505 227.142 46.9505 224.311C40.8448 222.408 34.7975 220.546 28.8266 218.636ZM28.8193 237.006C28.8193 239.816 28.823 242.6 28.823 245.41C34.8084 247.414 40.8557 249.407 46.9432 251.411C46.9432 248.579 46.9432 245.773 46.9396 242.938C40.8521 240.956 34.8047 238.988 28.8193 237.006ZM38.4645 8.50591C44.5447 9.50062 50.7123 10.4699 56.88 11.4174C56.88 14.2926 56.8837 17.1388 56.8837 19.985C50.7014 18.9867 44.5483 17.9919 38.4827 16.9791C38.4645 14.1801 38.4645 11.3557 38.4645 8.50591ZM38.4864 27.0641C44.552 28.1351 50.7051 29.1842 56.8873 30.208C56.9019 33.0832 56.8873 35.9294 56.8909 38.7465C50.7087 37.6683 44.5556 36.5719 38.49 35.5046C38.4864 32.7129 38.4864 29.8885 38.4864 27.0641ZM38.4754 45.5969C44.5556 46.7441 50.7087 47.8441 56.8909 49.0058C56.8909 51.852 56.8909 54.6982 56.8946 57.5734C50.7123 56.3899 44.5593 55.2137 38.4827 54.0411C38.4791 51.2167 38.4791 48.4213 38.4754 45.5969ZM38.501 64.1552C44.5629 65.3532 50.716 66.5584 56.8982 67.7964C56.8982 70.6135 56.8982 73.4597 56.9019 76.3349C50.7196 75.0715 44.5666 73.8155 38.5046 72.5666C38.501 69.7749 38.501 66.9795 38.501 64.1552ZM38.5083 82.688C44.5702 83.9912 50.7233 85.2728 56.9055 86.5942C56.9055 89.4404 56.9055 92.2865 56.9237 95.1327C50.7269 93.7895 44.5775 92.4572 38.4973 91.1321C38.4937 88.3331 38.4937 85.5087 38.5083 82.688ZM38.4973 101.217C44.5738 102.597 50.7269 103.958 56.9092 105.356C56.9092 108.202 56.9128 111.048 56.9128 113.923C50.7306 112.504 44.5811 111.092 38.501 109.658C38.501 106.837 38.501 104.042 38.4973 101.217ZM38.5192 119.75C44.5666 121.206 50.7342 122.647 56.9128 124.124C56.9128 126.971 56.9128 129.846 56.9165 132.688C50.7342 131.189 44.5848 129.697 38.5083 128.19C38.5228 125.395 38.5228 122.574 38.5192 119.75ZM38.5119 138.283C44.5884 139.847 50.7269 141.365 56.9201 142.919C56.9201 145.794 56.9201 148.665 56.9237 151.486C50.7269 149.907 44.5921 148.31 38.5155 146.752C38.5155 143.928 38.5119 141.104 38.5119 138.283ZM38.5192 156.841C44.5811 158.453 50.7452 160.05 56.942 161.684C56.9274 164.555 56.9274 167.402 56.931 170.248C50.7524 168.592 44.5848 166.915 38.5411 165.252C38.5228 162.457 38.5192 159.662 38.5192 156.841ZM38.5265 175.37C44.603 177.062 50.7524 178.765 56.9347 180.503C56.9347 183.35 56.9347 186.196 56.9383 189.013C50.7452 187.278 44.6103 185.524 38.5338 183.782C38.5301 180.99 38.5265 178.166 38.5265 175.37ZM38.5338 193.874C44.6103 195.671 50.7452 197.45 56.9383 199.269C56.9383 202.115 56.942 204.961 56.942 207.778C50.7488 205.963 44.5994 204.13 38.5374 202.314C38.5374 199.519 38.5338 196.698 38.5338 193.874ZM38.5411 212.403C44.603 214.276 50.767 216.135 56.9602 218.034C56.9602 220.88 56.9638 223.726 56.9638 226.598C50.7561 224.674 44.6212 222.764 38.5447 220.84C38.5411 218.048 38.5411 215.257 38.5411 212.403ZM38.5483 230.965C44.6249 232.889 50.7597 234.824 56.9529 236.803C56.9529 239.649 56.9529 242.495 56.9566 245.341C50.7634 243.341 44.6139 241.351 38.552 239.38C38.5483 236.552 38.5483 233.731 38.5483 230.965ZM47.6176 19.2989C47.6176 22.1341 47.6176 24.9694 47.6212 27.7757C53.7743 28.8539 60.0003 29.9067 66.27 30.9667C66.27 28.1097 66.27 25.2236 66.2664 22.3665C59.9966 21.3282 53.767 20.3262 47.6176 19.2989ZM47.6212 37.9624C47.6212 40.7976 47.6212 43.6329 47.6103 46.4646C53.7925 47.5936 60.0039 48.7263 66.2737 49.8662C66.2737 47.0091 66.2737 44.1521 66.27 41.266C60.0003 40.1769 53.7743 39.066 47.6212 37.9624ZM47.6285 56.5968C47.6285 59.4575 47.6322 62.2928 47.6322 65.1281C53.7998 66.3624 60.0112 67.604 66.2809 68.7947C66.2809 65.9376 66.2809 63.0806 66.2773 60.1945C60.0076 58.9965 53.7962 57.8348 47.6285 56.5968ZM47.6358 75.3148C47.6358 78.1501 47.6394 80.9853 47.6394 83.7916C53.7925 85.1021 60.0185 86.3945 66.2882 87.7232C66.2882 84.8371 66.2882 81.98 66.2846 79.0939C60.0149 77.8161 53.7852 76.5491 47.6358 75.3148ZM47.6285 93.9492C47.6285 96.7845 47.6285 99.6198 47.6467 102.451C53.8144 103.813 60.0258 105.214 66.2919 106.623C66.2919 103.766 66.2919 100.909 66.2882 98.0225C60.0185 96.6647 53.8071 95.3179 47.6285 93.9492ZM47.6467 112.584C47.6467 115.419 47.6504 118.254 47.6504 121.086C53.8035 122.582 60.0112 124.063 66.2955 125.551C66.2955 122.665 66.2919 119.779 66.2919 116.922C60.0258 115.484 53.8144 114.029 47.6467 112.584ZM47.6394 131.273C47.6394 134.108 47.6395 136.914 47.6431 139.746C53.8071 141.321 60.0331 142.85 66.3028 144.418C66.3028 141.561 66.3028 138.675 66.2992 135.818C60.0294 134.275 53.8071 132.768 47.6394 131.273ZM47.6467 149.932C47.6613 152.739 47.665 155.574 47.665 158.409C53.829 160.036 60.0404 161.673 66.3065 163.321C66.3065 160.493 66.3065 157.607 66.3028 154.75C60.0367 153.124 53.8253 151.566 47.6467 149.932ZM47.654 168.596C47.654 171.431 47.6577 174.263 47.6577 177.069C53.8217 178.801 60.0477 180.518 66.3138 182.246C66.3138 179.389 66.3138 176.503 66.3101 173.646C60.044 171.943 53.818 170.248 47.654 168.596ZM47.6577 187.227C47.6577 190.062 47.6613 192.894 47.6613 195.7C53.8253 197.512 60.0331 199.334 66.3174 201.142C66.3174 198.314 66.3174 195.428 66.3138 192.571C60.0477 190.788 53.8253 189.017 47.6577 187.227ZM47.665 205.861C47.665 208.668 47.6686 211.503 47.6686 214.363C53.8326 216.255 60.055 218.128 66.3247 220.045C66.3247 217.188 66.3247 214.302 66.321 211.416C60.055 209.55 53.8436 207.727 47.665 205.861ZM47.6723 224.55C47.6723 227.385 47.6723 230.221 47.6759 232.998C53.8399 234.966 60.0623 236.948 66.3283 238.944C66.3283 236.058 66.3283 233.23 66.3247 230.344C60.0586 228.398 53.8363 226.467 47.6723 224.55ZM47.665 243.156C47.665 245.991 47.6832 248.823 47.6832 251.658C53.8472 253.705 60.0695 255.767 66.3502 257.84C66.3356 254.983 66.3356 252.126 66.332 249.24C60.0659 247.218 53.8436 245.181 47.665 243.156ZM57.6163 11.53C63.8569 12.5392 70.174 13.5266 76.5349 14.5177C76.5349 17.4147 76.5349 20.3154 76.5531 23.2124C70.1777 22.1668 63.8642 21.1576 57.62 20.0975C57.62 17.2514 57.6163 14.4052 57.6163 11.53ZM57.6236 30.3605C63.8642 31.4205 70.1813 32.4878 76.5531 33.5624C76.5531 36.463 76.5531 39.36 76.5567 42.2316C70.1813 41.1353 63.8824 40.0171 57.6418 38.8736C57.6236 36.0528 57.6236 33.2066 57.6236 30.3605ZM57.6273 49.1329C63.8824 50.3018 70.1849 51.449 76.5421 52.6289C76.5421 55.5295 76.5421 58.4265 76.5458 61.2981C70.1886 60.0928 63.8715 58.8948 57.6309 57.7295C57.6309 54.8252 57.6309 51.979 57.6273 49.1329ZM57.6346 67.9307C63.8751 69.1505 70.1886 70.4066 76.5494 71.6699C76.5494 74.5415 76.5494 77.4676 76.5531 80.3646C70.1959 79.0794 63.8788 77.7979 57.6382 76.4983C57.6382 73.6267 57.6346 70.7515 57.6346 67.9307ZM57.6418 86.7321C63.8824 88.0608 70.1959 89.3932 76.5531 90.711C76.5531 93.6116 76.5531 96.5086 76.5567 99.4056C70.1995 98.0116 63.8861 96.6502 57.6455 95.2743C57.6418 92.4535 57.6418 89.6074 57.6418 86.7321ZM57.6601 105.534C63.8861 106.939 70.1995 108.354 76.5567 109.781C76.5567 112.678 76.5567 115.579 76.5604 118.45C70.2032 116.973 63.8897 115.535 57.6491 114.105C57.6637 111.226 57.6637 108.38 57.6601 105.534ZM57.6528 124.331C63.8933 125.816 70.2068 127.312 76.564 128.819C76.564 131.719 76.564 134.616 76.5677 137.488C70.2105 135.959 63.897 134.409 57.6564 132.874C57.6528 130.053 57.6528 127.178 57.6528 124.331ZM57.6601 143.104C63.9006 144.698 70.2141 146.273 76.5713 147.889C76.5713 150.815 76.5713 153.686 76.575 156.529C70.2178 154.891 63.9043 153.291 57.6674 151.675C57.6601 148.854 57.6601 145.979 57.6601 143.104ZM57.6637 161.902C63.9043 163.575 70.2141 165.231 76.5859 166.897C76.5859 169.794 76.5859 172.695 76.5895 175.566C70.2177 173.849 63.9043 172.139 57.6819 170.444C57.6819 167.598 57.6637 164.751 57.6637 161.902ZM57.6856 180.703C63.9079 182.428 70.2214 184.192 76.5932 185.938C76.5932 188.835 76.5932 191.736 76.5968 194.633C70.2396 192.832 63.9152 191.017 57.6747 189.242C57.671 186.395 57.671 183.549 57.6856 180.703ZM57.6747 199.475C63.9116 201.334 70.225 203.149 76.5968 205.008C76.5968 207.905 76.5968 210.777 76.6005 213.619C70.2287 211.739 63.9043 209.869 57.6819 208.043C57.6783 205.197 57.6783 202.322 57.6747 199.475ZM57.6819 218.244C63.9189 220.183 70.2323 222.107 76.5859 224.046C76.5859 226.946 76.5859 229.814 76.5895 232.715C70.2323 230.754 63.9225 228.776 57.6856 226.815C57.6856 223.969 57.6819 221.12 57.6819 218.244ZM57.7038 237.046C63.9262 239.006 70.236 241.014 76.5932 243.058C76.5932 245.929 76.5932 248.826 76.5968 251.727C70.2433 249.658 63.9298 247.628 57.7075 245.559C57.7038 242.738 57.7038 239.892 57.7038 237.046ZM67.0209 22.4863C67.0209 25.3434 67.0209 28.2331 67.0246 31.0902C73.3563 32.1865 79.7426 33.2865 86.191 34.3683C86.191 31.4568 86.191 28.5453 86.1873 25.6374C79.739 24.581 73.349 23.5318 67.0209 22.4863ZM67.01 41.4184C67.01 44.2755 67.0282 47.1652 67.0282 49.9933C73.3417 51.1985 79.7463 52.353 86.1946 53.5437C86.1946 50.6322 86.1946 47.7207 86.191 44.7837C79.7426 43.6475 73.3526 42.5148 67.01 41.4184ZM67.0282 60.3542C67.0282 63.2113 67.0282 66.101 67.0319 68.929C73.3599 70.1851 79.7499 71.4231 86.1983 72.6937C86.1983 69.8112 86.1983 66.9287 86.1946 64.0172C79.7463 62.7974 73.3599 61.5849 67.0282 60.3542ZM67.0355 79.2573C67.0355 82.1144 67.0355 85.0041 67.0391 87.8612C73.3672 89.2262 79.7572 90.573 86.2019 91.9271C86.2019 89.0156 86.2019 86.1041 86.1983 83.1962C79.7536 81.8639 73.3636 80.5715 67.0355 79.2573ZM67.0391 98.1931C67.0391 101.05 67.0391 103.94 67.0428 106.768C73.3708 108.213 79.7572 109.639 86.2055 111.073C86.2055 108.162 86.2055 105.25 86.2019 102.343C79.7572 100.93 73.3708 99.5581 67.0391 98.1931ZM67.0464 117.1C67.0464 119.957 67.0464 122.847 67.0501 125.704C73.3781 127.199 79.7645 128.735 86.2128 130.282C86.2128 127.37 86.2128 124.458 86.2092 121.551C79.7608 120.055 73.3745 118.57 67.0464 117.1ZM67.0355 136.032C67.0501 138.889 67.0537 141.779 67.0537 144.607C73.3818 146.24 79.7681 147.831 86.2128 149.457C86.2128 146.516 86.2128 143.608 86.2092 140.697C79.7681 139.121 73.3781 137.557 67.0355 136.032ZM67.0574 154.935C67.0574 157.792 67.0574 160.682 67.061 163.51C73.3891 165.223 79.79 166.893 86.2201 168.603C86.2201 165.721 86.2201 162.838 86.2165 159.927C79.7864 158.246 73.3854 156.601 67.0574 154.935ZM67.061 173.842C67.061 176.699 67.061 179.589 67.0647 182.446C73.3781 184.21 79.7937 185.992 86.2238 187.782C86.2238 184.871 86.2238 181.959 86.2201 179.051C79.79 177.312 73.3891 175.584 67.061 173.842ZM67.0683 192.774C67.0683 195.631 67.0683 198.521 67.0719 201.378C73.4 203.222 79.8009 205.084 86.2274 206.958C86.2274 204.046 86.2274 201.135 86.2238 198.227C79.7937 196.379 73.3781 194.571 67.0683 192.774ZM67.0719 211.652C67.0719 214.509 67.072 217.424 67.0756 220.31C73.4036 222.209 79.7864 224.151 86.2311 226.133C86.2311 223.251 86.2311 220.31 86.2274 217.373C79.7864 215.471 73.4 213.554 67.0719 211.652ZM67.0647 230.584C67.0792 233.441 67.0792 236.302 67.0829 239.188C73.4073 241.224 79.7937 243.246 86.2384 245.283C86.2384 242.371 86.2384 239.46 86.2384 236.552C79.79 234.566 73.4036 232.57 67.0647 230.584ZM67.0829 249.49C67.0829 252.348 67.0829 255.237 67.0865 258.094C73.4109 260.211 79.7973 262.316 86.2384 264.462C86.2384 261.55 86.2384 258.639 86.2347 255.702C79.7937 253.604 73.4109 251.553 67.0829 249.49ZM77.2858 14.6375C83.7341 15.6939 90.2262 16.6995 96.762 17.7088C96.762 20.6602 96.762 23.5863 96.762 26.4796C90.2262 25.416 83.7341 24.3886 77.2858 23.3358C77.2894 20.4352 77.2858 17.5382 77.2858 14.6375ZM77.2931 33.6822C83.7414 34.8185 90.2335 35.9076 96.7693 37.0257C96.7693 39.9482 96.7693 42.9032 96.7693 45.8256C90.2335 44.6785 83.7414 43.5385 77.2931 42.3768C77.2931 39.4835 77.2931 36.5828 77.2931 33.6822ZM77.2967 52.7596C83.745 53.9503 90.2371 55.1193 96.7729 56.3209C96.7729 59.3014 96.7729 62.2275 96.7729 65.1499C90.2371 63.9228 83.745 62.6994 77.2967 61.4578C77.2967 58.5862 77.2967 55.6566 77.2967 52.7596ZM77.3003 71.8043C83.7487 73.1039 90.2371 74.3818 96.7729 75.6705C96.7729 78.622 96.7875 81.548 96.7875 84.4705C90.2371 83.1309 83.7451 81.8276 77.3149 80.5315C77.3186 77.6345 77.3003 74.7049 77.3003 71.8043ZM77.3222 90.8816C83.756 92.2648 90.2444 93.6261 96.7948 94.9948C96.7948 97.9462 96.7948 100.872 96.7948 103.795C90.2444 102.401 83.7523 100.985 77.3222 99.5508C77.3222 96.6792 77.3222 93.7786 77.3222 90.8816ZM77.3259 109.955C83.756 111.389 90.2481 112.834 96.7985 114.315C96.7985 117.238 96.7985 120.164 96.7839 123.115C90.2481 121.609 83.7596 120.113 77.3259 118.596C77.3259 115.753 77.3259 112.856 77.3259 109.955ZM77.3295 129C83.7596 130.572 90.2517 132.126 96.7839 133.661C96.7839 136.613 96.7839 139.539 96.7875 142.403C90.2517 140.813 83.7633 139.263 77.3332 137.695C77.3332 134.801 77.3295 131.901 77.3295 129ZM77.3368 148.106C83.7669 149.704 90.259 151.341 96.7912 152.986C96.7912 155.908 96.7912 158.834 96.7912 161.785C90.2554 160.086 83.7669 158.424 77.3368 156.718C77.3368 153.875 77.3368 151.003 77.3368 148.106ZM77.3404 167.122C83.7706 168.828 90.259 170.549 96.7948 172.277C96.7948 175.2 96.7948 178.155 96.7948 181.048C90.2627 179.295 83.7706 177.523 77.3404 175.791C77.3404 172.894 77.3404 170.023 77.3404 167.122ZM77.3441 186.17C83.7742 187.96 90.2626 189.761 96.7985 191.601C96.813 194.527 96.8131 197.45 96.8131 200.405C90.2517 198.539 83.7742 196.684 77.3477 194.843C77.3477 191.939 77.3441 189.042 77.3441 186.17ZM77.3514 205.244C83.7815 207.114 90.2699 208.998 96.8167 210.893C96.8167 213.786 96.8167 216.741 96.8167 219.664C90.2699 217.714 83.7815 215.808 77.3514 213.855C77.3514 210.987 77.3514 208.116 77.3514 205.244ZM77.355 224.26C83.7851 226.271 90.2736 228.235 96.8203 230.213C96.8203 233.165 96.8203 236.091 96.8203 238.984C90.2736 236.955 83.7851 234.962 77.355 232.958C77.355 230.061 77.355 227.16 77.355 224.26ZM77.3587 243.279C83.7888 245.37 90.2772 247.418 96.824 249.509C96.824 252.431 96.824 255.386 96.824 258.309C90.2772 256.196 83.7888 254.094 77.3623 251.977C77.3587 249.077 77.3587 246.18 77.3587 243.279ZM86.9528 25.7572C86.9528 28.6687 86.9528 31.5802 86.9528 34.4918C93.4886 35.6063 100.054 36.7317 106.695 37.8317C106.695 34.9238 106.695 31.9578 106.695 28.9918C100.057 27.9173 93.4886 26.8499 86.9528 25.7572ZM86.9565 44.9398C86.9565 47.8514 86.9565 50.7629 86.9565 53.6744C93.4923 54.9015 100.057 56.1067 106.699 57.3193C106.699 54.3533 106.699 51.3873 106.699 48.454C100.061 47.2669 93.4959 46.1161 86.9565 44.9398ZM86.9637 64.1515C86.9637 67.0921 86.9637 69.9746 86.9637 72.857C93.4996 74.1676 100.065 75.4564 106.702 76.7524C106.702 73.7864 106.702 70.8495 106.702 67.8871C100.065 66.6419 93.4996 65.4076 86.9637 64.1515ZM86.9674 83.3342C86.9674 86.2457 86.9674 89.1572 86.9674 92.0687C93.4886 93.4591 100.068 94.8314 106.721 96.2146C106.721 93.2776 106.721 90.3407 106.721 87.3783C100.068 86.0206 93.5032 84.7028 86.9674 83.3342ZM86.971 102.517C86.971 105.428 86.971 108.34 86.9747 111.251C93.4959 112.725 100.072 114.21 106.728 115.673C106.728 112.736 106.728 109.77 106.728 106.808C100.054 105.37 93.4923 103.969 86.971 102.517ZM86.9747 121.699C86.9747 124.64 86.9747 127.552 86.9747 130.463C93.5105 132.02 100.072 133.585 106.71 135.164C106.71 132.198 106.71 129.203 106.71 126.27C100.075 124.72 93.5105 123.206 86.9747 121.699ZM86.9783 140.886C86.9783 143.797 86.9783 146.709 86.9783 149.649C93.5141 151.29 100.076 152.938 106.728 154.601C106.728 151.664 106.728 148.698 106.728 145.736C100.079 144.124 93.5141 142.501 86.9783 140.886ZM86.982 160.123C86.982 163.034 86.982 165.917 86.982 168.799C93.5141 170.549 100.079 172.281 106.732 174.027C106.732 171.061 106.732 168.124 106.732 165.187C100.079 163.503 93.5178 161.793 86.982 160.123ZM86.9893 179.28C86.9893 182.192 86.9893 185.103 87.0075 188.015C93.5251 189.819 100.09 191.634 106.739 193.464C106.739 190.556 106.739 187.59 106.739 184.627C100.083 182.849 93.5214 181.059 86.9893 179.28ZM87.0075 198.434C87.0075 201.345 87.0075 204.257 87.0111 207.197C93.5287 209.11 100.105 211.013 106.757 212.926C106.757 209.989 106.757 207.023 106.743 204.086C100.101 202.198 93.5251 200.325 87.0075 198.434ZM87.0111 217.616C87.0111 220.557 87.0111 223.468 87.0148 226.351C93.5324 228.377 100.108 230.359 106.746 232.384C106.746 229.418 106.761 226.482 106.761 223.519C100.105 221.519 93.5287 219.562 87.0111 217.616ZM87.0148 236.803C87.0148 239.714 87.0148 242.626 87.0184 245.537C93.536 247.588 100.112 249.683 106.746 251.792C106.746 248.884 106.746 245.918 106.746 242.952C100.108 240.898 93.5324 238.857 87.0148 236.803ZM87.0184 255.956C87.0184 258.868 87.0184 261.808 87.0221 264.72C93.5397 266.883 100.101 269.058 106.764 271.254C106.75 268.317 106.75 265.351 106.75 262.385C100.097 260.247 93.536 258.123 87.0184 255.956ZM97.5457 17.8286C104.154 18.8741 110.825 19.9269 117.569 20.9833C117.569 23.9638 117.583 26.9407 117.583 29.8921C110.825 28.8103 104.158 27.7321 97.5457 26.6321C97.5457 23.7061 97.5457 20.78 97.5457 17.8286ZM97.5494 37.1564C104.158 38.3145 110.829 39.4508 117.572 40.5943C117.572 43.5748 117.572 46.5517 117.572 49.5032C110.843 48.3052 104.162 47.1435 97.5494 45.9636C97.5494 43.0339 97.5494 40.0788 97.5494 37.1564ZM97.553 56.4843C104.162 57.7258 110.847 58.9747 117.572 60.2017C117.572 63.1822 117.572 66.1591 117.587 69.1105C110.829 67.829 104.147 66.5838 97.553 65.3169C97.553 62.3618 97.553 59.4357 97.553 56.4843ZM97.5567 75.8121C104.151 77.1082 110.836 78.4695 117.591 79.7837C117.591 82.7642 117.591 85.7411 117.591 88.7216C110.832 87.3529 104.165 85.9952 97.5567 84.6193C97.5567 81.7187 97.5567 78.7926 97.5567 75.8121ZM97.5603 95.1654C104.169 96.574 110.851 97.9898 117.594 99.3875C117.58 102.368 117.58 105.345 117.58 108.296C110.854 106.844 104.169 105.403 97.564 103.969C97.5603 101.047 97.5603 98.0914 97.5603 95.1654ZM97.564 114.522C104.173 115.985 110.854 117.488 117.598 118.998C117.598 121.979 117.598 124.956 117.598 127.907C110.858 126.372 104.176 124.843 97.5676 123.297C97.564 120.374 97.564 117.448 97.564 114.522ZM97.5676 133.85C104.176 135.455 110.858 137.041 117.598 138.635C117.598 141.615 117.598 144.563 117.598 147.515C110.843 145.863 104.176 144.255 97.5676 142.596C97.5676 139.731 97.5676 136.805 97.5676 133.85ZM97.5712 153.178C104.195 154.866 110.862 156.536 117.616 158.217C117.616 161.197 117.616 164.174 117.616 167.097C110.862 165.39 104.195 163.666 97.5858 161.982C97.5895 159.059 97.5858 156.104 97.5712 153.178ZM97.5895 172.48C104.198 174.223 110.862 176.005 117.602 177.77C117.602 180.75 117.602 183.727 117.602 186.708C110.862 184.885 104.195 183.077 97.5895 181.284C97.5895 178.358 97.5895 175.432 97.5895 172.48ZM97.5931 191.808C104.202 193.663 110.865 195.529 117.62 197.381C117.62 200.361 117.62 203.338 117.62 206.29C110.88 204.384 104.198 202.492 97.5931 200.612C97.5931 197.686 97.5931 194.731 97.5931 191.808ZM97.5968 211.136C104.187 213.046 110.869 214.999 117.623 216.963C117.623 219.943 117.623 222.891 117.623 225.901C110.869 223.911 104.191 221.904 97.5968 219.914C97.5968 216.956 97.5968 214.03 97.5968 211.136ZM97.6004 230.464C104.205 232.486 110.873 234.523 117.623 236.574C117.623 239.525 117.623 242.502 117.623 245.483C110.869 243.377 104.205 241.315 97.6004 239.213C97.6004 236.341 97.6004 233.415 97.6004 230.464ZM97.6041 249.763C104.209 251.897 110.891 254.018 117.627 256.152C117.627 259.133 117.627 262.109 117.627 265.061C110.891 262.872 104.209 260.697 97.6041 258.566C97.6041 255.64 97.6041 252.685 97.6041 249.763ZM107.493 29.1443C107.479 32.0812 107.479 35.0472 107.479 37.9841C114.193 39.1495 120.966 40.293 127.783 41.4438C127.783 38.4525 127.783 35.432 127.783 32.4406C120.966 31.3479 114.193 30.2298 107.493 29.1443ZM107.497 48.5847C107.497 51.5507 107.497 54.4876 107.497 57.4536C114.197 58.7024 120.966 59.9331 127.797 61.2001C127.797 58.2087 127.797 55.1883 127.797 52.1969C120.966 50.9843 114.193 49.8081 107.497 48.5847ZM107.501 68.0251C107.501 70.9911 107.501 73.957 107.501 76.894C114.197 78.2844 120.97 79.5986 127.801 80.9527C127.801 77.9322 127.801 74.9118 127.801 71.9204C120.97 70.6208 114.197 69.332 107.501 68.0251ZM107.501 87.549C107.501 90.4859 107.501 93.4519 107.501 96.3888C114.197 97.8083 120.984 99.235 127.801 100.673C127.801 97.6812 127.801 94.6608 127.801 91.6694C120.984 90.2862 114.201 88.914 107.501 87.549ZM107.519 106.989C107.519 109.955 107.519 112.921 107.519 115.858C114.215 117.361 120.973 118.875 127.801 120.4C127.801 117.437 127.801 114.417 127.801 111.426C120.973 109.955 114.204 108.467 107.519 106.989ZM107.523 126.484C107.523 129.421 107.508 132.416 107.508 135.353C114.219 136.969 120.988 138.57 127.819 140.178C127.819 137.186 127.819 134.166 127.819 131.146C120.977 129.592 114.219 128.016 107.523 126.484ZM107.512 145.925C107.512 148.92 107.512 151.857 107.512 154.793C114.208 156.496 120.992 158.181 127.808 159.905C127.808 156.943 127.808 153.922 127.823 150.931C120.992 149.257 114.208 147.598 107.512 145.925ZM107.53 165.39C107.53 168.327 107.53 171.293 107.53 174.23C114.226 176.016 120.995 177.784 127.823 179.596C127.823 176.634 127.823 173.613 127.823 170.622C120.981 168.868 114.226 167.122 107.53 165.39ZM107.534 184.86C107.534 187.797 107.534 190.763 107.534 193.7C114.23 195.569 120.999 197.453 127.826 199.352C127.826 196.361 127.826 193.34 127.826 190.349C120.995 188.505 114.226 186.675 107.534 184.86ZM107.534 204.3C107.534 207.266 107.534 210.232 107.534 213.14C114.244 215.097 121.013 217.064 127.826 219.047C127.826 216.084 127.841 213.093 127.826 210.098C120.999 208.17 114.23 206.228 107.534 204.3ZM107.537 223.766C107.552 226.707 107.537 229.673 107.537 232.639C114.233 234.679 120.999 236.763 127.826 238.828C127.826 235.837 127.826 232.816 127.826 229.825C121.003 227.781 114.233 225.781 107.537 223.766ZM107.541 243.206C107.541 246.172 107.541 249.109 107.541 252.046C114.237 254.199 121.003 256.337 127.845 258.523C127.845 255.531 127.83 252.507 127.83 249.516C121.003 247.392 114.233 245.305 107.541 243.206ZM107.544 262.647C107.544 265.613 107.544 268.579 107.544 271.516C114.252 273.752 121.021 275.977 127.834 278.25C127.834 275.288 127.848 272.267 127.848 269.276C121.021 267.058 114.252 264.858 107.544 262.647ZM118.367 21.1031C125.169 22.1959 132.044 23.2668 138.995 24.345C138.995 27.38 139.01 30.3859 139.01 33.4208C132.062 32.2882 125.169 31.1591 118.382 30.041C118.382 27.0641 118.367 24.0836 118.367 21.1031ZM118.382 40.7178C125.169 41.8686 132.058 43.0557 138.992 44.221C138.992 47.256 138.992 50.2619 138.992 53.2969C132.058 52.0771 125.184 50.8645 118.382 49.6302C118.385 46.6788 118.385 43.6983 118.382 40.7178ZM118.385 60.3651C125.187 61.6321 132.047 62.8737 138.995 64.1552C138.995 67.1901 138.995 70.167 138.995 73.1729C132.047 71.8369 125.187 70.5373 118.4 69.2449C118.385 66.2934 118.385 63.3166 118.385 60.3651ZM118.389 79.9797C125.176 81.3012 132.066 82.6626 139.013 84.0312C139.013 87.0661 139.013 90.072 139.013 93.107C132.066 91.6839 125.191 90.2971 118.389 88.8922C118.389 85.9407 118.389 82.9602 118.389 79.9797ZM118.389 99.5653C125.191 101.032 132.066 102.477 138.999 103.933C138.999 106.968 138.999 109.973 138.999 112.979C132.066 111.469 125.191 109.966 118.393 108.474C118.393 105.526 118.393 102.546 118.389 99.5653ZM118.407 119.184C125.191 120.734 132.08 122.269 138.999 123.809C138.999 126.815 139.013 129.85 139.013 132.855C132.066 131.258 125.205 129.668 118.407 128.092C118.407 125.116 118.407 122.135 118.407 119.184ZM118.396 138.827C125.194 140.436 132.069 142.055 139.017 143.714C139.017 146.691 139.017 149.755 139.017 152.76C132.069 151.076 125.198 149.399 118.396 147.707C118.396 144.759 118.396 141.808 118.396 138.827ZM118.411 158.417C125.194 160.166 132.084 161.873 139.017 163.619C139.002 166.625 139.002 169.631 139.002 172.607C132.084 170.836 125.198 169.075 118.414 167.325C118.414 164.378 118.414 161.397 118.411 158.417ZM118.414 178.002C125.213 179.81 132.088 181.632 139.017 183.466C139.017 186.472 139.017 189.507 139.017 192.513C132.073 190.654 125.213 188.806 118.414 186.915C118.414 183.934 118.414 180.954 118.414 178.002ZM118.433 197.62C125.202 199.512 132.088 201.421 139.021 203.342C139.021 206.348 139.021 209.383 139.021 212.389C132.091 210.443 125.202 208.479 118.418 206.529C118.418 203.581 118.418 200.601 118.433 197.62ZM118.418 217.177C125.216 219.185 132.088 221.181 139.021 223.214C139.035 226.224 139.021 229.288 139.021 232.265C132.091 230.199 125.22 228.181 118.422 226.148C118.422 223.138 118.422 220.157 118.418 217.177ZM118.436 236.795C125.22 238.915 132.106 240.97 139.021 243.094C139.021 246.1 139.021 249.135 139.021 252.141C132.091 249.991 125.22 247.853 118.436 245.708C118.436 242.727 118.436 239.747 118.436 236.795ZM118.44 256.414C125.224 258.563 132.095 260.759 139.024 262.97C139.024 265.976 139.024 269.011 139.024 272.017C132.095 269.78 125.224 267.559 118.425 265.322C118.425 262.371 118.44 259.39 118.44 256.414ZM118.44 275.999C125.224 278.293 132.091 280.573 139.035 282.875C139.035 285.881 139.035 288.916 139.021 291.864C132.106 289.54 125.22 287.202 118.44 284.941C118.444 281.96 118.444 278.98 118.44 275.999ZM128.606 32.5677C128.606 35.5881 128.606 38.5831 128.606 41.5745C135.525 42.7617 142.491 43.956 149.541 45.1323C149.541 42.1118 149.526 39.0624 149.526 36.0165C142.491 34.8693 135.529 33.7294 128.606 32.5677ZM128.61 52.3566C128.61 55.348 128.61 58.343 128.61 61.3344C135.543 62.6377 142.495 63.8938 149.544 65.1825C149.544 62.1331 149.544 59.1163 149.544 56.0378C142.491 54.8034 135.529 53.5764 128.61 52.3566ZM128.625 72.0874C128.625 75.0788 128.625 78.0738 128.625 81.0943C135.529 82.4556 142.491 83.8279 149.53 85.2074C149.53 82.187 149.53 79.1085 149.544 76.0917C142.495 74.7376 135.529 73.4234 128.625 72.0874ZM128.614 91.8763C128.614 94.8677 128.614 97.8627 128.614 100.854C135.547 102.332 142.509 103.791 149.53 105.258C149.53 102.208 149.53 99.1588 149.53 96.1129C142.495 94.7007 135.532 93.2667 128.614 91.8763ZM128.628 111.607C128.628 114.599 128.628 117.594 128.628 120.585C135.547 122.15 142.495 123.696 149.544 125.283C149.544 122.262 149.544 119.213 149.544 116.167C142.509 114.635 135.547 113.143 128.628 111.607ZM128.632 131.363C128.632 134.355 128.632 137.379 128.632 140.37C135.536 141.993 142.498 143.656 149.548 145.3C149.548 142.309 149.548 139.263 149.548 136.213C142.495 134.598 135.532 132.99 128.632 131.363ZM128.617 151.123C128.632 154.147 128.632 157.139 128.632 160.105C135.55 161.873 142.509 163.593 149.544 165.354C149.544 162.305 149.544 159.288 149.544 156.238C142.513 154.532 135.55 152.808 128.617 151.123ZM128.636 170.825C128.636 173.845 128.636 176.84 128.636 179.832C135.55 181.658 142.498 183.495 149.548 185.346C149.548 182.326 149.548 179.276 149.533 176.256C142.513 174.437 135.55 172.655 128.636 170.825ZM128.636 190.585C128.636 193.576 128.65 196.571 128.65 199.566C135.55 201.508 142.513 203.433 149.548 205.4C149.548 202.351 149.548 199.301 149.548 196.255C142.513 194.371 135.54 192.473 128.636 190.585ZM128.654 210.345C128.639 213.336 128.639 216.302 128.639 219.264C135.554 221.323 142.516 223.334 149.548 225.392C149.548 222.343 149.548 219.293 149.548 216.277C142.516 214.276 135.554 212.291 128.654 210.345ZM128.639 230.076C128.639 233.071 128.639 236.062 128.654 239.086C135.569 241.144 142.498 243.268 149.548 245.385C149.548 242.393 149.548 239.376 149.548 236.327C142.516 234.239 135.554 232.167 128.639 230.076ZM128.657 249.781C128.657 252.772 128.657 255.767 128.657 258.788C135.558 260.988 142.516 263.206 149.552 265.439C149.566 262.389 149.566 259.369 149.566 256.323C142.516 254.116 135.572 251.955 128.657 249.781ZM128.657 269.537C128.643 272.529 128.643 275.553 128.643 278.515C135.558 280.831 142.516 283.136 149.548 285.46C149.548 282.41 149.548 279.361 149.548 276.344C142.516 274.05 135.558 271.773 128.657 269.537ZM139.834 24.4721C145.808 25.4305 151.83 26.3671 157.968 27.3364C157.968 30.3968 157.968 33.4571 157.968 36.5139C151.83 35.5192 145.812 34.5317 139.834 33.5515C139.834 30.5129 139.834 27.507 139.834 24.4721ZM139.837 44.3517C145.812 45.419 151.834 46.4355 157.968 47.4847C157.968 50.5451 157.968 53.6054 157.968 56.6331C151.83 55.5585 145.812 54.4912 139.852 53.4312C139.852 50.4253 139.837 47.3903 139.837 44.3517ZM139.852 64.3221C145.797 65.4112 151.83 66.504 157.968 67.6076C157.968 70.668 157.968 73.7283 157.968 76.756C151.83 75.6016 145.797 74.4544 139.852 73.3145C139.852 70.3376 139.852 67.299 139.852 64.3221ZM139.837 84.2054C145.812 85.3744 151.844 86.576 157.968 87.7595C157.968 90.8199 157.968 93.8803 157.968 96.937C151.848 95.7027 145.812 94.472 139.837 93.2522C139.837 90.2499 139.837 87.2114 139.837 84.2054ZM139.855 104.118C145.815 105.363 151.848 106.648 157.968 107.944C157.968 111.005 157.968 114.065 157.968 117.093C151.848 115.746 145.815 114.439 139.855 113.139C139.855 110.159 139.855 107.124 139.855 104.118ZM139.855 123.997C145.815 125.323 151.848 126.688 157.968 128.063C157.968 131.124 157.968 134.213 157.968 137.27C151.848 135.872 145.83 134.456 139.855 133.077C139.855 130.042 139.855 127.007 139.855 123.997ZM139.855 143.91C145.815 145.344 151.834 146.76 157.968 148.215C157.968 151.276 157.968 154.336 157.968 157.393C151.834 155.915 145.815 154.449 139.855 152.989C139.855 149.954 139.87 146.89 139.855 143.91ZM139.859 163.822C145.819 165.336 151.834 166.832 157.972 168.367C157.972 171.399 157.972 174.455 157.972 177.487C151.852 175.929 145.819 174.379 139.863 172.843C139.859 169.838 139.859 166.857 139.859 163.822ZM139.859 183.676C145.819 185.27 151.848 186.875 157.968 188.461C157.968 191.521 157.968 194.582 157.968 197.639C151.848 195.998 145.83 194.371 139.859 192.756C139.859 189.721 139.859 186.711 139.859 183.676ZM139.874 203.56C145.83 205.233 151.848 206.914 157.968 208.613C157.968 211.673 157.968 214.734 157.968 217.761C151.848 216.041 145.815 214.334 139.859 212.639C139.859 209.604 139.874 206.595 139.874 203.56ZM139.859 223.443C145.815 225.193 151.848 226.957 157.968 228.736C157.968 231.825 157.968 234.886 157.968 237.913C151.848 236.084 145.819 234.298 139.863 232.522C139.859 229.513 139.859 226.478 139.859 223.443ZM139.863 243.352C145.834 245.156 151.852 246.996 157.968 248.855C157.968 251.916 157.968 254.976 157.968 258.033C151.863 256.152 145.834 254.257 139.877 252.402C139.877 249.4 139.877 246.361 139.863 243.352ZM139.877 263.268C145.834 265.148 151.863 267.072 157.968 269.007C157.968 272.067 157.968 275.128 157.968 278.156C151.848 276.195 145.834 274.22 139.863 272.285C139.877 269.308 139.877 266.273 139.877 263.268ZM139.863 283.151C145.819 285.14 151.848 287.115 157.968 289.163C157.968 292.194 157.968 295.251 157.968 298.195C151.852 296.213 145.819 294.187 139.863 292.147C139.863 289.192 139.863 286.157 139.863 283.151ZM150.372 36.1436C150.386 39.193 150.386 42.2425 150.386 45.292C152.88 45.7167 155.402 46.1415 157.968 46.5408C157.968 43.5095 157.968 40.4528 157.968 37.3924C155.388 36.9785 152.88 36.5611 150.372 36.1436ZM150.386 56.1757C150.386 59.2542 150.386 62.3037 150.386 65.3532C152.88 65.7997 155.402 66.2753 157.968 66.7254C157.968 63.6651 157.968 60.6047 157.968 57.5189C155.402 57.0797 152.88 56.6404 150.386 56.1757ZM150.386 76.2332C150.386 79.2827 150.386 82.3612 150.386 85.3817C152.88 85.879 155.402 86.3764 157.968 86.8774C157.968 83.846 157.968 80.7857 157.968 77.6999C155.402 77.2098 152.88 76.7197 150.386 76.2332ZM150.372 96.2908C150.372 99.3403 150.372 102.39 150.372 105.439C152.88 105.955 155.402 106.477 157.968 106.997C157.968 103.965 157.968 100.909 157.968 97.8482C155.402 97.34 152.88 96.799 150.372 96.2908ZM150.386 116.352C150.386 119.401 150.386 122.451 150.386 125.471C152.865 126.009 155.402 126.579 157.968 127.152C157.968 124.092 157.968 121.031 157.968 117.975C155.402 117.437 152.88 116.907 150.386 116.352ZM150.386 136.41C150.386 139.459 150.386 142.508 150.386 145.558C152.88 146.146 155.402 146.738 157.968 147.304C157.968 144.273 157.968 141.212 157.968 138.156C155.402 137.568 152.88 136.987 150.386 136.41ZM150.386 156.438C150.386 159.487 150.386 162.537 150.386 165.557C152.88 166.196 155.402 166.839 157.968 167.485C157.968 164.425 157.968 161.364 157.968 158.308C155.402 157.669 152.88 157.066 150.386 156.438ZM150.386 176.467C150.386 179.516 150.386 182.565 150.386 185.557C152.88 186.247 155.402 186.907 157.968 187.575C157.968 184.515 157.968 181.455 157.968 178.398C155.402 177.77 152.88 177.116 150.386 176.467ZM150.39 196.499C150.39 199.548 150.39 202.569 150.39 205.618C152.883 206.326 155.402 207.012 157.968 207.698C157.968 204.667 157.968 201.61 157.968 198.55C155.402 197.871 152.88 197.167 150.39 196.499ZM150.39 216.498C150.39 219.548 150.39 222.568 150.39 225.617C152.883 226.347 155.402 227.081 157.968 227.821C157.968 224.761 157.968 221.7 157.968 218.644C155.402 217.914 152.88 217.217 150.39 216.498ZM150.39 236.585C150.39 239.634 150.39 242.626 150.39 245.646C152.898 246.427 155.417 247.182 157.968 247.944C157.968 244.913 157.968 241.885 157.968 238.825C155.388 238.073 152.898 237.329 150.39 236.585ZM150.39 256.584C150.39 259.605 150.39 262.654 150.405 265.707C152.898 266.509 155.402 267.315 157.968 268.096C157.968 265.065 157.968 262.004 157.968 258.948C155.402 258.145 152.898 257.35 150.39 256.584ZM150.405 276.645C150.405 279.666 150.405 282.715 150.405 285.736C152.88 286.56 155.402 287.413 157.968 288.248C157.968 285.187 157.968 282.127 157.968 279.07C155.402 278.275 152.898 277.459 150.405 276.645Z" fill="#DCDCDC"/>
<path fill-rule="evenodd" clip-rule="evenodd" d="M185.817 22.9801C183.754 23.354 181.698 23.6771 179.638 24.0002C179.642 26.9843 179.642 30.0519 179.642 33.0324C181.698 32.6985 183.754 32.3645 185.817 32.0341C185.817 29.0609 185.817 26.0332 185.817 22.9801ZM185.817 42.7109C183.754 43.0812 181.701 43.4297 179.642 43.7782C179.642 46.7877 179.642 49.7719 179.642 52.756C181.701 52.3966 183.754 52.0118 185.817 51.656C185.817 48.6828 185.817 45.7132 185.817 42.7109ZM185.817 62.3364C183.757 62.7321 181.701 63.1315 179.642 63.5018C179.642 66.4859 179.645 69.4954 179.649 72.4796C181.705 72.0693 183.757 71.6591 185.817 71.2525C185.817 68.2793 185.817 65.3351 185.817 62.3364ZM185.817 81.9293C183.757 82.3504 181.705 82.8006 179.649 83.2253C179.649 86.2349 179.649 89.1645 179.649 92.1487C181.709 91.713 183.761 91.252 185.817 90.849C185.817 87.9012 185.817 84.9279 185.817 81.9293ZM185.817 101.551C183.757 102.023 181.705 102.499 179.649 102.949C179.649 105.933 179.653 108.943 179.653 111.927C181.712 111.466 183.765 110.954 185.817 110.471C185.817 107.523 185.817 104.524 185.817 101.551ZM185.817 121.148C183.761 121.645 181.709 122.171 179.653 122.672C179.653 125.682 179.653 128.666 179.653 131.65C181.709 131.138 183.761 130.601 185.817 130.064C185.817 127.12 185.817 124.117 185.817 121.148ZM185.817 140.77C183.765 141.318 181.712 141.87 179.653 142.396C179.653 145.38 179.656 148.39 179.656 151.374C181.712 150.811 183.765 150.248 185.817 149.689C185.817 146.741 185.817 143.743 185.817 140.77ZM185.817 160.337C183.768 160.911 181.716 161.513 179.66 162.09C179.66 165.129 179.66 168.113 179.66 171.097C181.716 170.48 183.768 169.896 185.817 169.282C185.817 166.338 185.817 163.31 185.817 160.337ZM185.817 179.988C183.768 180.587 181.716 181.24 179.66 181.869C179.66 184.853 179.664 187.837 179.664 190.817C181.72 190.178 183.772 189.539 185.817 188.904C185.817 185.931 185.817 182.958 185.817 179.988ZM185.817 199.555C183.768 200.234 181.72 200.884 179.664 201.567C179.664 204.576 179.667 207.56 179.667 210.544C181.723 209.851 183.775 209.19 185.82 208.501C185.817 205.527 185.817 202.554 185.817 199.555ZM185.817 219.177C183.772 219.878 181.72 220.582 179.664 221.316C179.667 224.3 179.667 227.255 179.667 230.264C181.723 229.52 183.772 228.805 185.817 228.122C185.817 225.149 185.817 222.176 185.817 219.177ZM185.817 238.799C183.775 239.554 181.723 240.28 179.667 241.01C179.667 244.02 179.667 247.033 179.667 249.988C181.727 249.218 183.775 248.452 185.817 247.715C185.817 244.742 185.817 241.798 185.817 238.799ZM185.817 258.392C183.775 259.169 181.727 259.95 179.671 260.759C179.675 263.743 179.675 266.753 179.675 269.737C181.73 268.916 183.779 268.125 185.817 267.312C185.817 264.364 185.817 261.365 185.817 258.392ZM185.817 278.018C183.779 278.845 181.73 279.651 179.675 280.457C179.675 283.467 179.675 286.48 179.675 289.435C181.734 288.589 183.779 287.747 185.817 286.908C185.817 283.961 185.817 280.987 185.817 278.018ZM185.817 32.9163C185.817 35.9149 185.817 38.8882 185.817 41.8614C183.575 42.2317 181.34 42.6455 179.106 43.0086C176.861 43.3716 174.604 43.7601 172.34 44.1376C172.34 41.1426 172.34 38.1185 172.34 35.0945C174.604 34.7568 176.857 34.3648 179.102 34.0308C181.344 33.6895 183.575 33.3011 185.817 32.9163ZM185.817 52.5091C185.817 55.5078 185.817 58.481 185.817 61.4543C183.579 61.879 181.348 62.3328 179.106 62.7358C176.864 63.1387 174.608 63.5707 172.34 63.9737C172.34 60.9787 172.34 57.98 172.34 54.956C174.604 54.5639 176.864 54.1464 179.106 53.7543C181.344 53.3659 183.575 52.923 185.817 52.5091ZM185.817 72.131C185.817 75.1297 185.817 78.1029 185.817 81.0762C183.582 81.5263 181.351 82.0491 179.11 82.492C176.868 82.9349 174.611 83.4068 172.344 83.8643C172.344 80.8692 172.344 77.8452 172.344 74.8211C174.611 74.3746 176.864 73.9172 179.11 73.4852C181.344 73.0568 183.579 72.5994 185.817 72.131ZM185.817 91.7275C185.817 94.7262 185.817 97.6994 185.817 100.644C183.582 101.177 181.348 101.7 179.11 102.194C176.864 102.691 174.608 103.243 172.34 103.729C172.34 100.734 172.34 97.7103 172.34 94.6826C174.611 94.1816 176.864 93.6262 179.11 93.1579C181.348 92.6896 183.579 92.1922 185.817 91.7275ZM185.817 111.349C185.817 114.323 185.817 117.321 185.817 120.266C183.586 120.825 181.355 121.416 179.113 121.95C176.868 122.487 174.611 123.054 172.34 123.595C172.34 120.6 172.34 117.575 172.34 114.548C174.611 114.021 176.871 113.48 179.113 112.969C181.359 112.46 183.582 111.869 185.817 111.349ZM185.817 130.971C185.817 133.945 185.817 136.914 185.817 139.862C183.586 140.476 181.351 141.078 179.117 141.655C176.868 142.233 174.611 142.897 172.34 143.46C172.34 140.465 172.34 137.441 172.34 134.417C174.611 133.861 176.864 133.269 179.117 132.703C181.351 132.137 183.586 131.545 185.817 130.971ZM185.817 150.568C185.817 153.512 185.817 156.511 185.817 159.459C183.59 160.097 181.362 160.769 179.121 161.386C176.871 162.003 174.615 162.653 172.348 163.299C172.348 160.304 172.344 157.28 172.344 154.253C174.615 153.643 176.875 153.036 179.121 152.43C181.359 151.824 183.586 151.167 185.817 150.568ZM185.817 170.19C185.817 173.163 185.817 176.107 185.817 179.08C183.593 179.774 181.366 180.485 179.121 181.142C176.879 181.8 174.611 182.515 172.344 183.19C172.344 180.195 172.344 177.171 172.344 174.147C174.611 173.512 176.875 172.836 179.121 172.19C181.362 171.54 183.59 170.843 185.817 170.19ZM185.817 189.757C185.817 192.756 185.817 195.729 185.817 198.702C183.593 199.425 181.362 200.162 179.124 200.87C176.871 201.585 174.611 202.325 172.344 203.055C172.344 200.06 172.344 197.036 172.344 194.012C174.611 193.293 176.875 192.578 179.124 191.892C181.362 191.206 183.59 190.465 185.817 189.757ZM185.817 209.379C185.817 212.378 185.817 215.351 185.817 218.324C183.597 219.072 181.366 219.878 179.128 220.626C176.879 221.381 174.615 222.161 172.348 222.92C172.348 219.925 172.348 216.901 172.348 213.873C174.615 213.129 176.879 212.389 179.128 211.644C181.366 210.907 183.59 210.141 185.817 209.379ZM185.817 228.976C185.817 231.974 185.817 234.948 185.817 237.921C183.597 238.723 181.373 239.565 179.131 240.357C176.89 241.148 174.619 241.972 172.348 242.756C172.348 239.761 172.348 236.763 172.348 233.739C174.619 232.969 176.89 232.127 179.131 231.346C181.373 230.566 183.597 229.734 185.817 228.976ZM185.817 248.598C185.817 251.596 185.817 254.569 185.817 257.514C183.597 258.367 181.373 259.253 179.131 260.084C176.882 260.919 174.619 261.808 172.344 262.647C172.344 259.652 172.344 256.628 172.344 253.604C174.615 252.776 176.882 251.927 179.131 251.102C181.37 250.286 183.597 249.44 185.817 248.598ZM185.817 268.19C185.817 271.164 185.817 274.162 185.817 277.106C183.604 278.014 181.377 278.929 179.135 279.811C176.882 280.701 174.619 281.59 172.344 282.483C172.344 279.488 172.344 276.489 172.344 273.465C174.615 272.612 176.882 271.679 179.135 270.83C181.373 269.987 183.6 269.062 185.817 268.19ZM179.099 24.0764C176.857 24.4286 174.604 24.8061 172.34 25.1292C170.07 25.4523 167.788 25.8589 165.491 26.1856C165.491 29.2496 165.491 32.2882 165.488 35.3232C167.784 34.9601 170.062 34.5826 172.337 34.2304C174.601 33.8819 176.853 33.5044 179.099 33.1159C179.099 30.1572 179.099 27.0896 179.099 24.0764ZM179.106 43.8617C176.861 44.2393 174.608 44.6858 172.34 45.0488C170.07 45.4118 167.788 45.8076 165.491 46.1851C165.491 49.2201 165.491 52.2877 165.491 55.2936C167.788 54.9015 170.07 54.484 172.34 54.092C174.604 53.7035 176.864 53.257 179.106 52.8395C179.106 49.859 179.106 46.8749 179.106 43.8617ZM179.106 63.6179C176.864 64.0499 174.608 64.511 172.34 64.914C170.066 65.3206 167.78 65.7816 165.488 66.1882C165.488 69.2522 165.488 72.2908 165.488 75.2967C167.78 74.8502 170.062 74.3891 172.34 73.9571C174.604 73.5287 176.864 73.0423 179.106 72.5957C179.106 69.6152 179.106 66.6021 179.106 63.6179ZM179.106 83.3197C176.861 83.8062 174.608 84.318 172.34 84.7791C170.066 85.2401 167.78 85.6722 165.484 86.1332C165.484 89.1972 165.484 92.2067 165.484 95.2707C167.78 94.7952 170.07 94.2542 172.34 93.7678C174.611 93.2813 176.864 92.744 179.11 92.2467C179.11 89.288 179.11 86.3329 179.106 83.3197ZM179.11 103.08C176.864 103.591 174.608 104.147 172.34 104.644C170.062 105.145 167.78 105.675 165.484 106.191C165.484 109.226 165.48 112.264 165.48 115.299C167.78 114.769 170.066 114.214 172.34 113.687C174.611 113.161 176.868 112.609 179.113 112.057C179.11 109.073 179.11 106.089 179.11 103.08ZM179.113 122.781C176.868 123.348 174.601 123.918 172.34 124.455C170.055 124.999 167.78 125.649 165.48 126.194C165.48 129.232 165.48 132.296 165.477 135.302C167.773 134.718 170.059 134.093 172.337 133.527C174.604 132.961 176.864 132.365 179.113 131.788C179.117 128.804 179.117 125.791 179.113 122.781ZM179.117 142.538C176.868 143.158 174.611 143.779 172.34 144.375C170.066 144.97 167.777 145.569 165.48 146.168C165.48 149.206 165.48 152.27 165.48 155.251C167.777 154.641 170.066 153.973 172.34 153.392C174.608 152.815 176.868 152.151 179.117 151.519C179.117 148.56 179.117 145.551 179.117 142.538ZM179.117 162.239C176.868 162.886 174.604 163.55 172.344 164.185C170.059 164.824 167.773 165.543 165.473 166.171C165.473 169.235 165.473 172.274 165.473 175.279C167.773 174.641 170.062 173.907 172.344 173.257C174.608 172.611 176.871 171.907 179.121 171.246C179.121 168.262 179.117 165.253 179.117 162.239ZM179.121 181.996C176.871 182.696 174.611 183.43 172.344 184.105C170.066 184.784 167.773 185.492 165.473 186.17C165.473 189.205 165.473 192.244 165.473 195.254C167.777 194.56 170.07 193.841 172.344 193.148C174.611 192.458 176.871 191.718 179.124 191.002C179.124 188.018 179.121 185.009 179.121 181.996ZM179.124 201.752C176.875 202.478 174.608 203.251 172.344 203.966C170.062 204.689 167.773 205.433 165.473 206.17C165.473 209.205 165.473 212.243 165.469 215.278C167.769 214.531 170.062 213.714 172.344 212.98C174.608 212.254 176.871 211.467 179.124 210.701C179.128 207.749 179.124 204.765 179.124 201.752ZM179.128 221.483C176.879 222.263 174.619 223.076 172.348 223.806C170.07 224.539 167.773 225.327 165.473 226.093C165.473 229.128 165.473 232.196 165.469 235.26C167.773 234.454 170.066 233.655 172.348 232.853C174.619 232.054 176.882 231.23 179.131 230.439C179.128 227.425 179.128 224.438 179.128 221.483ZM179.128 241.213C176.879 242.048 174.615 242.891 172.344 243.7C170.062 244.517 167.769 245.359 165.466 246.151C165.466 249.215 165.466 252.25 165.466 255.259C167.769 254.428 170.062 253.571 172.344 252.743C174.615 251.919 176.879 251.041 179.131 250.22C179.128 247.236 179.128 244.223 179.128 241.213ZM179.131 260.941C176.879 261.805 174.611 262.687 172.344 263.536C170.055 264.393 167.769 265.304 165.462 266.179C165.462 269.214 165.462 272.224 165.462 275.233C167.766 274.373 170.066 273.476 172.344 272.608C174.622 271.741 176.879 270.822 179.135 269.922C179.135 266.938 179.131 263.954 179.131 260.941ZM179.135 280.697C176.879 281.586 174.622 282.534 172.344 283.427C170.062 284.324 167.762 285.249 165.462 286.153C165.462 289.188 165.462 292.198 165.462 295.207C167.766 294.267 170.066 293.338 172.344 292.445C174.622 291.552 176.882 290.579 179.135 289.678C179.135 286.694 179.135 283.681 179.135 280.697ZM171.797 35.1997C171.797 38.2238 171.797 41.2225 171.797 44.2211C169.519 44.6277 167.234 45.0343 164.937 45.4082C162.63 45.7894 160.3 46.2214 157.967 46.599C157.967 43.5495 157.967 40.5 157.967 37.4215C160.3 37.0548 162.63 36.6773 164.937 36.3251C167.23 35.9694 169.519 35.5628 171.797 35.1997ZM171.797 55.0431C171.797 58.0672 171.797 61.0949 171.797 64.1189C169.519 64.5509 167.234 65.0265 164.933 65.444C162.63 65.8651 160.297 66.2826 157.967 66.7182C157.967 63.6688 157.967 60.6193 157.967 57.5408C160.297 57.1487 162.626 56.7276 164.933 56.3319C167.23 55.9362 169.519 55.4606 171.797 55.0431ZM171.797 74.9409C171.797 77.965 171.797 80.9636 171.797 83.9623C169.515 84.4487 167.226 84.9098 164.933 85.3708C162.626 85.8319 160.297 86.3474 157.967 86.8121C157.967 83.7916 157.967 80.7676 157.967 77.6891C160.297 77.268 162.626 76.7924 164.933 76.3422C167.226 75.8921 169.515 75.4165 171.797 74.9409ZM171.797 94.8133C171.797 97.8374 171.797 100.865 171.797 103.86C169.515 104.372 167.223 104.931 164.926 105.432C162.619 105.937 160.293 106.492 157.967 106.982C157.967 103.962 157.967 100.883 157.967 97.8301C160.297 97.3255 162.619 96.81 164.933 96.3163C167.223 95.8334 169.515 95.3143 171.797 94.8133ZM171.797 114.686C171.797 117.71 171.797 120.737 171.797 123.732C169.512 124.302 167.226 124.912 164.926 125.471C162.622 126.03 160.289 126.59 157.967 127.134C157.967 124.085 157.967 121.035 157.967 117.982C160.289 117.448 162.622 116.889 164.926 116.356C167.223 115.826 169.512 115.241 171.797 114.686ZM171.797 134.554C171.797 137.579 171.797 140.606 171.797 143.601C169.512 144.226 167.223 144.85 164.923 145.449C162.615 146.048 160.293 146.676 157.967 147.279C157.967 144.229 157.967 141.205 157.967 138.127C160.289 137.539 162.611 136.911 164.926 136.333C167.223 135.767 169.512 135.139 171.797 134.554ZM171.797 154.398C171.797 157.422 171.79 160.45 171.79 163.445C169.508 164.123 167.215 164.817 164.919 165.456C162.608 166.098 160.282 166.766 157.964 167.423C157.964 164.345 157.964 161.295 157.964 158.217C160.286 157.6 162.611 156.972 164.919 156.344C167.226 155.719 169.512 155.037 171.797 154.398ZM171.79 174.299C171.79 177.323 171.79 180.351 171.79 183.346C169.508 184.05 167.219 184.787 164.919 185.466C162.608 186.149 160.282 186.86 157.964 187.546C157.964 184.497 157.964 181.473 157.964 178.394C160.282 177.723 162.611 177.022 164.919 176.354C167.223 175.686 169.512 174.989 171.79 174.299ZM171.79 194.197C171.79 197.221 171.79 200.249 171.79 203.244C169.508 203.977 167.212 204.754 164.915 205.473C162.604 206.199 160.286 206.95 157.967 207.691C157.967 204.671 157.967 201.592 157.967 198.514C160.286 197.813 162.604 197.072 164.915 196.361C167.212 195.653 169.512 194.916 171.79 194.197ZM171.79 214.04C171.79 217.065 171.79 220.092 171.79 223.087C169.508 223.846 167.219 224.648 164.915 225.425C162.608 226.202 160.279 227.012 157.967 227.781C157.967 224.761 157.967 221.737 157.967 218.687C160.279 217.932 162.608 217.123 164.915 216.367C167.215 215.62 169.512 214.814 171.79 214.04ZM171.79 233.942C171.79 236.966 171.79 239.994 171.79 242.989C169.508 243.802 167.212 244.673 164.908 245.494C162.601 246.314 160.275 247.164 157.964 247.991C157.964 244.942 157.964 241.863 157.964 238.814C160.275 238.001 162.593 237.18 164.908 236.381C167.208 235.59 169.512 234.741 171.79 233.942ZM171.79 253.811C171.79 256.835 171.79 259.833 171.79 262.832C169.505 263.729 167.208 264.615 164.908 265.475C162.593 266.339 160.275 267.257 157.964 268.14C157.964 265.09 157.964 262.041 157.964 258.962C160.271 258.124 162.593 257.245 164.908 256.392C167.204 255.542 169.512 254.667 171.79 253.811ZM171.79 273.683C171.79 276.707 171.79 279.735 171.79 282.73C169.505 283.652 167.204 284.607 164.904 285.511C162.597 286.415 160.271 287.348 157.967 288.255C157.967 285.206 157.967 282.156 157.967 279.078C160.275 278.181 162.601 277.288 164.912 276.399C167.212 275.509 169.505 274.565 171.79 273.683ZM164.937 26.2909C162.626 26.6431 160.3 26.9952 157.967 27.3474C157.967 30.4259 157.967 33.4753 157.967 36.4994C160.3 36.1618 162.626 35.7697 164.937 35.3776C164.937 32.3645 164.937 29.3295 164.937 26.2909ZM164.937 46.2976C162.622 46.7042 160.3 47.1108 157.967 47.492C157.967 50.5415 157.967 53.62 157.967 56.6441C160.297 56.252 162.619 55.8309 164.933 55.4134C164.937 52.4002 164.937 49.3362 164.937 46.2976ZM164.933 66.279C162.622 66.74 160.297 67.1757 157.967 67.6403C157.967 70.6898 157.967 73.7393 157.967 76.7924C160.297 76.3459 162.619 75.8703 164.933 75.3947C164.933 72.3525 164.933 69.343 164.933 66.279ZM164.933 86.2603C162.619 86.7504 160.297 87.2405 157.967 87.7051C157.967 90.7837 157.967 93.8331 157.967 96.9407C160.297 96.4361 162.615 95.9315 164.933 95.4305C164.933 92.3338 164.933 89.2988 164.933 86.2603ZM164.926 106.325C162.615 106.87 160.293 107.389 157.967 107.908C157.967 110.986 157.967 114.036 157.967 117.085C160.289 116.526 162.615 115.967 164.926 115.408C164.926 112.399 164.926 109.36 164.926 106.325ZM164.926 126.306C162.615 126.905 160.289 127.483 157.967 128.027C157.967 131.106 157.967 134.184 157.967 137.205C160.289 136.617 162.611 136.028 164.926 135.418C164.926 132.409 164.926 129.37 164.926 126.306ZM164.923 146.342C162.611 146.97 160.293 147.602 157.967 148.205C157.967 151.254 157.967 154.303 157.967 157.328C160.289 156.71 162.611 156.068 164.923 155.429C164.923 152.416 164.923 149.377 164.923 146.342ZM164.923 166.32C162.611 167.002 160.286 167.659 157.967 168.32C157.967 171.37 157.967 174.448 157.967 177.472C160.286 176.83 162.611 176.129 164.923 175.436C164.923 172.426 164.923 169.387 164.923 166.32ZM164.923 186.359C162.604 187.071 160.286 187.782 157.967 188.468C157.967 191.518 157.967 194.596 157.967 197.646C160.286 196.92 162.604 196.194 164.915 195.442C164.915 192.433 164.923 189.394 164.923 186.359ZM164.915 206.341C162.604 207.107 160.286 207.847 157.967 208.591C157.967 211.67 157.967 214.719 157.967 217.769C160.279 217.014 162.604 216.233 164.915 215.453C164.915 212.443 164.915 209.375 164.915 206.341ZM164.915 226.293C162.597 227.113 160.279 227.912 157.967 228.682C157.967 231.76 157.967 234.868 157.967 237.917C160.279 237.108 162.597 236.298 164.912 235.463C164.915 232.395 164.915 229.357 164.915 226.293ZM164.912 246.358C162.601 247.207 160.279 248.06 157.967 248.884C157.967 251.963 157.967 255.012 157.967 258.036C160.279 257.198 162.597 256.334 164.912 255.47C164.912 252.431 164.912 249.393 164.912 246.358ZM164.912 266.364C162.597 267.268 160.279 268.15 157.967 269.033C157.967 272.082 157.967 275.161 157.967 278.185C160.275 277.317 162.593 276.399 164.912 275.48C164.912 272.467 164.912 269.403 164.912 266.364ZM164.904 286.375C162.593 287.337 160.271 288.27 157.967 289.181C157.967 292.23 157.967 295.225 157.967 298.191C160.275 297.324 162.593 296.376 164.904 295.403C164.904 292.419 164.904 289.439 164.904 286.375Z" fill="#B7B7B7"/>
<path fill-rule="evenodd" clip-rule="evenodd" d="M157.968 27.3437L185.818 22.98L29.1 0.301361L10.4111 4.00429L157.968 27.3437Z" fill="#9D9D9C"/>
<path fill-rule="evenodd" clip-rule="evenodd" d="M0.0507812 253.354L146.234 303.692C146.274 249.709 154.654 184.762 87.076 172.045C24.8782 160.341 35.5075 85.3676 0.0507812 83.1349V253.354Z" fill="#F1D850"/>
<path d="M146.285 303.765L146.216 303.739L0 253.39V83.0807L0.0546812 83.0844C15.5978 84.0646 22.3341 99.0614 30.1311 116.429C40.4434 139.391 52.1299 165.417 87.0872 171.995C94.4979 173.389 101.256 175.476 107.18 178.203C112.811 180.791 117.867 184.04 122.205 187.852C130.184 194.866 135.984 203.847 139.942 215.304C147.258 236.498 146.854 262.455 146.46 287.555C146.376 292.885 146.292 298.399 146.289 303.692V303.765H146.285ZM0.102065 253.318L146.183 303.619C146.187 298.348 146.274 292.863 146.354 287.555C146.744 262.462 147.149 236.513 139.84 215.337C131.566 191.366 114.302 177.219 87.0654 172.093C71.4676 169.156 59.0812 162 49.1955 150.213C40.5746 139.932 34.9756 127.465 30.0364 116.465C22.2612 99.1486 15.5467 84.1916 0.102065 83.186V253.318Z" fill="#141414"/>
</g>
<defs>
<clipPath id="clip0_4013_3788">
<rect width="186" height="304" fill="white"/>
</clipPath>
</defs>
</svg>
