<svg width="1380" height="364" viewBox="0 0 1380 364" fill="none" xmlns="http://www.w3.org/2000/svg">
<g clip-path="url(#clip0_229_673)">
<rect width="1380" height="364" rx="24" fill="#E95414"/>
<rect x="390" y="34" width="600" height="70" rx="2" fill="#F6F6F6" fill-opacity="0.12"/>
<rect x="390" y="174" width="600" height="70" rx="2" fill="#F6F6F6" fill-opacity="0.12"/>
<rect x="990" y="-36" width="600" height="70" rx="2" fill="#F6F6F6" fill-opacity="0.12"/>
<rect x="990" y="104" width="600" height="70" rx="2" fill="#F6F6F6" fill-opacity="0.12"/>
<rect x="990" y="244" width="600" height="70" rx="2" fill="#F6F6F6" fill-opacity="0.12"/>
<rect x="390" y="314" width="600" height="70" rx="2" fill="#F6F6F6" fill-opacity="0.12"/>
<rect x="-210" y="-36" width="600" height="70" rx="2" fill="#F6F6F6" fill-opacity="0.12"/>
<rect x="-210" y="104" width="600" height="70" rx="2" fill="#F6F6F6" fill-opacity="0.12"/>
<rect x="-210" y="244" width="600" height="70" rx="2" fill="#F6F6F6" fill-opacity="0.12"/>
<rect width="690" height="365" fill="url(#paint0_linear_229_673)"/>
<rect x="1380" y="365" width="690" height="365" transform="rotate(-180 1380 365)" fill="url(#paint1_linear_229_673)"/>
</g>
<defs>
<linearGradient id="paint0_linear_229_673" x1="690" y1="182.5" x2="-9.87452e-06" y2="182.5" gradientUnits="userSpaceOnUse">
<stop stop-color="#E95414" stop-opacity="0"/>
<stop offset="0.957587" stop-color="#E95414"/>
</linearGradient>
<linearGradient id="paint1_linear_229_673" x1="2070" y1="547.5" x2="1380" y2="547.5" gradientUnits="userSpaceOnUse">
<stop stop-color="#E95414" stop-opacity="0"/>
<stop offset="0.957587" stop-color="#E95414"/>
</linearGradient>
<clipPath id="clip0_229_673">
<rect width="1380" height="364" rx="24" fill="white"/>
</clipPath>
</defs>
</svg>
