<svg width="195" height="30" viewBox="0 0 195 30" fill="none" xmlns="http://www.w3.org/2000/svg">
<path d="M52.0028 19.4154L52.5484 18.1743C52.9127 17.3353 53.5683 17.1163 54.4051 17.7363C56.0076 18.9043 58.6284 19.7805 62.1247 19.7805C65.1111 19.7805 66.385 19.0146 66.385 18.1012C66.385 17.0791 65.3297 16.7871 63.5815 16.5681L59.6124 16.0586C54.8421 15.4386 52.4385 13.7223 52.4385 10.7304C52.4385 7.51958 55.0606 4.96436 61.1407 4.96436C64.527 4.96436 66.7122 5.4754 68.1319 6.02214C69.6972 6.64209 69.9157 7.15314 69.9157 8.43142V10.0733C69.9157 11.0954 69.5515 11.4605 68.5318 11.4605H67.4034C66.3837 11.4605 66.0195 11.0954 66.0195 10.0733V9.52506C65.3639 9.30606 63.7258 8.97832 61.7963 8.97832C58.447 8.97832 56.8075 9.59811 56.8075 10.6202C56.8075 11.3861 57.7901 11.8241 59.5739 12.0803L63.4701 12.5913C68.2404 13.2113 70.7527 14.6355 70.7527 18.0655C70.7527 21.5685 67.4392 23.7958 61.5407 23.7958C57.2075 23.7958 53.7125 22.4086 52.3285 21.1318C51.8201 20.6565 51.7472 20.0353 52.0028 19.4154Z" fill="#F6F6F6"/>
<path d="M94.9763 23.5025H92.9738C91.9912 23.5025 91.6628 23.3564 91.19 22.6264L87.4037 17.0421C86.8581 16.2762 86.4568 16.0931 85.3286 16.0931H81.5423V22.1153C81.5423 23.1374 81.1781 23.5025 80.1584 23.5025H78.7016C77.6819 23.5025 77.3176 23.1374 77.3176 22.1153V3.97811H75.9708C74.9511 3.97811 74.5869 3.61317 74.5869 2.59108V1.38719C74.5869 0.365103 74.9511 0 75.9708 0H80.1584C81.1781 0 81.5423 0.365103 81.5423 1.38719V12.0075H84.9287C86.0569 12.0075 86.4582 11.8256 87.0039 11.0583L90.1716 6.16839C90.6816 5.40249 91.0086 5.25638 91.9925 5.25638H93.995C95.0875 5.25638 95.306 6.13253 94.6862 7.04437L91.1542 12.4097C90.7901 12.9207 90.353 13.4676 89.916 13.9056C90.353 14.2707 90.9715 14.8905 91.2271 15.2556L95.6688 21.7517C96.2873 22.6279 96.0688 23.5025 94.9763 23.5025Z" fill="#F6F6F6"/>
<path d="M101.869 26.8608V25.6569C101.869 24.6348 102.233 24.2697 103.253 24.2697H105.001C106.057 24.2697 106.566 24.0507 106.968 23.2118L107.186 22.7379L98.8482 6.93559C98.3384 5.98655 98.7383 5.25635 99.8308 5.25635H101.725C102.707 5.25635 103.144 5.43832 103.509 6.1325L107.004 13.3215C107.805 14.9635 108.714 16.8616 109.443 18.5036C110.171 16.8974 111.008 15.0738 111.809 13.4676L115.377 6.1325C115.704 5.43965 116.178 5.25635 117.161 5.25635H119.055C120.147 5.25635 120.547 5.98655 120.037 6.93559L110.534 25.0011C109.441 27.0811 108.168 28.2492 105.327 28.2492H103.252C102.233 28.2478 101.869 27.8829 101.869 26.8608Z" fill="#F6F6F6"/>
<path d="M143.308 14.3063V14.7445C143.308 15.7665 142.944 16.1315 141.924 16.1315H126.995C127.505 18.0656 129.434 19.9264 133.549 19.9264C137.227 19.9264 138.902 18.7226 139.666 18.1743C140.503 17.5545 141.086 17.772 141.523 18.6123L142.141 19.8162C142.468 20.4362 142.287 20.9113 141.74 21.3852C140.939 22.078 138.208 23.7945 133.548 23.7945C127.285 23.7945 122.916 20.1083 122.916 14.3422C122.916 8.68481 127.103 4.96289 133.111 4.96289C139.12 4.96289 143.308 8.64911 143.308 14.3063ZM126.995 12.5914H139.266C138.793 10.6933 136.863 8.90531 133.112 8.90531C129.361 8.90531 127.468 10.6933 126.995 12.5914Z" fill="#F6F6F6"/>
<path d="M169.86 13.6855V22.1156C169.86 23.1377 169.496 23.5028 168.475 23.5028H167.019C165.999 23.5028 165.635 23.1377 165.635 22.1156V13.7943C165.635 10.8383 163.887 9.23207 160.938 9.23207C158.644 9.23207 155.913 10.655 154.565 12.1509V22.1143C154.565 23.1363 154.201 23.5014 153.181 23.5014H151.724C150.704 23.5014 150.34 23.1363 150.34 22.1143V9.23207H148.993C147.974 9.23207 147.609 8.86713 147.609 7.84504V6.64099C147.609 5.6189 147.974 5.25396 148.993 5.25396H152.525C153.545 5.25396 153.909 5.6189 153.909 6.64099V7.66308C155.876 6.05706 158.534 4.96191 161.41 4.96191C166.873 4.96325 169.86 8.21131 169.86 13.6855Z" fill="#F6F6F6"/>
<path d="M195 6.6421V23.7227C195 27.5177 190.922 29.9999 185.715 29.9999C180.8 29.9999 178.47 28.5398 177.413 27.5549C176.904 27.081 176.83 26.4597 177.085 25.84L177.629 24.5989C178.032 23.6869 178.686 23.5037 179.487 24.1609C180.762 25.1828 182 26.0217 185.676 26.0589C188.953 26.0589 190.774 24.8551 190.774 23.395V21.6428C189.463 22.4816 187.86 23.0299 185.566 23.0299C179.668 23.0299 175.589 19.5628 175.589 14.0157C175.589 8.46861 179.666 4.96436 185.566 4.96436C188.115 4.96436 189.791 5.69439 190.921 6.57038C191.212 5.95058 191.794 5.25624 192.522 5.25624H193.615C194.635 5.2549 195 5.62001 195 6.6421ZM190.777 16.9345V11.0954C189.757 9.8543 188.264 9.0884 185.57 9.0884C182.329 9.0884 179.963 10.9494 179.963 14.0157C179.963 17.082 182.329 18.9057 185.57 18.9057C188.228 18.9043 189.721 18.1384 190.777 16.9345Z" fill="#F6F6F6"/>
<path d="M5.26719 27.7229C2.20194 29.4859 1.18673e-06 28.0167 1.06204e-06 25.4036C9.29302e-07 22.6217 5.3102e-07 14.2745 5.3102e-07 14.2745C5.3102e-07 14.2745 1.32739e-07 5.92733 0 3.14544C-1.2469e-07 0.532343 2.20058 -0.936907 5.26719 0.826062C10.0413 3.57126 24.3621 11.8095 24.3621 11.8095C26.2663 12.9047 26.2663 15.643 24.3621 16.7382C24.3621 16.7395 10.0413 24.9777 5.26719 27.7229Z" fill="#F6F6F6"/>
<path d="M21.0309 27.7229C17.9655 29.4859 15.7637 28.0167 15.7637 25.4036C15.7637 22.6217 15.7637 14.2745 15.7637 14.2745C15.7637 14.2745 15.7637 5.92733 15.7637 3.14544C15.7637 0.532343 17.9642 -0.936907 21.0309 0.826062C25.6998 3.51138 39.7064 11.5688 39.7064 11.5688C41.7978 12.7714 41.7978 15.7776 39.7064 16.9802C39.7051 16.9802 25.6998 25.0376 21.0309 27.7229Z" fill="#F6F6F6"/>
<mask id="mask0_229_581" style="mask-type:alpha" maskUnits="userSpaceOnUse" x="15" y="0" width="27" height="29">
<path d="M21.0309 27.7229C17.9655 29.4859 15.7637 28.0167 15.7637 25.4036C15.7637 22.6217 15.7637 14.2745 15.7637 14.2745C15.7637 14.2745 15.7637 5.92733 15.7637 3.14544C15.7637 0.532343 17.9642 -0.936907 21.0309 0.826062C25.6998 3.51138 39.7064 11.5688 39.7064 11.5688C41.7978 12.7714 41.7978 15.7776 39.7064 16.9802C39.7051 16.9802 25.6998 25.0376 21.0309 27.7229Z" fill="#6FE4FF"/>
</mask>
<g mask="url(#mask0_229_581)">
<path d="M5.26719 27.7229C2.20194 29.4859 1.18673e-06 28.0167 1.06204e-06 25.4036C9.29302e-07 22.6217 5.3102e-07 14.2745 5.3102e-07 14.2745C5.3102e-07 14.2745 1.32739e-07 5.92733 0 3.14544C-1.2469e-07 0.532343 2.20058 -0.936907 5.26719 0.826062C10.0413 3.57126 24.3621 11.8095 24.3621 11.8095C26.2663 12.9047 26.2663 15.643 24.3621 16.7382C24.3621 16.7382 10.0413 24.9777 5.26719 27.7229Z" fill="#F6F6F6"/>
</g>
</svg>
