<svg width="106" height="42" viewBox="0 0 106 42" fill="none" xmlns="http://www.w3.org/2000/svg">
<g clip-path="url(#clip0_229_251)">
<path d="M101.334 0H4.66635C2.0892 0 0 2.10884 0 4.71022V37.2898C0 39.8912 2.0892 42 4.66635 42H101.334C103.911 42 106 39.8912 106 37.2898V4.71022C106 2.10884 103.911 0 101.334 0Z" fill="#FFDD2D"/>
<path d="M51.8753 20.2495C51.3506 20.0457 50.6643 19.9846 49.9176 19.9846H45.7596V18.6807H52.9047V16.4397H42.833V26.1374H49.6551C50.6038 26.1374 51.31 26.0559 51.835 25.8521C52.9451 25.4242 53.6918 24.3852 53.6918 23.0202C53.6918 21.6349 52.9854 20.6773 51.8753 20.2495ZM50.4221 23.611C50.2606 23.6722 50.0386 23.6925 49.7559 23.6925H45.7596V22.1442H49.7559C50.079 22.1442 50.3412 22.1647 50.5432 22.2664C50.7853 22.3887 50.9065 22.6128 50.9065 22.898C50.9065 23.1832 50.7652 23.4888 50.4221 23.611Z" fill="#303030"/>
<path d="M61.8973 16.4397H57.6184L53.6826 26.1374H56.9928L57.5377 24.7316H61.978L62.5432 26.1374H65.8332L61.8973 16.4397ZM58.2643 22.5923L59.657 18.6807H59.879L61.2717 22.5923H58.2643Z" fill="#303030"/>
<path d="M69.6003 22.5314V26.1374H66.6738V16.4397H69.6003V19.9847H74.3031V16.4397H77.2298V26.1374H74.3031V22.5314H69.6003Z" fill="#303030"/>
<path d="M81.8622 22.4703V26.1374H78.9355V16.4397H81.8622V20.0865H82.6696L86.2017 16.4397H89.875L85.1925 21.0848L90.0567 26.1374H86.1613L82.6696 22.4703H81.8622Z" fill="#303030"/>
<path d="M14.0107 10.2058H37.3427V22.0504C37.3427 25.0868 35.7379 27.8927 33.133 29.4111L25.6767 33.7571L18.2205 29.4111C15.6155 27.8927 14.0107 25.0868 14.0107 22.0504V10.2058Z" fill="#F6F6F6"/>
<path fill-rule="evenodd" clip-rule="evenodd" d="M20.4141 16.4397V20.1236C20.9131 19.5548 21.8205 19.1697 22.858 19.1697H23.9855V23.4523C23.9855 24.5916 23.6788 25.5889 23.2238 26.1374H28.128C27.6739 25.5883 27.3679 24.5923 27.3679 23.4544V19.1697H28.4954C29.5329 19.1697 30.4403 19.5548 30.9394 20.1236V16.4397H20.4141Z" fill="#303030"/>
</g>
<defs>
<clipPath id="clip0_229_251">
<rect width="106" height="42" fill="white"/>
</clipPath>
</defs>
</svg>
