<svg width="15" height="14" viewBox="0 0 15 14" fill="none" xmlns="http://www.w3.org/2000/svg">
<path fill-rule="evenodd" clip-rule="evenodd" d="M12.7193 13.0821V13.0805L12.7329 13.046L15 0.903596V0.865049C15 0.562292 14.8942 0.298083 14.6659 0.139878C14.4655 0.00094734 14.235 -0.00868941 14.0732 0.00415968C13.9226 0.0186278 13.774 0.0509516 13.6302 0.100528C13.5689 0.121532 13.5084 0.145107 13.4488 0.171198L13.439 0.175213L0.799595 5.44254L0.795816 5.44414C0.757388 5.45808 0.719777 5.47444 0.68318 5.49313C0.59329 5.53603 0.507045 5.58708 0.425403 5.64571C0.262875 5.76457 -0.0463059 6.04403 0.00585425 6.48733C0.048943 6.85513 0.287065 7.08802 0.448081 7.20929C0.543122 7.28004 0.645304 7.3393 0.752727 7.38596L0.776917 7.39721L0.784476 7.39961L0.789768 7.40202L3.00166 8.19304C2.9941 8.34001 3.00771 8.49018 3.04475 8.63875L4.15221 13.103C4.21271 13.3463 4.34344 13.5634 4.52604 13.7238C4.70864 13.8842 4.93394 13.9798 5.17029 13.9971C5.40665 14.0145 5.64219 13.9528 5.84383 13.8206C6.04547 13.6885 6.20309 13.4926 6.29455 13.2604L8.02415 11.2961L10.9943 13.7149L11.0366 13.7342C11.3065 13.8595 11.5582 13.8988 11.7887 13.8659C12.0193 13.8322 12.2023 13.7294 12.3398 13.613C12.499 13.4759 12.6258 13.3013 12.7102 13.103L12.7163 13.0894L12.7186 13.0845L12.7193 13.0821ZM4.14087 8.33198C4.1286 8.28244 4.13152 8.23004 4.14919 8.18239C4.16686 8.13474 4.19837 8.0943 4.23914 8.06696L11.7389 3.00763C11.7389 3.00763 12.1803 2.72255 12.1645 3.00763C12.1645 3.00763 12.2431 3.05742 12.0065 3.29112C11.7827 3.51357 6.66118 8.76644 6.14261 9.29807C6.11377 9.32781 6.09357 9.36571 6.0844 9.40728L5.24832 12.7962L4.14087 8.33198Z" fill="white"/>
</svg>
