<svg width="130" height="40" viewBox="0 0 130 40" fill="none" xmlns="http://www.w3.org/2000/svg">
<path d="M64.7292 17.0589C63.8322 16.7129 62.659 16.6092 61.3825 16.6092H54.2745V14.3946H66.4889V10.5884H49.2715V27.0591H60.9338C62.5556 27.0591 63.7629 26.9208 64.6603 26.5745C66.558 25.8478 67.8346 24.0832 67.8346 21.7649C67.8346 19.4121 66.6269 17.7857 64.7292 17.0589ZM62.2449 22.7683C61.969 22.8723 61.5894 22.9067 61.1062 22.9067H54.2745V20.277H61.1062C61.6584 20.277 62.1068 20.3118 62.452 20.4847C62.8659 20.6923 63.073 21.073 63.073 21.5572C63.073 22.0416 62.8316 22.5607 62.2449 22.7683Z" fill="white"/>
<path d="M81.8613 10.5884H74.5466L67.8184 27.0591H73.4771L74.4086 24.6715H81.9993L82.9655 27.0591H88.5897L81.8613 10.5884ZM75.6506 21.0382L78.0316 14.3946H78.411L80.7918 21.0382H75.6506Z" fill="white"/>
<path d="M95.0302 20.9347V27.0592H90.0273V10.5884H95.0302V16.6092H103.07V10.5884H108.073V27.0592H103.07V20.9347H95.0302Z" fill="white"/>
<path d="M115.991 20.8308V27.0592H110.988V10.5884H115.991V16.7822H117.372L123.41 10.5884H129.689L121.684 18.4777L130 27.0592H123.341L117.372 20.8308H115.991Z" fill="white"/>
<path d="M0 0H39.8859V20.1171C39.8859 25.2743 37.1425 30.0398 32.6893 32.6186L19.9429 40L7.19659 32.6186C2.74328 30.0398 0 25.2743 0 20.1171V0Z" fill="#F6F6F6"/>
<path fill-rule="evenodd" clip-rule="evenodd" d="M10.9463 10.5884V16.8452C11.7994 15.8791 13.3506 15.2251 15.1242 15.2251H17.0516V22.4987C17.0516 24.4338 16.5273 26.1275 15.7494 27.0592H24.1332C23.3569 26.1266 22.8338 24.435 22.8338 22.5024V15.2251H24.7613C26.5349 15.2251 28.086 15.8791 28.9392 16.8452V10.5884H10.9463Z" fill="#303030"/>
</svg>
