<svg width="146" height="42" viewBox="0 0 146 42" fill="none" xmlns="http://www.w3.org/2000/svg">
<rect width="146" height="42" rx="14" fill="#707070"/>
<g clip-path="url(#clip0_229_854)">
<path d="M24.9173 32.4401C31.1954 32.4401 36.2849 27.3182 36.2849 21.0001C36.2849 14.6819 31.1954 9.56006 24.9173 9.56006C18.6392 9.56006 13.5498 14.6819 13.5498 21.0001C13.5498 27.3182 18.6392 32.4401 24.9173 32.4401Z" fill="#707070"/>
<path fill-rule="evenodd" clip-rule="evenodd" d="M24.9176 34C32.0518 34 37.8353 28.1796 37.8353 21C37.8353 13.8204 32.0518 8 24.9176 8C17.7835 8 12 13.8204 12 21C12 28.1796 17.7835 34 24.9176 34ZM24.9176 32.44C31.1956 32.44 36.2852 27.318 36.2852 21C36.2852 14.682 31.1956 9.56 24.9176 9.56C18.6397 9.56 13.5501 14.682 13.5501 21C13.5501 25.1492 15.7447 28.7819 19.0294 30.7876L22.0004 19.3049L27.8349 22.6951L19.4391 31.0259C21.1169 31.9563 23.002 32.4429 24.9176 32.44Z" fill="#F6F6F6"/>
<path d="M67.1585 14.7124V28.704H69.9394V14.7124H67.1585ZM68.5493 8.78003C67.4649 8.78003 66.6303 9.59181 66.6303 10.6831C66.6303 11.7736 67.4649 12.5861 68.5493 12.5861C69.633 12.5861 70.4676 11.7744 70.4676 10.6831C70.4676 9.59181 69.6337 8.78003 68.5493 8.78003ZM57.865 14.7124V28.704H60.6451V22.2957C60.6451 19.2739 61.9513 17.4272 64.2879 17.4272C64.6489 17.4272 65.0106 17.4828 65.3443 17.5391V14.5166C65.0609 14.4569 64.7719 14.4288 64.4824 14.4329C62.7306 14.4329 61.2286 15.6361 60.5619 17.5948V14.7131H57.8643L57.865 14.7124Z" fill="#F6F6F6"/>
<path fill-rule="evenodd" clip-rule="evenodd" d="M73.167 33.22V14.7123H75.8646V17.0632C76.7818 15.4403 78.5615 14.461 80.647 14.461C84.3451 14.461 87.0707 17.5954 87.0707 21.7085C87.0707 25.8216 84.3451 28.956 80.6477 28.956C78.6168 28.956 76.8657 28.033 75.9199 26.4658V33.22H73.167ZM75.8366 21.7078C75.8366 24.5064 77.4772 26.5777 80.0076 26.5777C82.538 26.5777 84.1786 24.5071 84.1786 21.7085C84.1786 18.9099 82.538 16.8393 80.0076 16.8393C77.4772 16.8393 75.8366 18.9099 75.8366 21.7085V21.7078Z" fill="#F6F6F6"/>
<path d="M88.3018 24.4508C88.5242 27.1375 90.9161 28.9842 94.1133 28.9842C97.3391 28.9842 99.5911 27.1375 99.5911 24.3952C99.5911 22.2401 98.201 21.065 95.0591 20.4771L93.5571 20.1976C92.139 19.9449 91.4996 19.4415 91.4996 18.5185C91.4996 17.4272 92.4455 16.6718 93.9748 16.6718C95.4761 16.6718 96.4772 17.4828 96.5884 18.7424H99.4526C99.2853 16.1676 97.0886 14.4329 93.9748 14.4329C90.8882 14.4329 88.6914 16.2796 88.6914 18.7424C88.6914 20.9249 90.0815 22.1845 93.0009 22.716L94.475 22.9955C96.1987 23.3314 96.7829 23.7791 96.7829 24.7866C96.7829 25.9617 95.7265 26.7453 94.1133 26.7453C92.3895 26.7453 91.3331 25.8779 91.1939 24.4508H88.3018Z" fill="#F6F6F6"/>
<path fill-rule="evenodd" clip-rule="evenodd" d="M116.821 28.984C112.789 28.984 109.87 25.8777 109.87 21.7083C109.87 17.5389 112.845 14.4326 116.821 14.4326C120.937 14.4326 123.662 17.3432 123.662 21.8484V22.4074H112.678C112.929 24.9265 114.569 26.5775 116.821 26.5775C118.657 26.5775 119.964 25.57 120.325 24.0866L123.273 24.4787C122.355 27.2766 119.853 28.984 116.821 28.984ZM112.79 20.2812H120.77C120.492 18.2662 119.046 16.8109 116.821 16.8109C114.764 16.8109 113.234 18.1824 112.79 20.2812Z" fill="#F6F6F6"/>
<path d="M128.644 14.7123H125.947V28.704H128.728V22.2957C128.728 19.2739 130.034 17.4272 132.37 17.4272C132.731 17.4272 133.093 17.4828 133.427 17.5391V14.5166C133.143 14.4569 132.854 14.4288 132.565 14.4328C130.813 14.4328 129.311 15.6361 128.644 17.5947V14.7131V14.7123ZM106.554 28.8722C105.303 28.8722 104.358 28.592 103.718 27.9767C103.106 27.3613 102.8 26.5214 102.8 25.29V17.0913H100.15V14.7123H102.8V11.2984H105.581V14.7123H109.259V17.0913H105.581V24.8704C105.581 25.402 105.693 25.7103 105.915 25.9617C106.165 26.1856 106.582 26.3257 107.139 26.3257C107.444 26.3257 108.458 26.2845 108.858 26.2441V28.7141C108.458 28.7913 107.255 28.8722 106.554 28.8722ZM50.283 27.9767C50.9224 28.592 51.8683 28.8722 53.1191 28.8722C53.8195 28.8722 55.0223 28.7913 55.4228 28.7133V26.2441C54.8506 26.2892 54.2772 26.3164 53.7033 26.3257C53.1471 26.3257 52.7302 26.1856 52.4797 25.9617C52.2572 25.7103 52.146 25.402 52.146 24.8711V17.0906H55.8239V14.7123H52.146V11.2984H49.3651V14.7123H46.7148V17.0913H49.3658V25.29C49.3658 26.5214 49.6715 27.3613 50.283 27.9767Z" fill="#F6F6F6"/>
<path d="M30.396 10.9741L22.001 19.305L27.8347 22.6951L30.8058 11.2125C30.6711 11.1302 30.534 11.0507 30.396 10.9741Z" fill="#FF1A1A"/>
</g>
<defs>
<clipPath id="clip0_229_854">
<rect width="122" height="26" fill="white" transform="translate(12 8)"/>
</clipPath>
</defs>
</svg>
