<svg width="19" height="12" viewBox="0 0 19 12" fill="none" xmlns="http://www.w3.org/2000/svg">
<path d="M10.3998 11.3335C4.24991 11.3335 0.74341 7.39913 0.599609 0.84185H3.69241C3.79137 5.65057 6.05711 7.68491 7.85538 8.1053V0.84185H10.7594V4.98633C12.5307 4.80979 14.4007 2.91827 15.0302 0.833496H17.9253C17.6893 1.91277 17.2177 2.93482 16.54 3.83597C15.8625 4.73713 14.9935 5.49799 13.9872 6.07081C15.1101 6.5935 16.1017 7.33277 16.8969 8.23975C17.692 9.1469 18.2722 10.2014 18.5996 11.3335H15.4078C14.7244 9.34109 13.0162 7.7943 10.7594 7.58403V11.3335H10.4087H10.3998Z" fill="white"/>
</svg>
